<?xml version="1.0" encoding="UTF-8" ?>
<!DOCTYPE svg PUBLIC "-//W3C//DTD SVG 1.1//EN" "http://www.w3.org/Graphics/SVG/1.1/DTD/svg11.dtd">
<svg width="1016pt" height="1016pt" viewBox="0 0 1016 1016" version="1.1" xmlns="http://www.w3.org/2000/svg">
<g id="#f0d6ccff">
<path fill="#f0d6cc" opacity="1.00" d=" M 692.11 27.20 C 734.08 11.83 778.21 1.42 823.03 0.35 C 828.00 0.28 832.98 0.35 837.95 0.77 C 841.53 1.05 845.03 3.68 845.86 7.25 C 837.86 24.81 830.25 42.54 822.13 60.04 C 805.65 97.29 786.28 133.65 776.06 173.29 C 775.66 174.31 775.21 175.31 774.72 176.28 C 765.18 168.58 754.85 161.47 743.02 157.85 C 732.41 153.25 721.55 149.23 710.69 145.27 C 707.91 143.98 704.15 144.47 702.19 141.80 C 677.25 113.53 650.75 85.97 632.23 52.84 C 651.39 42.58 671.69 34.58 692.11 27.20 Z" />
<path fill="#f0d6cc" opacity="1.00" d=" M 381.13 65.85 L 382.06 65.25 L 382.98 65.75 C 387.01 71.69 391.45 77.50 397.04 82.06 C 398.01 82.90 399.42 82.90 400.57 82.41 C 411.40 78.74 422.32 75.30 433.47 72.72 C 431.38 74.06 429.24 75.31 427.09 76.55 C 422.43 79.43 417.57 82.04 413.20 85.34 C 412.48 87.40 414.16 89.77 416.33 88.10 C 411.78 98.47 407.66 109.03 403.51 119.56 C 394.24 143.79 385.10 168.21 379.29 193.52 C 377.63 196.88 376.13 200.32 374.70 203.78 C 373.82 206.09 370.80 206.71 370.09 209.14 C 369.10 211.47 368.21 213.85 367.33 216.23 C 366.07 215.82 364.82 215.42 363.57 215.02 C 358.96 213.85 354.45 211.89 349.67 211.68 C 338.46 207.24 326.98 203.51 315.23 200.78 C 310.83 199.60 306.27 198.98 302.02 197.28 C 307.08 196.52 310.22 192.00 313.79 188.80 C 317.77 184.62 323.42 179.83 321.63 173.34 C 315.67 174.56 312.04 179.64 308.00 183.66 C 307.49 181.83 307.72 179.23 305.58 178.41 C 297.07 174.57 287.81 172.88 278.91 170.19 C 267.98 166.67 256.94 163.54 246.07 159.85 C 242.99 158.73 239.78 158.02 236.50 158.06 C 237.15 160.64 237.29 163.34 238.04 165.90 C 239.60 168.38 242.28 170.39 242.09 173.64 C 239.74 173.40 237.39 173.64 235.06 173.85 C 232.04 173.33 229.52 170.62 226.30 171.22 C 225.11 172.28 223.69 173.88 224.35 175.59 C 226.50 178.70 230.25 180.48 231.83 184.02 C 233.02 186.50 234.48 188.84 236.08 191.09 C 234.36 190.50 232.65 189.80 230.83 189.69 C 233.63 195.69 238.98 199.85 243.79 204.18 C 247.89 207.94 252.89 210.51 256.99 214.27 C 256.44 214.76 255.34 215.76 254.79 216.25 C 256.56 222.36 262.08 226.14 266.04 230.77 C 264.67 230.57 263.30 230.38 261.94 230.18 C 266.60 236.16 269.98 243.18 275.81 248.19 C 281.48 253.62 288.89 256.48 295.54 260.44 C 314.41 271.27 334.24 280.34 354.45 288.36 C 348.32 298.51 341.79 308.58 337.59 319.72 C 333.43 320.69 329.67 317.39 325.55 316.97 C 321.42 316.31 315.82 314.26 315.90 309.24 C 313.57 307.37 311.14 305.17 310.84 301.99 C 310.27 299.47 313.03 298.02 315.05 297.50 C 318.39 297.09 321.68 296.40 324.96 295.64 C 304.46 279.77 284.47 263.20 265.97 245.01 C 254.07 233.25 242.06 221.55 231.17 208.83 C 200.95 174.74 172.77 138.53 150.16 98.89 C 147.33 93.56 147.51 86.35 151.80 81.79 C 156.04 76.89 162.95 76.32 169.00 76.00 C 178.67 76.69 188.29 74.74 197.96 74.76 C 213.98 73.92 230.02 73.41 246.06 73.18 C 271.52 72.43 296.97 73.74 322.41 74.81 C 343.52 76.38 364.59 78.57 385.62 81.00 C 383.58 76.21 380.79 71.11 381.13 65.85 Z" />
<path fill="#f0d6cc" opacity="1.00" d=" M 659.97 156.90 C 665.83 154.97 672.05 156.28 678.08 156.30 C 683.24 156.84 688.59 156.13 693.60 157.71 C 697.34 161.59 702.04 164.33 706.07 167.87 C 731.33 188.11 749.57 215.37 766.16 242.78 C 768.70 247.06 771.47 251.24 773.28 255.90 C 777.09 271.28 778.07 287.50 784.83 302.04 C 790.71 314.51 801.50 323.56 809.80 334.31 C 810.62 335.19 810.98 336.52 810.17 337.56 C 808.67 337.57 807.62 336.37 806.45 335.65 C 796.94 328.84 789.28 319.73 783.01 309.92 C 775.83 297.97 770.34 285.10 764.54 272.45 C 760.98 264.94 759.13 256.61 754.36 249.70 C 751.92 267.70 749.43 285.84 750.05 304.05 C 750.33 315.09 754.74 325.51 755.55 336.47 C 756.33 352.28 759.19 367.89 761.74 383.50 C 762.21 387.95 762.34 392.46 762.29 396.94 C 761.46 398.52 759.80 398.84 758.22 398.33 C 755.57 392.06 752.50 385.98 749.72 379.78 C 746.73 395.19 744.06 410.65 740.89 426.02 C 741.20 430.39 741.25 434.86 742.29 439.13 C 743.93 474.20 745.75 509.37 751.25 544.08 C 752.91 560.24 754.91 576.35 756.30 592.54 C 757.36 607.23 757.88 622.01 756.58 636.70 C 756.24 639.47 756.08 642.33 755.14 644.99 C 754.45 646.30 752.49 646.11 751.77 644.91 C 752.47 640.67 753.06 636.41 753.29 632.12 C 749.90 630.37 751.66 626.19 750.75 623.22 C 748.25 612.62 745.13 602.19 742.43 591.65 C 739.44 580.20 736.98 568.59 735.55 556.84 C 730.28 519.67 719.05 483.73 711.37 447.05 C 709.70 440.46 708.19 433.81 707.49 427.04 C 708.67 424.92 709.85 422.78 710.66 420.49 C 713.34 412.45 716.86 404.53 717.31 395.95 C 717.50 380.72 719.84 365.52 723.86 350.83 C 723.96 350.16 724.16 348.81 724.27 348.14 L 723.33 347.16 C 722.20 345.18 721.43 342.77 719.05 341.98 C 719.55 342.08 720.55 342.28 721.05 342.38 C 719.10 335.95 717.18 329.47 716.37 322.78 C 716.07 326.22 716.17 329.68 715.93 333.12 C 712.22 333.11 708.55 332.39 704.84 332.32 C 703.11 326.63 702.92 320.59 702.10 314.72 C 700.56 304.73 699.67 294.67 699.39 284.57 C 698.33 284.42 697.28 284.28 696.23 284.14 C 693.01 292.59 690.73 301.35 687.99 309.95 C 686.53 314.74 684.75 319.50 684.42 324.54 C 682.61 327.91 682.37 331.81 681.34 335.44 C 681.01 336.73 680.76 338.28 679.11 338.38 C 677.66 337.53 677.47 335.53 676.65 334.17 C 673.93 327.04 669.78 320.60 666.13 313.94 C 665.09 312.34 664.34 310.43 662.80 309.24 C 659.53 309.26 656.31 309.83 653.05 309.96 C 639.34 310.86 625.62 308.73 611.92 310.06 C 608.49 304.25 606.31 297.82 603.19 291.85 C 602.73 297.03 603.75 302.19 603.47 307.35 C 601.90 311.57 596.53 310.63 592.97 310.82 C 587.14 310.49 581.43 311.47 575.99 313.55 C 573.68 314.12 571.41 314.98 569.00 314.93 C 567.89 312.51 566.59 310.17 565.13 307.95 C 565.34 310.97 565.84 313.96 566.56 316.90 C 568.50 322.49 571.18 327.79 573.61 333.18 C 572.74 334.53 570.91 333.89 570.29 332.70 C 567.03 329.09 564.33 325.04 561.77 320.92 C 556.84 313.19 553.17 304.77 548.58 296.86 C 564.53 291.55 579.79 284.27 596.01 279.72 C 603.86 277.67 611.70 275.41 619.77 274.36 C 600.08 273.59 581.45 281.19 563.69 288.82 C 558.58 290.75 554.10 293.96 549.10 296.11 C 544.89 284.67 539.42 273.71 535.77 262.06 C 539.80 262.16 544.63 260.85 545.42 256.24 C 548.16 255.82 550.42 254.13 551.70 251.68 C 566.36 228.81 582.61 206.73 602.40 188.02 C 607.19 183.25 612.05 178.54 617.27 174.25 C 629.66 164.67 645.15 160.95 659.97 156.90 M 736.18 215.97 C 732.72 220.95 732.98 227.71 734.54 233.35 C 736.95 244.98 739.49 256.58 741.65 268.26 C 742.63 272.97 744.04 277.58 745.54 282.15 C 746.96 276.20 746.40 270.00 747.17 263.96 C 748.32 254.36 747.76 244.70 747.62 235.06 C 747.91 232.16 745.48 230.19 743.99 228.03 C 740.94 224.31 738.70 220.04 736.18 215.97 M 697.01 280.13 C 702.43 283.11 708.14 285.61 713.74 288.26 C 723.67 292.95 732.31 299.91 739.96 307.71 C 735.74 299.73 728.22 293.96 720.59 289.40 C 713.22 285.23 705.42 281.55 697.01 280.13 Z" />
<path fill="#f0d6cc" opacity="1.00" d=" M 400.80 283.86 C 411.31 272.77 421.79 261.65 432.11 250.38 C 455.10 260.53 480.71 260.34 505.30 262.36 C 504.85 265.18 504.47 268.01 504.37 270.86 C 503.57 288.83 499.59 306.47 494.73 323.72 C 491.90 334.92 486.19 345.07 481.61 355.59 C 478.31 362.23 475.31 369.08 471.07 375.19 C 472.30 367.50 473.57 359.70 472.76 351.90 C 472.19 342.60 468.10 334.07 464.53 325.63 C 462.82 322.31 461.85 318.45 459.34 315.65 C 448.57 314.47 437.84 312.17 426.95 312.46 C 422.30 320.36 418.92 328.95 415.16 337.29 C 412.79 343.20 409.94 348.92 407.86 354.93 C 415.29 370.57 423.46 385.86 432.15 400.83 C 434.22 404.20 435.47 408.20 438.60 410.80 C 438.53 411.05 438.39 411.54 438.32 411.78 C 440.26 412.79 442.22 413.80 444.20 414.75 C 443.49 416.08 442.81 417.43 442.12 418.77 C 443.11 420.52 444.12 422.26 445.15 424.01 C 448.29 423.64 448.78 420.13 450.17 417.88 C 452.14 419.33 455.26 419.07 456.15 416.48 C 456.91 420.16 454.46 423.43 454.30 427.04 C 454.00 430.12 454.72 433.46 453.10 436.27 C 450.28 441.44 447.43 446.96 442.38 450.31 C 437.93 453.46 432.64 455.04 427.48 456.56 C 416.89 456.48 406.31 455.53 395.88 453.78 C 395.57 458.51 394.93 463.23 393.99 467.88 C 393.04 472.43 391.20 476.74 388.35 480.43 C 385.93 483.90 383.44 488.08 384.74 492.46 C 381.61 495.56 378.81 499.02 375.32 501.73 C 372.50 502.61 370.50 504.90 368.04 506.42 C 361.82 511.13 354.37 513.88 346.86 515.73 C 344.38 516.39 341.70 516.52 339.24 515.69 C 337.39 514.52 337.13 511.11 339.18 510.05 C 350.60 503.66 360.33 494.25 366.79 482.85 C 371.43 474.85 376.40 466.76 378.79 457.76 C 379.76 456.71 379.02 454.68 380.60 454.19 C 380.12 453.87 379.14 453.22 378.65 452.90 C 379.18 451.52 381.14 449.69 379.50 448.36 C 372.21 441.70 368.29 431.80 368.19 422.01 C 368.06 419.72 368.76 417.45 368.50 415.19 C 366.89 411.11 364.95 407.17 363.35 403.09 C 360.95 407.22 358.97 411.56 356.99 415.89 C 343.25 442.78 332.41 471.23 325.73 500.70 C 324.93 503.90 324.74 507.28 323.46 510.34 C 323.06 510.55 322.24 510.97 321.84 511.18 C 321.29 506.79 321.82 502.38 321.57 497.98 C 321.24 500.10 320.94 502.22 320.58 504.35 C 318.82 501.93 319.71 498.78 319.60 496.02 C 319.61 489.92 321.23 483.88 320.45 477.79 C 322.60 470.90 321.41 463.48 321.97 456.34 C 322.33 443.66 322.00 430.94 323.34 418.31 C 323.45 411.78 324.65 405.34 324.79 398.81 C 321.59 407.91 320.04 417.49 318.23 426.94 C 316.99 433.10 316.42 439.37 315.28 445.55 C 314.99 445.80 314.40 446.30 314.10 446.56 L 313.48 445.15 C 314.75 435.06 315.98 424.95 317.92 414.96 C 318.35 412.88 318.10 410.73 318.43 408.65 C 321.22 403.36 321.39 397.23 323.33 391.64 C 324.31 391.26 325.30 390.82 325.86 389.88 C 330.20 384.04 333.57 377.55 337.38 371.36 C 349.09 351.71 361.67 332.59 374.94 313.95 C 382.46 303.02 391.96 293.69 400.80 283.86 Z" />
<path fill="#f0d6cc" opacity="1.00" d=" M 509.06 262.53 C 517.62 262.80 526.20 262.69 534.75 262.16 C 533.85 263.04 533.31 264.18 532.79 265.30 C 528.18 273.43 524.61 282.08 520.63 290.51 C 520.17 290.61 519.25 290.82 518.79 290.92 C 513.05 301.30 507.00 311.57 500.14 321.24 C 505.18 302.08 509.40 282.46 509.06 262.53 Z" />
<path fill="#f0d6cc" opacity="1.00" d=" M 502.13 339.13 C 506.44 328.28 509.57 316.90 515.04 306.55 C 515.96 318.10 516.62 329.68 518.08 341.19 C 518.39 343.92 518.58 346.69 519.39 349.35 C 519.92 354.05 521.69 358.46 522.67 363.06 C 523.70 368.77 526.07 374.09 528.28 379.41 C 528.77 383.03 531.05 385.96 532.82 389.04 C 538.47 398.63 544.64 407.91 551.23 416.88 C 559.64 428.25 568.67 439.33 579.65 448.34 C 581.12 449.71 583.21 450.87 583.26 453.15 C 581.83 452.88 580.39 452.57 579.15 451.80 C 566.04 444.09 554.16 434.31 544.03 422.96 C 540.40 419.05 537.38 414.63 533.73 410.75 C 535.60 425.21 539.19 439.41 542.12 453.69 C 542.95 457.86 543.82 462.03 545.00 466.13 C 546.34 472.15 546.64 478.58 549.35 484.18 C 549.65 488.59 551.10 492.79 552.09 497.07 C 554.77 507.89 555.87 519.12 559.78 529.62 C 560.03 531.97 560.53 534.27 561.07 536.57 C 562.76 542.15 563.35 548.22 566.44 553.29 C 566.31 554.91 566.30 556.56 566.88 558.12 C 570.95 571.16 574.60 584.32 578.51 597.40 C 579.09 602.71 571.47 605.18 567.63 603.35 C 564.17 595.57 562.10 587.17 558.46 579.46 C 555.33 575.61 551.54 572.32 548.70 568.23 C 546.39 565.40 544.68 562.07 541.95 559.60 L 541.40 560.92 C 536.23 547.59 530.69 534.40 525.90 520.93 C 523.62 513.30 520.59 505.94 517.72 498.53 C 517.80 496.40 517.60 494.28 516.91 492.27 C 513.69 481.79 510.96 471.16 507.96 460.62 C 503.44 461.68 499.44 464.36 495.46 466.68 C 497.25 475.40 502.33 484.05 500.15 493.13 C 496.11 499.49 487.38 497.86 481.33 500.93 C 483.49 507.59 485.24 514.72 489.79 520.22 C 496.45 525.88 503.23 532.03 506.92 540.11 C 509.39 545.66 506.62 551.44 505.89 556.99 C 507.30 561.63 509.31 566.17 509.49 571.11 C 509.96 572.68 508.11 573.58 508.02 575.04 C 507.83 579.02 507.10 582.94 506.80 586.91 C 506.66 587.79 506.39 589.53 506.26 590.41 C 505.32 590.63 503.57 591.07 503.30 589.72 C 502.82 586.77 503.24 583.77 503.33 580.82 C 503.15 580.51 502.77 579.90 502.58 579.59 L 503.27 580.04 C 502.79 574.57 502.24 568.74 498.74 564.26 C 491.27 554.09 482.66 544.84 474.59 535.15 C 474.54 535.50 474.43 536.19 474.38 536.54 C 473.15 541.93 472.86 547.45 472.90 552.97 C 473.30 554.86 469.95 555.13 469.75 553.22 C 468.36 545.78 469.40 538.17 470.46 530.75 C 470.26 530.47 469.85 529.92 469.65 529.64 L 470.47 529.98 C 471.66 520.18 474.65 510.70 476.90 501.11 C 476.08 499.60 475.94 497.90 475.95 496.22 C 474.39 495.97 472.88 495.55 471.50 494.78 C 469.84 485.92 474.71 477.73 477.06 469.45 C 474.63 467.09 472.05 464.60 471.53 461.08 C 460.56 459.89 449.56 459.00 438.66 457.37 C 443.19 454.85 448.32 452.65 451.13 448.03 C 455.27 441.47 458.31 434.24 462.98 428.01 C 466.02 423.98 468.40 419.52 470.61 414.99 C 473.73 414.71 476.85 414.36 479.97 413.96 C 482.60 417.02 484.38 420.68 486.78 423.92 C 487.50 421.48 488.12 419.01 488.39 416.49 C 489.52 397.56 491.24 378.64 494.80 360.00 C 496.25 352.73 499.75 346.10 502.13 339.13 M 491.92 524.90 C 495.79 532.79 498.99 540.97 502.55 549.00 C 504.63 548.21 503.89 544.87 504.21 543.03 C 502.97 535.56 497.29 529.81 491.92 524.90 Z" />
<path fill="#f0d6cc" opacity="1.00" d=" M 325.02 350.37 C 330.27 348.61 334.13 344.48 338.48 341.26 C 339.52 343.36 337.94 345.27 336.93 347.01 C 333.23 352.74 329.38 358.40 326.25 364.48 C 326.86 364.79 328.07 365.42 328.67 365.73 C 328.55 366.46 328.44 367.20 328.33 367.94 C 328.16 367.49 327.83 366.61 327.66 366.17 C 326.14 366.02 324.62 366.06 323.12 366.24 C 311.46 368.14 299.35 368.19 287.88 365.17 C 286.52 364.67 285.90 361.83 287.99 362.07 C 301.08 361.43 313.77 356.97 325.02 350.37 Z" />
</g>
<g id="#51504eff">
<path fill="#51504e" opacity="1.00" d=" M 822.13 60.04 C 830.25 42.54 837.86 24.81 845.86 7.25 C 848.58 14.69 845.75 22.45 843.34 29.54 C 840.39 38.45 835.44 46.52 832.41 55.38 C 830.67 60.12 828.64 64.75 826.95 69.50 C 829.66 67.03 831.61 63.83 834.36 61.38 C 836.71 59.65 840.20 62.26 839.50 65.02 C 838.94 66.20 838.09 67.19 837.30 68.20 C 828.66 78.87 820.52 89.99 813.81 101.98 C 806.50 113.98 801.07 126.99 794.32 139.30 C 788.46 150.75 781.64 161.70 776.06 173.29 C 786.28 133.65 805.65 97.29 822.13 60.04 Z" />
<path fill="#51504e" opacity="1.00" d=" M 308.00 183.66 C 312.04 179.64 315.67 174.56 321.63 173.34 C 323.42 179.83 317.77 184.62 313.79 188.80 C 310.22 192.00 307.08 196.52 302.02 197.28 C 300.31 196.76 299.08 194.74 300.03 193.06 C 301.82 189.29 305.25 186.69 308.00 183.66 Z" />
<path fill="#51504e" opacity="1.00" d=" M 345.40 215.05 C 345.79 213.02 348.14 212.57 349.67 211.68 C 354.45 211.89 358.96 213.85 363.57 215.02 C 358.66 216.42 354.08 219.11 348.96 219.62 C 346.58 219.86 344.49 217.31 345.40 215.05 Z" />
<path fill="#51504e" opacity="1.00" d=" M 563.69 288.82 C 581.45 281.19 600.08 273.59 619.77 274.36 C 611.70 275.41 603.86 277.67 596.01 279.72 C 579.79 284.27 564.53 291.55 548.58 296.86 C 548.50 296.72 548.34 296.46 548.26 296.33 L 549.10 296.11 C 554.10 293.96 558.58 290.75 563.69 288.82 Z" />
<path fill="#51504e" opacity="1.00" d=" M 697.01 280.13 C 705.42 281.55 713.22 285.23 720.59 289.40 C 728.22 293.96 735.74 299.73 739.96 307.71 C 732.31 299.91 723.67 292.95 713.74 288.26 C 708.14 285.61 702.43 283.11 697.01 280.13 Z" />
<path fill="#51504e" opacity="1.00" d=" M 569.00 314.93 C 571.41 314.98 573.68 314.12 575.99 313.55 C 575.59 314.31 574.80 315.83 574.40 316.58 C 578.80 313.88 584.11 315.94 588.94 315.42 C 593.70 315.77 598.79 313.66 603.25 316.01 C 602.90 317.31 602.28 318.50 601.55 319.63 C 602.61 321.37 602.95 323.37 603.09 325.37 C 608.47 324.22 613.90 323.19 619.41 322.91 C 617.94 324.26 616.87 326.13 615.14 327.15 C 603.88 330.59 592.11 331.79 580.67 334.51 C 560.04 338.58 540.11 345.65 519.39 349.35 C 518.58 346.69 518.39 343.92 518.08 341.19 C 522.68 339.11 527.42 337.31 531.71 334.61 C 541.12 328.78 551.83 325.62 561.77 320.92 C 564.33 325.04 567.03 329.09 570.29 332.70 C 570.91 333.89 572.74 334.53 573.61 333.18 C 571.18 327.79 568.50 322.49 566.56 316.90 C 567.17 316.40 568.39 315.42 569.00 314.93 Z" />
<path fill="#51504e" opacity="1.00" d=" M 690.58 321.83 C 693.94 318.66 698.75 317.85 702.10 314.72 C 702.92 320.59 703.11 326.63 704.84 332.32 C 708.55 332.39 712.22 333.11 715.93 333.12 C 716.17 329.68 716.07 326.22 716.37 322.78 C 717.18 329.47 719.10 335.95 721.05 342.38 C 720.55 342.28 719.55 342.08 719.05 341.98 C 717.91 341.63 716.80 341.24 715.71 340.82 C 709.29 335.62 700.87 335.07 692.99 334.46 C 689.05 334.17 685.14 336.94 681.34 335.44 C 682.37 331.81 682.61 327.91 684.42 324.54 C 685.84 323.02 687.46 321.70 689.19 320.53 C 689.54 320.86 690.23 321.51 690.58 321.83 Z" />
<path fill="#51504e" opacity="1.00" d=" M 668.20 375.72 C 675.12 376.64 681.99 378.22 688.87 379.53 C 690.56 380.03 693.82 380.29 693.40 382.88 C 688.76 383.85 684.07 382.63 679.54 381.71 C 675.43 380.62 670.39 379.90 668.20 375.72 Z" />
<path fill="#51504e" opacity="1.00" d=" M 570.93 381.14 C 571.50 381.19 572.63 381.30 573.19 381.35 C 568.46 385.38 561.95 385.96 556.00 386.38 C 550.12 386.51 544.41 388.68 538.50 388.16 C 547.42 383.76 557.75 384.35 567.32 382.40 C 568.05 382.24 569.50 381.93 570.23 381.77 C 570.41 381.61 570.76 381.30 570.93 381.14 Z" />
<path fill="#51504e" opacity="1.00" d=" M 589.64 471.27 C 591.29 471.39 592.94 471.54 594.60 471.83 C 591.93 476.62 588.86 481.18 586.38 486.08 C 583.28 492.33 578.02 497.51 576.52 504.52 C 574.18 507.07 571.80 510.23 572.69 513.92 C 572.35 513.73 571.65 513.35 571.31 513.16 C 569.09 517.33 566.94 521.53 564.45 525.55 C 562.35 528.86 562.15 532.89 561.07 536.57 C 560.53 534.27 560.03 531.97 559.78 529.62 C 563.70 518.05 569.77 507.39 575.62 496.72 C 577.73 492.32 580.21 488.11 582.77 483.96 C 585.18 479.80 587.56 475.61 589.64 471.27 Z" />
</g>
<g id="#2d2c31ff">
<path fill="#2d2c31" opacity="1.00" d=" M 498.52 33.66 C 499.90 32.89 501.55 33.59 502.93 34.04 C 508.60 36.36 514.05 39.33 518.88 43.13 C 509.39 46.31 499.95 50.01 489.98 51.37 C 485.60 51.59 481.14 50.71 477.22 48.73 C 479.35 47.83 480.75 45.96 482.50 44.55 C 487.55 40.51 492.85 36.77 498.52 33.66 Z" />
<path fill="#2d2c31" opacity="1.00" d=" M 535.90 45.29 C 544.07 46.10 552.19 47.40 560.41 47.76 C 578.42 50.10 596.81 50.72 614.24 56.29 C 619.84 54.52 624.96 51.22 630.89 50.43 C 631.33 51.23 631.77 52.04 632.23 52.84 C 650.75 85.97 677.25 113.53 702.19 141.80 C 704.15 144.47 707.91 143.98 710.69 145.27 C 721.55 149.23 732.41 153.25 743.02 157.85 C 754.85 161.47 765.18 168.58 774.72 176.28 C 793.32 191.43 806.39 212.22 815.85 234.00 C 817.87 241.10 819.13 248.55 819.02 255.94 C 817.82 256.93 817.19 258.33 817.14 259.88 C 815.40 255.41 813.57 250.97 812.21 246.37 C 811.03 238.77 807.03 232.01 804.05 225.03 C 797.32 214.31 790.84 203.18 781.71 194.29 C 778.90 191.41 776.21 188.37 772.95 185.98 C 764.87 180.03 756.71 174.19 748.24 168.82 C 740.76 163.70 732.13 160.71 723.92 157.02 C 714.01 153.11 704.17 148.93 694.00 145.77 C 674.31 141.73 654.14 138.78 634.01 140.11 C 621.92 140.50 610.29 144.18 598.79 147.62 C 578.98 153.98 559.38 161.28 540.96 171.05 C 523.80 179.96 507.58 190.55 491.82 201.73 C 475.00 213.75 458.43 226.20 442.87 239.83 C 440.55 242.17 437.39 243.94 435.92 246.97 C 440.59 248.77 444.89 251.63 449.92 252.39 C 457.48 253.73 464.81 256.20 472.39 257.39 C 483.57 258.17 494.74 259.63 505.97 259.19 C 516.67 258.84 527.36 259.99 538.06 259.61 C 539.82 259.71 541.00 258.21 542.34 257.31 C 544.91 255.17 547.92 253.63 550.49 251.49 C 552.34 249.32 553.80 246.83 555.26 244.38 C 562.42 226.66 575.18 211.88 588.80 198.76 C 593.15 194.98 597.15 190.56 602.40 188.02 C 582.61 206.73 566.36 228.81 551.70 251.68 C 550.42 254.13 548.16 255.82 545.42 256.24 C 544.63 260.85 539.80 262.16 535.77 262.06 L 534.75 262.16 C 526.20 262.69 517.62 262.80 509.06 262.53 C 507.80 262.47 506.55 262.42 505.30 262.36 C 480.71 260.34 455.10 260.53 432.11 250.38 C 431.72 250.21 430.93 249.87 430.54 249.70 C 424.34 255.42 418.37 261.44 412.21 267.22 C 407.88 272.53 402.92 277.27 397.41 281.34 C 390.02 286.55 384.50 293.78 378.36 300.31 C 368.07 311.37 357.79 322.44 347.49 333.49 C 344.73 336.35 341.99 339.31 338.48 341.26 C 334.13 344.48 330.27 348.61 325.02 350.37 C 322.26 351.08 319.10 348.96 318.91 346.05 C 321.33 340.33 324.90 335.28 328.36 330.17 C 323.96 326.98 319.56 323.60 316.62 318.95 C 315.92 316.81 318.58 316.20 319.99 317.13 C 321.83 317.58 323.70 317.15 325.55 316.97 C 329.67 317.39 333.43 320.69 337.59 319.72 C 341.79 308.58 348.32 298.51 354.45 288.36 C 359.31 280.40 364.69 272.78 370.05 265.16 C 368.56 265.03 366.47 265.84 365.69 264.05 C 366.72 256.29 368.82 248.71 370.30 241.03 C 369.38 237.35 367.86 233.85 366.50 230.32 C 365.85 230.26 364.53 230.15 363.87 230.09 C 363.75 229.59 363.50 228.59 363.37 228.09 C 364.51 224.08 365.99 220.17 367.33 216.23 C 368.21 213.85 369.10 211.47 370.09 209.14 C 370.80 206.71 373.82 206.09 374.70 203.78 C 376.13 200.32 377.63 196.88 379.29 193.52 C 385.10 168.21 394.24 143.79 403.51 119.56 C 407.66 109.03 411.78 98.47 416.33 88.10 C 414.16 89.77 412.48 87.40 413.20 85.34 C 417.57 82.04 422.43 79.43 427.09 76.55 C 422.43 90.84 415.60 104.33 410.00 118.25 L 411.50 117.20 C 419.14 108.37 426.29 98.81 435.58 91.62 C 435.01 92.67 434.36 93.66 433.62 94.59 C 425.05 104.71 415.51 114.11 407.93 125.01 C 408.33 133.76 406.39 142.30 405.23 150.92 C 404.51 161.33 401.48 171.46 401.22 181.92 C 400.41 190.28 398.00 198.52 398.52 206.99 C 398.89 211.01 397.97 215.08 398.97 219.04 C 399.83 225.69 398.89 232.45 399.73 239.09 C 399.96 239.35 400.42 239.87 400.65 240.13 C 401.37 236.91 401.73 233.62 402.69 230.45 C 404.09 237.61 403.08 244.95 402.24 252.12 C 403.88 251.22 405.53 250.33 407.06 249.25 C 419.38 240.70 431.67 232.02 445.07 225.22 C 453.27 219.20 461.64 213.37 470.69 208.67 C 478.13 205.14 484.22 199.48 491.22 195.23 C 509.33 183.95 528.09 173.76 547.03 163.97 C 557.73 158.90 568.83 154.64 580.17 151.23 C 595.42 145.65 611.17 141.61 627.01 138.08 C 640.22 134.32 654.12 136.59 667.53 134.23 C 651.49 117.34 635.49 100.11 616.48 86.46 C 603.01 76.06 588.93 66.45 574.30 57.75 C 564.08 51.92 552.48 48.98 540.91 47.32 C 539.05 47.17 537.45 46.23 535.90 45.29 Z" />
<path fill="#2d2c31" opacity="1.00" d=" M 465.80 79.69 C 470.98 72.30 476.27 64.81 483.13 58.84 C 481.01 64.07 476.60 67.92 473.41 72.49 C 462.32 87.57 451.98 103.40 444.53 120.62 C 436.99 147.24 427.83 173.43 421.50 200.38 C 420.67 197.26 421.88 194.07 422.39 191.00 C 425.49 177.87 429.48 164.96 433.16 151.98 C 435.40 143.82 438.61 135.97 440.75 127.79 C 446.69 110.63 455.43 94.56 465.80 79.69 Z" />
<path fill="#2d2c31" opacity="1.00" d=" M 447.51 406.32 C 447.96 404.67 448.47 402.97 449.86 401.86 C 451.91 403.04 453.94 404.26 456.01 405.42 C 455.79 407.05 454.99 408.50 454.29 409.96 C 455.74 410.90 457.21 411.99 457.22 413.94 C 456.83 414.77 456.47 415.61 456.15 416.48 C 455.26 419.07 452.14 419.33 450.17 417.88 C 448.78 420.13 448.29 423.64 445.15 424.01 C 444.12 422.26 443.11 420.52 442.12 418.77 C 442.81 417.43 443.49 416.08 444.20 414.75 C 442.22 413.80 440.26 412.79 438.32 411.78 C 438.39 411.54 438.53 411.05 438.60 410.80 C 439.66 408.48 440.81 406.20 441.90 403.90 C 443.74 404.76 445.59 405.61 447.51 406.32 Z" />
<path fill="#2d2c31" opacity="1.00" d=" M 395.88 453.78 C 406.31 455.53 416.89 456.48 427.48 456.56 C 422.73 458.02 419.68 462.38 414.91 463.74 C 408.14 465.99 400.99 466.70 393.99 467.88 C 394.93 463.23 395.57 458.51 395.88 453.78 Z" />
<path fill="#2d2c31" opacity="1.00" d=" M 424.56 463.54 C 428.34 460.05 433.55 457.80 438.66 457.37 C 449.56 459.00 460.56 459.89 471.53 461.08 C 472.05 464.60 474.63 467.09 477.06 469.45 C 474.71 477.73 469.84 485.92 471.50 494.78 C 472.88 495.55 474.39 495.97 475.95 496.22 C 475.94 497.90 476.08 499.60 476.90 501.11 C 474.65 510.70 471.66 520.18 470.47 529.98 L 469.65 529.64 C 463.42 521.00 457.50 512.15 451.28 503.50 C 443.00 522.45 434.87 541.46 426.49 560.36 C 418.68 577.79 411.06 595.32 402.23 612.27 C 387.64 641.89 368.91 669.18 352.96 698.04 C 351.85 700.11 349.68 701.29 347.41 701.64 C 339.62 701.53 332.32 698.65 324.98 696.40 C 316.71 693.94 309.37 689.31 301.87 685.19 C 293.68 680.66 286.08 675.16 278.94 669.13 C 270.79 662.17 261.77 656.29 253.64 649.31 C 244.56 641.43 235.44 633.54 227.32 624.66 C 220.52 617.77 215.82 609.18 211.51 600.62 C 210.31 597.07 212.62 593.22 216.02 591.99 C 234.20 583.43 253.42 577.29 272.64 571.55 C 286.03 566.71 299.54 562.22 313.04 557.68 C 315.01 556.98 316.42 555.32 318.01 554.04 C 332.54 540.88 346.74 527.35 361.43 514.37 C 366.04 510.13 371.03 506.29 375.32 501.73 C 378.81 499.02 381.61 495.56 384.74 492.46 C 389.33 488.29 390.41 481.81 392.29 476.17 C 403.71 473.96 414.26 468.74 424.56 463.54 Z" />
<path fill="#2d2c31" opacity="1.00" d=" M 544.47 463.39 C 557.31 470.11 570.69 475.89 582.77 483.96 C 580.21 488.11 577.73 492.32 575.62 496.72 C 567.04 492.17 558.18 488.20 549.35 484.18 C 546.64 478.58 546.34 472.15 545.00 466.13 C 544.87 465.45 544.60 464.08 544.47 463.39 Z" />
<path fill="#2d2c31" opacity="1.00" d=" M 495.46 466.68 C 500.05 468.25 505.26 469.72 507.88 474.19 C 511.16 482.30 514.20 490.52 517.72 498.53 C 520.59 505.94 523.62 513.30 525.90 520.93 C 530.69 534.40 536.23 547.59 541.40 560.92 C 544.65 569.25 547.48 577.75 550.92 585.99 C 567.31 608.67 584.75 630.58 602.05 652.57 C 608.40 660.36 614.29 668.57 621.23 675.86 C 634.56 688.28 647.04 701.60 658.67 715.62 C 664.00 721.41 667.83 728.77 668.00 736.75 C 672.96 770.04 683.61 802.15 688.47 835.44 C 688.90 839.59 690.53 843.72 689.77 847.93 C 688.42 851.66 683.73 853.82 680.07 852.12 C 677.54 851.12 676.16 848.52 675.82 845.95 C 671.62 826.30 666.93 806.74 661.22 787.46 C 659.32 789.23 656.65 790.46 654.03 789.64 C 651.09 788.94 649.24 786.16 648.83 783.30 C 647.88 783.61 646.92 783.90 645.97 784.17 C 643.89 783.97 641.69 783.38 640.40 781.61 C 638.01 778.56 635.79 775.39 633.48 772.28 C 628.86 766.09 624.23 759.90 619.51 753.78 C 600.83 729.51 581.65 705.57 561.06 682.88 C 556.29 677.68 551.24 672.73 546.03 667.98 C 544.07 666.13 542.40 663.88 541.76 661.23 C 536.28 642.61 528.04 624.95 519.28 607.69 C 515.22 600.70 511.27 593.64 506.80 586.91 C 507.10 582.94 507.83 579.02 508.02 575.04 C 508.11 573.58 509.96 572.68 509.49 571.11 C 509.31 566.17 507.30 561.63 505.89 556.99 C 506.62 551.44 509.39 545.66 506.92 540.11 C 503.23 532.03 496.45 525.88 489.79 520.22 C 485.24 514.72 483.49 507.59 481.33 500.93 C 487.38 497.86 496.11 499.49 500.15 493.13 C 502.33 484.05 497.25 475.40 495.46 466.68 Z" />
<path fill="#2d2c31" opacity="1.00" d=" M 576.52 504.52 C 578.02 497.51 583.28 492.33 586.38 486.08 C 590.27 489.90 586.67 496.18 582.81 498.60 C 583.38 500.62 583.92 502.66 584.58 504.66 C 585.29 508.02 589.47 507.54 591.93 508.84 C 594.59 509.60 594.33 512.86 594.31 515.05 C 594.12 517.52 591.42 518.14 589.41 518.21 C 589.85 519.31 590.30 520.42 590.74 521.53 C 591.03 524.69 592.40 527.61 592.86 530.73 C 591.30 532.93 588.15 531.00 585.96 530.98 C 584.13 526.28 583.26 521.27 581.32 516.63 C 578.56 515.52 575.13 516.06 572.69 513.92 C 571.80 510.23 574.18 507.07 576.52 504.52 Z" />
<path fill="#2d2c31" opacity="1.00" d=" M 491.92 524.90 C 497.29 529.81 502.97 535.56 504.21 543.03 C 503.89 544.87 504.63 548.21 502.55 549.00 C 498.99 540.97 495.79 532.79 491.92 524.90 Z" />
<path fill="#2d2c31" opacity="1.00" d=" M 474.59 535.15 C 482.66 544.84 491.27 554.09 498.74 564.26 C 502.24 568.74 502.79 574.57 503.27 580.04 L 502.58 579.59 C 493.51 565.03 484.12 550.66 474.38 536.54 C 474.43 536.19 474.54 535.50 474.59 535.15 Z" />
</g>
<g id="#6e6e70ff">
<path fill="#6e6e70" opacity="1.00" d=" M 489.98 51.37 C 499.95 50.01 509.39 46.31 518.88 43.13 C 524.58 43.60 530.21 44.66 535.90 45.29 C 537.45 46.23 539.05 47.17 540.91 47.32 C 552.48 48.98 564.08 51.92 574.30 57.75 C 588.93 66.45 603.01 76.06 616.48 86.46 C 635.49 100.11 651.49 117.34 667.53 134.23 C 654.12 136.59 640.22 134.32 627.01 138.08 C 611.17 141.61 595.42 145.65 580.17 151.23 C 568.83 154.64 557.73 158.90 547.03 163.97 C 528.09 173.76 509.33 183.95 491.22 195.23 C 484.22 199.48 478.13 205.14 470.69 208.67 C 461.64 213.37 453.27 219.20 445.07 225.22 C 431.67 232.02 419.38 240.70 407.06 249.25 C 405.53 250.33 403.88 251.22 402.24 252.12 C 403.08 244.95 404.09 237.61 402.69 230.45 C 401.73 233.62 401.37 236.91 400.65 240.13 C 400.42 239.87 399.96 239.35 399.73 239.09 C 398.89 232.45 399.83 225.69 398.97 219.04 C 397.97 215.08 398.89 211.01 398.52 206.99 C 398.00 198.52 400.41 190.28 401.22 181.92 C 401.48 171.46 404.51 161.33 405.23 150.92 C 406.39 142.30 408.33 133.76 407.93 125.01 C 415.51 114.11 425.05 104.71 433.62 94.59 C 434.36 93.66 435.01 92.67 435.58 91.62 C 426.29 98.81 419.14 108.37 411.50 117.20 L 410.00 118.25 C 415.60 104.33 422.43 90.84 427.09 76.55 C 429.24 75.31 431.38 74.06 433.47 72.72 C 444.52 66.81 455.03 59.91 466.28 54.36 C 469.98 52.60 473.29 49.95 477.22 48.73 C 481.14 50.71 485.60 51.59 489.98 51.37 M 465.80 79.69 C 455.43 94.56 446.69 110.63 440.75 127.79 C 438.61 135.97 435.40 143.82 433.16 151.98 C 429.48 164.96 425.49 177.87 422.39 191.00 C 421.88 194.07 420.67 197.26 421.50 200.38 C 427.83 173.43 436.99 147.24 444.53 120.62 C 451.98 103.40 462.32 87.57 473.41 72.49 C 476.60 67.92 481.01 64.07 483.13 58.84 C 476.27 64.81 470.98 72.30 465.80 79.69 M 502.34 97.80 C 502.08 97.82 501.55 97.86 501.29 97.87 C 501.37 95.43 504.14 91.46 500.96 90.28 C 497.12 95.64 495.61 102.48 493.73 108.77 C 492.38 105.50 493.00 101.92 492.79 98.48 C 491.49 100.47 490.60 102.66 489.70 104.84 C 488.10 103.81 486.15 103.02 485.52 101.07 C 483.97 103.50 482.59 106.06 481.68 108.81 C 480.13 113.43 477.49 117.58 475.40 121.96 C 475.08 120.39 476.74 116.96 474.12 117.19 C 473.20 118.25 472.42 119.42 471.62 120.57 C 469.21 118.85 468.03 122.50 466.82 124.00 C 460.86 135.26 457.81 147.76 453.64 159.74 C 451.29 166.27 449.67 173.04 447.53 179.63 C 441.70 191.75 435.17 203.55 427.75 214.77 C 426.73 216.96 424.40 218.85 424.63 221.41 C 425.23 221.43 426.43 221.49 427.03 221.52 C 433.37 217.48 439.60 213.23 445.51 208.57 C 447.96 206.52 451.06 205.53 453.64 203.68 C 459.28 199.72 465.06 195.76 471.63 193.48 C 473.32 192.65 475.43 192.31 476.78 190.96 C 477.07 189.08 477.35 187.20 477.79 185.35 C 478.19 189.32 479.43 193.30 481.68 196.61 C 481.41 193.50 481.21 190.39 481.04 187.28 C 481.53 187.78 482.50 188.79 482.99 189.29 C 483.99 187.20 484.63 184.97 485.01 182.69 C 485.97 182.59 486.92 182.42 487.86 182.18 C 488.01 182.57 488.31 183.35 488.47 183.73 C 490.87 184.70 490.70 180.88 491.64 179.49 C 491.90 180.70 490.72 183.98 492.92 183.76 C 495.22 183.23 496.30 180.64 496.54 178.46 C 498.67 176.61 499.31 173.57 500.21 171.02 C 500.15 146.78 504.94 122.91 508.12 98.97 C 508.89 95.20 507.43 91.51 507.84 87.73 C 505.09 90.52 503.88 94.30 502.34 97.80 Z" />
<path fill="#6e6e70" opacity="1.00" d=" M 598.79 147.62 C 610.29 144.18 621.92 140.50 634.01 140.11 C 654.14 138.78 674.31 141.73 694.00 145.77 C 704.17 148.93 714.01 153.11 723.92 157.02 C 732.13 160.71 740.76 163.70 748.24 168.82 C 756.71 174.19 764.87 180.03 772.95 185.98 C 776.21 188.37 778.90 191.41 781.71 194.29 C 790.84 203.18 797.32 214.31 804.05 225.03 C 807.03 232.01 811.03 238.77 812.21 246.37 C 809.41 242.72 807.97 238.28 805.62 234.35 C 797.95 220.93 789.11 207.79 777.02 197.94 C 765.52 189.44 755.26 179.13 742.42 172.55 C 737.17 169.55 730.98 169.06 725.67 166.20 C 715.66 161.26 704.56 159.27 693.60 157.71 C 688.59 156.13 683.24 156.84 678.08 156.30 C 672.05 156.28 665.83 154.97 659.97 156.90 C 645.15 160.95 629.66 164.67 617.27 174.25 C 612.05 178.54 607.19 183.25 602.40 188.02 C 597.15 190.56 593.15 194.98 588.80 198.76 C 575.18 211.88 562.42 226.66 555.26 244.38 C 553.80 246.83 552.34 249.32 550.49 251.49 C 547.92 253.63 544.91 255.17 542.34 257.31 C 541.00 258.21 539.82 259.71 538.06 259.61 C 527.36 259.99 516.67 258.84 505.97 259.19 C 494.74 259.63 483.57 258.17 472.39 257.39 C 464.81 256.20 457.48 253.73 449.92 252.39 C 444.89 251.63 440.59 248.77 435.92 246.97 C 437.39 243.94 440.55 242.17 442.87 239.83 C 458.43 226.20 475.00 213.75 491.82 201.73 C 507.58 190.55 523.80 179.96 540.96 171.05 C 559.38 161.28 578.98 153.98 598.79 147.62 Z" />
<path fill="#6e6e70" opacity="1.00" d=" M 483.65 143.78 C 484.02 142.16 485.37 142.16 485.44 143.93 C 485.31 144.68 485.04 146.19 484.91 146.94 L 484.31 146.85 C 484.15 146.09 483.82 144.55 483.65 143.78 Z" />
<path fill="#6e6e70" opacity="1.00" d=" M 519.39 349.35 C 540.11 345.65 560.04 338.58 580.67 334.51 C 581.05 339.69 579.45 344.80 579.55 350.02 C 560.49 353.93 541.40 357.75 522.67 363.06 C 521.69 358.46 519.92 354.05 519.39 349.35 Z" />
<path fill="#6e6e70" opacity="1.00" d=" M 681.34 335.44 C 685.14 336.94 689.05 334.17 692.99 334.46 C 700.87 335.07 709.29 335.62 715.71 340.82 C 714.31 344.93 712.70 348.97 710.86 352.91 C 699.91 350.82 688.93 348.86 677.90 347.29 C 675.29 346.92 672.72 346.34 670.22 345.50 C 672.25 343.08 674.45 340.82 676.75 338.65 C 676.26 338.20 675.29 337.30 674.81 336.85 C 675.27 336.18 676.19 334.84 676.65 334.17 C 677.47 335.53 677.66 337.53 679.11 338.38 C 680.76 338.28 681.01 336.73 681.34 335.44 Z" />
<path fill="#6e6e70" opacity="1.00" d=" M 571.31 513.16 C 571.65 513.35 572.35 513.73 572.69 513.92 C 575.13 516.06 578.56 515.52 581.32 516.63 C 583.26 521.27 584.13 526.28 585.96 530.98 C 588.15 531.00 591.30 532.93 592.86 530.73 C 592.40 527.61 591.03 524.69 590.74 521.53 C 595.66 531.32 601.79 540.45 606.56 550.33 C 609.12 555.94 612.43 561.15 615.39 566.55 C 621.54 574.07 631.50 577.14 640.91 577.78 C 674.80 582.00 708.40 588.53 742.43 591.65 C 745.13 602.19 748.25 612.62 750.75 623.22 C 751.66 626.19 749.90 630.37 753.29 632.12 C 753.06 636.41 752.47 640.67 751.77 644.91 C 751.76 644.22 751.76 642.86 751.75 642.17 C 733.72 663.44 715.39 684.49 697.67 706.03 C 688.61 717.05 679.50 728.03 670.57 739.16 C 669.70 738.36 668.83 737.56 668.00 736.75 C 667.83 728.77 664.00 721.41 658.67 715.62 C 660.73 710.96 661.54 705.87 663.20 701.06 C 669.33 681.83 675.63 662.65 682.61 643.72 C 672.34 636.69 661.56 630.44 651.26 623.45 C 642.78 617.76 634.39 611.91 626.57 605.34 C 612.93 592.81 597.59 582.36 583.15 570.81 C 576.75 565.86 570.93 560.04 566.44 553.29 C 563.35 548.22 562.76 542.15 561.07 536.57 C 562.15 532.89 562.35 528.86 564.45 525.55 C 566.94 521.53 569.09 517.33 571.31 513.16 Z" />
<path fill="#6e6e70" opacity="1.00" d=" M 756.30 592.54 C 763.20 592.84 770.11 592.88 777.02 592.84 C 780.56 593.45 784.94 593.57 787.26 596.77 C 789.05 598.72 787.51 601.43 786.20 603.18 C 776.30 614.32 766.58 625.64 756.58 636.70 C 757.88 622.01 757.36 607.23 756.30 592.54 Z" />
</g>
<g id="#fbf7f7ff">
<path fill="#fbf7f7" opacity="1.00" d=" M 502.34 97.80 C 503.88 94.30 505.09 90.52 507.84 87.73 C 507.43 91.51 508.89 95.20 508.12 98.97 C 504.94 122.91 500.15 146.78 500.21 171.02 C 499.31 173.57 498.67 176.61 496.54 178.46 C 496.30 180.64 495.22 183.23 492.92 183.76 C 490.72 183.98 491.90 180.70 491.64 179.49 C 490.70 180.88 490.87 184.70 488.47 183.73 C 488.31 183.35 488.01 182.57 487.86 182.18 C 486.92 182.42 485.97 182.59 485.01 182.69 C 484.63 184.97 483.99 187.20 482.99 189.29 C 482.50 188.79 481.53 187.78 481.04 187.28 C 481.21 190.39 481.41 193.50 481.68 196.61 C 479.43 193.30 478.19 189.32 477.79 185.35 C 475.95 172.51 479.83 159.85 482.84 147.51 C 482.97 152.71 481.41 157.77 481.05 162.95 C 480.70 169.69 480.64 176.43 480.39 183.18 C 481.46 177.49 481.80 171.70 482.27 165.94 C 483.04 159.59 484.03 153.28 484.91 146.94 C 485.04 146.19 485.31 144.68 485.44 143.93 C 487.43 132.03 490.55 120.39 493.73 108.77 C 495.61 102.48 497.12 95.64 500.96 90.28 C 504.14 91.46 501.37 95.43 501.29 97.87 C 501.55 97.86 502.08 97.82 502.34 97.80 Z" />
<path fill="#fbf7f7" opacity="1.00" d=" M 236.50 158.06 C 239.78 158.02 242.99 158.73 246.07 159.85 C 256.94 163.54 267.98 166.67 278.91 170.19 C 287.81 172.88 297.07 174.57 305.58 178.41 C 307.72 179.23 307.49 181.83 308.00 183.66 C 305.25 186.69 301.82 189.29 300.03 193.06 C 299.08 194.74 300.31 196.76 302.02 197.28 C 306.27 198.98 310.83 199.60 315.23 200.78 C 326.98 203.51 338.46 207.24 349.67 211.68 C 348.14 212.57 345.79 213.02 345.40 215.05 C 344.49 217.31 346.58 219.86 348.96 219.62 C 354.08 219.11 358.66 216.42 363.57 215.02 C 364.82 215.42 366.07 215.82 367.33 216.23 C 365.99 220.17 364.51 224.08 363.37 228.09 C 363.50 228.59 363.75 229.59 363.87 230.09 C 364.53 230.15 365.85 230.26 366.50 230.32 C 367.86 233.85 369.38 237.35 370.30 241.03 C 368.82 248.71 366.72 256.29 365.69 264.05 C 366.47 265.84 368.56 265.03 370.05 265.16 C 364.69 272.78 359.31 280.40 354.45 288.36 C 334.24 280.34 314.41 271.27 295.54 260.44 C 288.89 256.48 281.48 253.62 275.81 248.19 C 269.98 243.18 266.60 236.16 261.94 230.18 C 263.30 230.38 264.67 230.57 266.04 230.77 C 262.08 226.14 256.56 222.36 254.79 216.25 C 255.34 215.76 256.44 214.76 256.99 214.27 C 252.89 210.51 247.89 207.94 243.79 204.18 C 238.98 199.85 233.63 195.69 230.83 189.69 C 232.65 189.80 234.36 190.50 236.08 191.09 C 234.48 188.84 233.02 186.50 231.83 184.02 C 230.25 180.48 226.50 178.70 224.35 175.59 C 223.69 173.88 225.11 172.28 226.30 171.22 C 229.52 170.62 232.04 173.33 235.06 173.85 C 237.39 173.64 239.74 173.40 242.09 173.64 C 242.28 170.39 239.60 168.38 238.04 165.90 C 237.29 163.34 237.15 160.64 236.50 158.06 Z" />
<path fill="#fbf7f7" opacity="1.00" d=" M 520.63 290.51 C 524.61 282.08 528.18 273.43 532.79 265.30 C 536.57 276.28 541.98 286.58 548.26 296.33 C 548.34 296.46 548.50 296.72 548.58 296.86 C 553.17 304.77 556.84 313.19 561.77 320.92 C 551.83 325.62 541.12 328.78 531.71 334.61 C 527.42 337.31 522.68 339.11 518.08 341.19 C 516.62 329.68 515.96 318.10 515.04 306.55 C 515.59 300.83 518.17 295.62 520.63 290.51 Z" />
<path fill="#fbf7f7" opacity="1.00" d=" M 696.23 284.14 C 697.28 284.28 698.33 284.42 699.39 284.57 C 699.67 294.67 700.56 304.73 702.10 314.72 C 698.75 317.85 693.94 318.66 690.58 321.83 C 690.23 321.51 689.54 320.86 689.19 320.53 C 687.46 321.70 685.84 323.02 684.42 324.54 C 684.75 319.50 686.53 314.74 687.99 309.95 C 690.73 301.35 693.01 292.59 696.23 284.14 Z" />
<path fill="#fbf7f7" opacity="1.00" d=" M 603.19 291.85 C 606.31 297.82 608.49 304.25 611.92 310.06 C 625.62 308.73 639.34 310.86 653.05 309.96 C 656.31 309.83 659.53 309.26 662.80 309.24 C 664.34 310.43 665.09 312.34 666.13 313.94 C 669.78 320.60 673.93 327.04 676.65 334.17 C 676.19 334.84 675.27 336.18 674.81 336.85 C 675.29 337.30 676.26 338.20 676.75 338.65 C 674.45 340.82 672.25 343.08 670.22 345.50 C 667.63 352.35 667.70 359.81 667.24 367.02 C 667.38 369.90 666.72 373.09 668.20 375.72 C 670.39 379.90 675.43 380.62 679.54 381.71 C 684.07 382.63 688.76 383.85 693.40 382.88 C 693.82 380.29 690.56 380.03 688.87 379.53 C 691.08 377.80 694.02 377.10 695.87 374.90 C 701.89 368.36 707.16 361.01 710.86 352.91 C 712.70 348.97 714.31 344.93 715.71 340.82 C 716.80 341.24 717.91 341.63 719.05 341.98 C 721.43 342.77 722.20 345.18 723.33 347.16 C 719.54 355.74 717.50 364.92 716.12 374.16 C 713.68 384.35 715.10 394.97 712.74 405.17 C 711.49 410.68 710.53 416.50 707.14 421.18 C 704.83 424.31 703.31 427.93 701.06 431.08 C 698.12 433.78 695.03 436.39 691.57 438.39 C 672.73 447.18 656.92 461.01 641.03 474.15 C 639.14 475.89 636.43 475.88 634.03 476.00 C 623.02 476.06 612.62 472.06 602.08 469.46 C 595.40 467.81 588.97 465.29 582.32 463.58 C 568.76 460.94 555.66 456.39 542.12 453.69 C 539.19 439.41 535.60 425.21 533.73 410.75 C 537.38 414.63 540.40 419.05 544.03 422.96 C 554.16 434.31 566.04 444.09 579.15 451.80 C 580.39 452.57 581.83 452.88 583.26 453.15 C 583.21 450.87 581.12 449.71 579.65 448.34 C 568.67 439.33 559.64 428.25 551.23 416.88 C 544.64 407.91 538.47 398.63 532.82 389.04 C 531.05 385.96 528.77 383.03 528.28 379.41 C 530.87 383.07 533.21 388.34 538.50 388.16 C 544.41 388.68 550.12 386.51 556.00 386.38 C 561.95 385.96 568.46 385.38 573.19 381.35 C 572.63 381.30 571.50 381.19 570.93 381.14 C 572.43 379.26 574.59 378.00 575.90 375.96 C 577.63 373.34 578.38 370.19 578.45 367.07 C 578.62 361.37 579.19 355.70 579.55 350.02 C 579.45 344.80 581.05 339.69 580.67 334.51 C 592.11 331.79 603.88 330.59 615.14 327.15 C 616.87 326.13 617.94 324.26 619.41 322.91 C 613.90 323.19 608.47 324.22 603.09 325.37 C 602.95 323.37 602.61 321.37 601.55 319.63 C 602.28 318.50 602.90 317.31 603.25 316.01 C 598.79 313.66 593.70 315.77 588.94 315.42 C 584.11 315.94 578.80 313.88 574.40 316.58 C 574.80 315.83 575.59 314.31 575.99 313.55 C 581.43 311.47 587.14 310.49 592.97 310.82 C 596.53 310.63 601.90 311.57 603.47 307.35 C 603.75 302.19 602.73 297.03 603.19 291.85 M 668.45 388.33 C 666.47 390.09 664.65 392.98 665.47 395.70 C 667.45 398.00 669.63 395.00 670.09 393.04 C 671.06 391.33 671.52 387.44 668.45 388.33 M 650.04 425.05 C 646.35 427.84 642.48 431.20 641.15 435.79 C 641.60 435.81 642.50 435.86 642.95 435.88 C 646.22 432.80 649.26 429.45 652.99 426.89 C 653.83 426.11 655.44 425.44 654.98 423.99 C 653.42 422.54 651.45 424.21 650.04 425.05 Z" />
<path fill="#fbf7f7" opacity="1.00" d=" M 565.13 307.95 C 566.59 310.17 567.89 312.51 569.00 314.93 C 568.39 315.42 567.17 316.40 566.56 316.90 C 565.84 313.96 565.34 310.97 565.13 307.95 Z" />
<path fill="#fbf7f7" opacity="1.00" d=" M 415.16 337.29 C 418.92 328.95 422.30 320.36 426.95 312.46 C 437.84 312.17 448.57 314.47 459.34 315.65 C 461.85 318.45 462.82 322.31 464.53 325.63 C 468.10 334.07 472.19 342.60 472.76 351.90 C 473.57 359.70 472.30 367.50 471.07 375.19 C 467.59 382.33 466.55 390.33 463.58 397.67 C 461.33 403.03 460.98 409.33 457.22 413.94 C 457.21 411.99 455.74 410.90 454.29 409.96 C 454.99 408.50 455.79 407.05 456.01 405.42 C 453.94 404.26 451.91 403.04 449.86 401.86 C 448.47 402.97 447.96 404.67 447.51 406.32 C 445.59 405.61 443.74 404.76 441.90 403.90 C 440.81 406.20 439.66 408.48 438.60 410.80 C 435.47 408.20 434.22 404.20 432.15 400.83 C 423.46 385.86 415.29 370.57 407.86 354.93 C 409.94 348.92 412.79 343.20 415.16 337.29 Z" />
<path fill="#fbf7f7" opacity="1.00" d=" M 481.48 393.98 C 483.13 401.65 484.49 409.55 488.39 416.49 C 488.12 419.01 487.50 421.48 486.78 423.92 C 484.38 420.68 482.60 417.02 479.97 413.96 C 476.85 414.36 473.73 414.71 470.61 414.99 C 474.19 407.97 478.01 401.07 481.48 393.98 Z" />
<path fill="#fbf7f7" opacity="1.00" d=" M 552.09 497.07 C 551.10 492.79 549.65 488.59 549.35 484.18 C 558.18 488.20 567.04 492.17 575.62 496.72 C 569.77 507.39 563.70 518.05 559.78 529.62 C 555.87 519.12 554.77 507.89 552.09 497.07 Z" />
<path fill="#fbf7f7" opacity="1.00" d=" M 566.88 558.12 C 566.30 556.56 566.31 554.91 566.44 553.29 C 570.93 560.04 576.75 565.86 583.15 570.81 C 597.59 582.36 612.93 592.81 626.57 605.34 C 634.39 611.91 642.78 617.76 651.26 623.45 C 634.66 632.82 618.34 642.67 602.05 652.57 C 584.75 630.58 567.31 608.67 550.92 585.99 C 547.48 577.75 544.65 569.25 541.40 560.92 L 541.95 559.60 C 544.68 562.07 546.39 565.40 548.70 568.23 C 551.54 572.32 555.33 575.61 558.46 579.46 C 562.10 587.17 564.17 595.57 567.63 603.35 C 571.47 605.18 579.09 602.71 578.51 597.40 C 574.60 584.32 570.95 571.16 566.88 558.12 Z" />
</g>
<g id="#a4a4a4ff">
<path fill="#a4a4a4" opacity="1.00" d=" M 489.70 104.84 C 490.60 102.66 491.49 100.47 492.79 98.48 C 493.00 101.92 492.38 105.50 493.73 108.77 C 490.55 120.39 487.43 132.03 485.44 143.93 C 485.37 142.16 484.02 142.16 483.65 143.78 C 482.47 144.62 482.45 147.02 484.31 146.85 L 484.91 146.94 C 484.03 153.28 483.04 159.59 482.27 165.94 C 481.80 171.70 481.46 177.49 480.39 183.18 C 480.64 176.43 480.70 169.69 481.05 162.95 C 481.41 157.77 482.97 152.71 482.84 147.51 C 479.83 159.85 475.95 172.51 477.79 185.35 C 477.35 187.20 477.07 189.08 476.78 190.96 C 475.43 192.31 473.32 192.65 471.63 193.48 C 465.06 195.76 459.28 199.72 453.64 203.68 C 451.06 205.53 447.96 206.52 445.51 208.57 C 439.60 213.23 433.37 217.48 427.03 221.52 C 426.43 221.49 425.23 221.43 424.63 221.41 C 424.40 218.85 426.73 216.96 427.75 214.77 C 435.17 203.55 441.70 191.75 447.53 179.63 C 449.67 173.04 451.29 166.27 453.64 159.74 C 457.81 147.76 460.86 135.26 466.82 124.00 C 468.03 122.50 469.21 118.85 471.62 120.57 C 472.42 119.42 473.20 118.25 474.12 117.19 C 476.74 116.96 475.08 120.39 475.40 121.96 C 477.49 117.58 480.13 113.43 481.68 108.81 C 482.59 106.06 483.97 103.50 485.52 101.07 C 486.15 103.02 488.10 103.81 489.70 104.84 Z" />
<path fill="#a4a4a4" opacity="1.00" d=" M 693.60 157.71 C 704.56 159.27 715.66 161.26 725.67 166.20 C 730.98 169.06 737.17 169.55 742.42 172.55 C 755.26 179.13 765.52 189.44 777.02 197.94 C 789.11 207.79 797.95 220.93 805.62 234.35 C 807.97 238.28 809.41 242.72 812.21 246.37 C 813.57 250.97 815.40 255.41 817.14 259.88 C 805.90 266.00 792.81 269.42 780.01 267.46 C 775.44 265.66 775.64 259.62 773.28 255.90 C 771.47 251.24 768.70 247.06 766.16 242.78 C 749.57 215.37 731.33 188.11 706.07 167.87 C 702.04 164.33 697.34 161.59 693.60 157.71 Z" />
<path fill="#a4a4a4" opacity="1.00" d=" M 667.24 367.02 C 667.70 359.81 667.63 352.35 670.22 345.50 C 672.72 346.34 675.29 346.92 677.90 347.29 C 688.93 348.86 699.91 350.82 710.86 352.91 C 707.16 361.01 701.89 368.36 695.87 374.90 C 694.02 377.10 691.08 377.80 688.87 379.53 C 681.99 378.22 675.12 376.64 668.20 375.72 C 666.72 373.09 667.38 369.90 667.24 367.02 Z" />
<path fill="#a4a4a4" opacity="1.00" d=" M 522.67 363.06 C 541.40 357.75 560.49 353.93 579.55 350.02 C 579.19 355.70 578.62 361.37 578.45 367.07 C 578.38 370.19 577.63 373.34 575.90 375.96 C 574.59 378.00 572.43 379.26 570.93 381.14 C 570.76 381.30 570.41 381.61 570.23 381.77 C 569.68 380.17 567.34 380.84 567.32 382.40 C 557.75 384.35 547.42 383.76 538.50 388.16 C 533.21 388.34 530.87 383.07 528.28 379.41 C 526.07 374.09 523.70 368.77 522.67 363.06 Z" />
<path fill="#a4a4a4" opacity="1.00" d=" M 602.05 652.57 C 618.34 642.67 634.66 632.82 651.26 623.45 C 661.56 630.44 672.34 636.69 682.61 643.72 C 675.63 662.65 669.33 681.83 663.20 701.06 C 661.54 705.87 660.73 710.96 658.67 715.62 C 647.04 701.60 634.56 688.28 621.23 675.86 C 614.29 668.57 608.40 660.36 602.05 652.57 Z" />
</g>
<g id="#cabebdff">
<path fill="#cabebd" opacity="1.00" d=" M 484.31 146.85 C 482.45 147.02 482.47 144.62 483.65 143.78 C 483.82 144.55 484.15 146.09 484.31 146.85 Z" />
<path fill="#cabebd" opacity="1.00" d=" M 736.18 215.97 C 738.70 220.04 740.94 224.31 743.99 228.03 C 745.48 230.19 747.91 232.16 747.62 235.06 C 747.76 244.70 748.32 254.36 747.17 263.96 C 746.40 270.00 746.96 276.20 745.54 282.15 C 744.04 277.58 742.63 272.97 741.65 268.26 C 739.49 256.58 736.95 244.98 734.54 233.35 C 732.98 227.71 732.72 220.95 736.18 215.97 Z" />
<path fill="#cabebd" opacity="1.00" d=" M 412.21 267.22 C 418.37 261.44 424.34 255.42 430.54 249.70 C 430.93 249.87 431.72 250.21 432.11 250.38 C 421.79 261.65 411.31 272.77 400.80 283.86 C 391.96 293.69 382.46 303.02 374.94 313.95 C 361.67 332.59 349.09 351.71 337.38 371.36 C 333.57 377.55 330.20 384.04 325.86 389.88 C 325.30 390.82 324.31 391.26 323.33 391.64 C 325.65 383.89 326.81 375.86 328.33 367.94 C 328.44 367.20 328.55 366.46 328.67 365.73 C 328.07 365.42 326.86 364.79 326.25 364.48 C 329.38 358.40 333.23 352.74 336.93 347.01 C 337.94 345.27 339.52 343.36 338.48 341.26 C 341.99 339.31 344.73 336.35 347.49 333.49 C 357.79 322.44 368.07 311.37 378.36 300.31 C 384.50 293.78 390.02 286.55 397.41 281.34 C 402.92 277.27 407.88 272.53 412.21 267.22 Z" />
<path fill="#cabebd" opacity="1.00" d=" M 754.36 249.70 C 759.13 256.61 760.98 264.94 764.54 272.45 C 770.34 285.10 775.83 297.97 783.01 309.92 C 786.99 330.48 794.01 350.24 799.38 370.45 C 802.46 382.22 806.69 393.86 807.23 406.12 C 807.49 410.07 809.33 414.03 808.30 418.00 C 806.94 420.78 802.31 420.35 801.72 417.24 C 801.34 410.04 798.86 403.19 796.34 396.51 C 792.32 386.96 788.27 377.43 784.18 367.91 C 777.84 354.74 771.64 341.47 766.58 327.74 C 765.50 330.08 764.60 332.87 762.12 334.11 C 759.99 335.05 757.69 335.56 755.55 336.47 C 754.74 325.51 750.33 315.09 750.05 304.05 C 749.43 285.84 751.92 267.70 754.36 249.70 Z" />
<path fill="#cabebd" opacity="1.00" d=" M 534.75 262.16 L 535.77 262.06 C 539.42 273.71 544.89 284.67 549.10 296.11 L 548.26 296.33 C 541.98 286.58 536.57 276.28 532.79 265.30 C 533.31 264.18 533.85 263.04 534.75 262.16 Z" />
<path fill="#cabebd" opacity="1.00" d=" M 505.30 262.36 C 506.55 262.42 507.80 262.47 509.06 262.53 C 509.40 282.46 505.18 302.08 500.14 321.24 C 507.00 311.57 513.05 301.30 518.79 290.92 C 519.25 290.82 520.17 290.61 520.63 290.51 C 518.17 295.62 515.59 300.83 515.04 306.55 C 509.57 316.90 506.44 328.28 502.13 339.13 C 499.75 346.10 496.25 352.73 494.80 360.00 C 491.24 378.64 489.52 397.56 488.39 416.49 C 484.49 409.55 483.13 401.65 481.48 393.98 C 478.01 401.07 474.19 407.97 470.61 414.99 C 468.40 419.52 466.02 423.98 462.98 428.01 C 458.31 434.24 455.27 441.47 451.13 448.03 C 448.32 452.65 443.19 454.85 438.66 457.37 C 433.55 457.80 428.34 460.05 424.56 463.54 C 414.26 468.74 403.71 473.96 392.29 476.17 C 390.41 481.81 389.33 488.29 384.74 492.46 C 383.44 488.08 385.93 483.90 388.35 480.43 C 391.20 476.74 393.04 472.43 393.99 467.88 C 400.99 466.70 408.14 465.99 414.91 463.74 C 419.68 462.38 422.73 458.02 427.48 456.56 C 432.64 455.04 437.93 453.46 442.38 450.31 C 447.43 446.96 450.28 441.44 453.10 436.27 C 454.72 433.46 454.00 430.12 454.30 427.04 C 454.46 423.43 456.91 420.16 456.15 416.48 C 456.47 415.61 456.83 414.77 457.22 413.94 C 460.98 409.33 461.33 403.03 463.58 397.67 C 466.55 390.33 467.59 382.33 471.07 375.19 C 475.31 369.08 478.31 362.23 481.61 355.59 C 486.19 345.07 491.90 334.92 494.73 323.72 C 499.59 306.47 503.57 288.83 504.37 270.86 C 504.47 268.01 504.85 265.18 505.30 262.36 Z" />
<path fill="#cabebd" opacity="1.00" d=" M 723.33 347.16 L 724.27 348.14 C 724.16 348.81 723.96 350.16 723.86 350.83 C 719.84 365.52 717.50 380.72 717.31 395.95 C 716.86 404.53 713.34 412.45 710.66 420.49 C 709.85 422.78 708.67 424.92 707.49 427.04 C 706.51 428.81 705.70 430.74 704.20 432.16 C 700.77 435.40 697.96 439.46 693.54 441.49 C 677.34 449.48 663.52 461.26 648.99 471.81 C 644.84 474.56 640.78 477.65 635.95 479.10 C 629.76 480.09 623.43 478.81 617.60 476.69 C 609.77 475.94 602.14 473.98 594.60 471.83 C 592.94 471.54 591.29 471.39 589.64 471.27 C 587.56 475.61 585.18 479.80 582.77 483.96 C 570.69 475.89 557.31 470.11 544.47 463.39 C 544.60 464.08 544.87 465.45 545.00 466.13 C 543.82 462.03 542.95 457.86 542.12 453.69 C 555.66 456.39 568.76 460.94 582.32 463.58 C 588.97 465.29 595.40 467.81 602.08 469.46 C 612.62 472.06 623.02 476.06 634.03 476.00 C 636.43 475.88 639.14 475.89 641.03 474.15 C 656.92 461.01 672.73 447.18 691.57 438.39 C 695.03 436.39 698.12 433.78 701.06 431.08 C 703.31 427.93 704.83 424.31 707.14 421.18 C 710.53 416.50 711.49 410.68 712.74 405.17 C 715.10 394.97 713.68 384.35 716.12 374.16 C 717.50 364.92 719.54 355.74 723.33 347.16 Z" />
<path fill="#cabebd" opacity="1.00" d=" M 567.32 382.40 C 567.34 380.84 569.68 380.17 570.23 381.77 C 569.50 381.93 568.05 382.24 567.32 382.40 Z" />
<path fill="#cabebd" opacity="1.00" d=" M 668.45 388.33 C 671.52 387.44 671.06 391.33 670.09 393.04 C 669.63 395.00 667.45 398.00 665.47 395.70 C 664.65 392.98 666.47 390.09 668.45 388.33 Z" />
<path fill="#cabebd" opacity="1.00" d=" M 650.04 425.05 C 651.45 424.21 653.42 422.54 654.98 423.99 C 655.44 425.44 653.83 426.11 652.99 426.89 C 649.26 429.45 646.22 432.80 642.95 435.88 C 642.50 435.86 641.60 435.81 641.15 435.79 C 642.48 431.20 646.35 427.84 650.04 425.05 Z" />
<path fill="#cabebd" opacity="1.00" d=" M 495.46 466.68 C 499.44 464.36 503.44 461.68 507.96 460.62 C 510.96 471.16 513.69 481.79 516.91 492.27 C 517.60 494.28 517.80 496.40 517.72 498.53 C 514.20 490.52 511.16 482.30 507.88 474.19 C 505.26 469.72 500.05 468.25 495.46 466.68 Z" />
<path fill="#cabebd" opacity="1.00" d=" M 633.48 772.28 C 635.79 775.39 638.01 778.56 640.40 781.61 C 641.69 783.38 643.89 783.97 645.97 784.17 C 645.63 817.09 646.15 850.02 645.47 882.93 C 645.28 887.29 645.30 891.66 644.81 896.01 C 643.81 896.64 642.51 897.05 641.61 896.00 C 640.50 889.48 643.82 881.95 640.15 876.06 C 639.85 878.22 639.66 883.23 636.21 880.99 C 635.89 876.30 637.12 871.60 636.92 866.89 C 636.13 853.27 633.90 839.77 633.30 826.13 C 632.22 808.20 632.45 790.21 633.48 772.28 Z" />
</g>
<g id="#e1746dff">
<path fill="#e1746d" opacity="1.00" d=" M 451.28 503.50 C 457.50 512.15 463.42 521.00 469.65 529.64 C 469.85 529.92 470.26 530.47 470.46 530.75 C 469.40 538.17 468.36 545.78 469.75 553.22 C 469.95 555.13 473.30 554.86 472.90 552.97 C 472.86 547.45 473.15 541.93 474.38 536.54 C 484.12 550.66 493.51 565.03 502.58 579.59 C 502.77 579.90 503.15 580.51 503.33 580.82 C 503.24 583.77 502.82 586.77 503.30 589.72 C 503.57 591.07 505.32 590.63 506.26 590.41 C 506.39 589.53 506.66 587.79 506.80 586.91 C 511.27 593.64 515.22 600.70 519.28 607.69 C 528.04 624.95 536.28 642.61 541.76 661.23 C 542.40 663.88 544.07 666.13 546.03 667.98 C 551.24 672.73 556.29 677.68 561.06 682.88 C 581.65 705.57 600.83 729.51 619.51 753.78 C 587.18 793.36 554.02 832.27 522.25 872.33 C 515.59 880.42 509.53 888.98 503.51 897.56 C 494.06 911.04 484.43 924.47 476.57 938.96 C 474.25 944.38 471.41 949.55 469.09 954.97 C 466.44 965.83 464.55 976.90 463.63 988.06 C 462.78 996.72 462.29 1005.49 463.38 1014.16 C 457.95 992.77 454.61 970.87 452.30 948.93 C 451.05 924.33 452.05 899.68 452.98 875.08 C 453.48 858.37 455.30 841.73 455.68 825.02 C 456.68 797.44 459.17 769.91 458.95 742.29 C 454.82 739.53 450.17 736.72 448.06 732.01 C 447.05 730.03 446.28 727.95 445.53 725.88 C 431.75 735.63 418.11 745.57 404.67 755.77 C 374.65 773.95 346.67 795.28 319.78 817.78 C 307.74 827.94 295.94 838.49 285.22 850.02 C 303.04 799.41 323.50 749.69 347.41 701.64 C 349.68 701.29 351.85 700.11 352.96 698.04 C 368.91 669.18 387.64 641.89 402.23 612.27 C 411.06 595.32 418.68 577.79 426.49 560.36 C 434.87 541.46 443.00 522.45 451.28 503.50 Z" />
<path fill="#e1746d" opacity="1.00" d=" M 670.57 739.16 C 679.50 728.03 688.61 717.05 697.67 706.03 C 698.06 744.35 697.96 782.67 698.11 820.99 C 698.19 839.03 697.70 857.09 696.13 875.07 C 695.73 878.40 696.05 881.95 694.40 885.01 C 694.40 873.90 693.13 862.80 690.38 852.02 C 690.15 850.66 689.41 849.30 689.77 847.93 C 690.53 843.72 688.90 839.59 688.47 835.44 C 683.61 802.15 672.96 770.04 668.00 736.75 C 668.83 737.56 669.70 738.36 670.57 739.16 Z" />
</g>
</svg>
