<?xml version="1.0" encoding="UTF-8" ?>
<!DOCTYPE svg PUBLIC "-//W3C//DTD SVG 1.1//EN" "http://www.w3.org/Graphics/SVG/1.1/DTD/svg11.dtd">
<svg width="681pt" height="681pt" viewBox="0 0 681 681" version="1.1" xmlns="http://www.w3.org/2000/svg">
<g id="#e1746dff">
<path fill="#e1746d" opacity="1.00" d=" M 337.18 0.00 L 337.86 0.00 C 341.07 4.42 344.44 8.73 347.99 12.88 C 399.55 81.14 439.06 157.75 471.06 236.87 C 472.73 240.70 473.62 245.20 476.98 248.00 C 502.91 268.21 524.96 292.83 545.95 318.00 C 557.50 332.16 569.16 346.24 580.13 360.86 C 582.60 364.42 585.59 367.76 587.02 371.91 C 583.11 378.33 577.55 383.57 573.15 389.65 C 494.74 486.36 416.65 583.33 338.13 679.93 C 336.67 648.32 336.31 616.65 336.04 585.01 C 335.87 542.16 336.69 499.29 339.38 456.52 C 341.24 422.53 344.63 388.62 349.77 354.97 C 350.73 346.18 353.18 337.63 354.03 328.83 C 348.33 330.60 343.04 333.44 337.44 335.50 C 292.85 355.21 251.39 381.36 212.15 410.16 C 174.42 437.97 138.76 468.51 104.49 500.47 C 99.61 504.91 95.08 509.76 89.89 513.86 C 91.63 508.53 94.25 503.57 96.43 498.43 C 117.25 450.84 138.37 403.39 159.81 356.07 C 191.84 286.02 224.40 216.18 259.70 147.70 C 283.46 102.09 307.73 56.75 331.29 11.03 C 333.36 7.41 335.35 3.75 337.18 0.00 Z" />
</g>
<g id="#2b2a30ff">
<path fill="#2b2a30" opacity="1.00" d=" M 264.70 3.72 C 266.44 3.47 268.21 3.67 269.96 3.84 C 282.29 5.36 294.66 6.58 307.00 8.01 C 315.10 9.01 323.30 9.29 331.29 11.03 C 307.73 56.75 283.46 102.09 259.70 147.70 C 224.40 216.18 191.84 286.02 159.81 356.07 C 142.67 349.11 127.38 338.45 112.80 327.21 C 97.03 314.76 81.65 301.77 67.17 287.83 C 46.81 268.10 28.40 245.35 18.66 218.41 C 18.19 217.03 17.97 215.58 17.86 214.13 C 23.55 213.45 29.30 213.15 34.92 211.94 C 63.72 206.86 89.36 191.87 114.19 177.17 C 137.74 162.54 161.34 147.60 181.96 128.95 C 195.88 116.53 208.69 102.91 220.66 88.63 C 233.88 72.89 245.21 55.53 253.81 36.86 C 258.65 26.24 261.46 14.88 264.70 3.72 Z" />
<path fill="#2b2a30" opacity="1.00" d=" M 347.99 12.88 C 351.51 13.04 355.03 13.19 358.54 13.59 C 374.33 15.43 390.14 17.00 405.90 19.08 C 418.30 20.20 430.68 21.52 443.05 22.93 C 444.79 23.27 447.07 23.21 447.99 25.05 C 511.57 138.36 575.45 251.55 639.03 364.85 C 640.35 369.76 639.56 374.97 640.03 380.00 C 640.46 408.22 643.74 436.35 648.98 464.07 C 651.26 474.35 652.79 484.77 654.90 495.08 C 656.38 503.06 658.51 510.91 659.86 518.91 C 643.06 495.23 628.02 470.36 611.69 446.36 C 601.94 431.77 592.17 417.18 582.40 402.60 C 579.42 398.21 576.79 393.55 573.15 389.65 C 577.55 383.57 583.11 378.33 587.02 371.91 C 585.59 367.76 582.60 364.42 580.13 360.86 C 569.16 346.24 557.50 332.16 545.95 318.00 C 524.96 292.83 502.91 268.21 476.98 248.00 C 473.62 245.20 472.73 240.70 471.06 236.87 C 439.06 157.75 399.55 81.14 347.99 12.88 Z" />
</g>
</svg>
