<?xml version="1.0" encoding="UTF-8" standalone="no"?>
<!DOCTYPE svg PUBLIC "-//W3C//DTD SVG 1.1//EN"
 "http://www.w3.org/Graphics/SVG/1.1/DTD/svg11.dtd">
<!-- Generated by graphviz version 2.43.0 (0)
 -->
<!-- Title: G Pages: 1 -->
<svg width="515pt" height="401pt"
 viewBox="0.00 0.00 515.00 401.00" xmlns="http://www.w3.org/2000/svg" xmlns:xlink="http://www.w3.org/1999/xlink">
<g id="graph0" class="graph" transform="scale(1 1) rotate(0) translate(4 397)">
<title>G</title>
<polygon fill="white" stroke="transparent" points="-4,4 -4,-397 511,-397 511,4 -4,4"/>
<g id="clust1" class="cluster">
<title>cluster_searxng</title>
<polygon fill="#fafafa" stroke="black" points="8,-8 8,-316 499,-316 499,-8 8,-8"/>
<text text-anchor="middle" x="253.5" y="-300.8" font-family="Sans" font-size="14.00">SearXNG instance</text>
</g>
<!-- browser -->
<g id="node1" class="node">
<title>browser</title>
<polygon fill="aliceblue" stroke="black" points="104.5,-393 45.5,-393 45.5,-397 33.5,-397 33.5,-357 104.5,-357 104.5,-393"/>
<polyline fill="none" stroke="black" points="33.5,-393 45.5,-393 "/>
<text text-anchor="middle" x="69" y="-371.3" font-family="Sans" font-size="14.00">browser</text>
</g>
<!-- rp -->
<g id="node2" class="node">
<title>rp</title>
<polygon fill="#ffffcc" stroke="black" points="122,-285 16,-285 16,-249 122,-249 122,-285"/>
<text text-anchor="middle" x="69" y="-263.3" font-family="Sans" font-size="14.00">reverse proxy</text>
</g>
<!-- browser&#45;&gt;rp -->
<g id="edge1" class="edge">
<title>browser&#45;&gt;rp</title>
<path fill="none" stroke="black" d="M69,-356.97C69,-340.38 69,-314.88 69,-295.43"/>
<polygon fill="black" stroke="black" points="72.5,-295.34 69,-285.34 65.5,-295.34 72.5,-295.34"/>
<text text-anchor="middle" x="90.5" y="-327.8" font-family="Sans" font-size="14.00">HTTPS</text>
</g>
<!-- static -->
<g id="node3" class="node">
<title>static</title>
<g id="a_node3"><a xlink:href="url to configure static files" xlink:title="static files">
<polygon fill="lightgray" stroke="black" points="490.5,-285 487.5,-289 466.5,-289 463.5,-285 407.5,-285 407.5,-249 490.5,-249 490.5,-285"/>
<text text-anchor="middle" x="449" y="-263.3" font-family="Sans" font-size="14.00">static files</text>
</a>
</g>
</g>
<!-- rp&#45;&gt;static -->
<g id="edge2" class="edge">
<title>rp&#45;&gt;static</title>
<path fill="none" stroke="black" d="M122.24,-267C195.05,-267 324.87,-267 397.02,-267"/>
<polygon fill="slategray" stroke="black" points="397.23,-270.5 407.23,-267 397.23,-263.5 397.23,-270.5"/>
<text text-anchor="middle" x="264.75" y="-273.8" font-family="Sans" font-size="14.00" fill="slategray">optional: reverse proxy serves static files</text>
</g>
<!-- uwsgi -->
<g id="node4" class="node">
<title>uwsgi</title>
<g id="a_node4"><a xlink:href="https://docs.searxng.org/utils/searx.sh.html" xlink:title="uwsgi">
<polygon fill="#ffffcc" stroke="black" points="231.23,-198 146.55,-198 124.77,-162 209.45,-162 231.23,-198"/>
<text text-anchor="middle" x="178" y="-176.3" font-family="Sans" font-size="14.00">uwsgi</text>
</a>
</g>
</g>
<!-- rp&#45;&gt;uwsgi -->
<g id="edge3" class="edge">
<title>rp&#45;&gt;uwsgi</title>
<path fill="none" stroke="black" d="M91.06,-248.8C107.46,-236.01 130.02,-218.42 148.05,-204.36"/>
<polygon fill="black" stroke="black" points="150.24,-207.08 155.98,-198.18 145.94,-201.56 150.24,-207.08"/>
<text text-anchor="middle" x="228" y="-219.8" font-family="Sans" font-size="14.00">http:// (tcp) or unix:// (socket)</text>
</g>
<!-- searxng1 -->
<g id="node6" class="node">
<title>searxng1</title>
<polygon fill="#ffffcc" stroke="black" points="112,-125 16,-125 16,-89 112,-89 112,-125"/>
<text text-anchor="middle" x="64" y="-103.3" font-family="Sans" font-size="14.00" fill="#0000cd">SearXNG #1</text>
</g>
<!-- uwsgi&#45;&gt;searxng1 -->
<g id="edge4" class="edge">
<title>uwsgi&#45;&gt;searxng1</title>
<path fill="none" stroke="black" d="M150.69,-161.99C135.58,-152.58 116.59,-140.76 100.25,-130.57"/>
<polygon fill="black" stroke="black" points="101.82,-127.43 91.48,-125.11 98.12,-133.37 101.82,-127.43"/>
</g>
<!-- searxng2 -->
<g id="node7" class="node">
<title>searxng2</title>
<polygon fill="#ffffcc" stroke="black" points="226,-125 130,-125 130,-89 226,-89 226,-125"/>
<text text-anchor="middle" x="178" y="-103.3" font-family="Sans" font-size="14.00" fill="#0000cd">SearXNG #2</text>
</g>
<!-- uwsgi&#45;&gt;searxng2 -->
<g id="edge6" class="edge">
<title>uwsgi&#45;&gt;searxng2</title>
<path fill="none" stroke="black" d="M178,-161.81C178,-153.79 178,-144.05 178,-135.07"/>
<polygon fill="black" stroke="black" points="181.5,-135.03 178,-125.03 174.5,-135.03 181.5,-135.03"/>
</g>
<!-- searxng3 -->
<g id="node8" class="node">
<title>searxng3</title>
<polygon fill="#ffffcc" stroke="black" points="340,-125 244,-125 244,-89 340,-89 340,-125"/>
<text text-anchor="middle" x="292" y="-103.3" font-family="Sans" font-size="14.00" fill="#0000cd">SearXNG #3</text>
</g>
<!-- uwsgi&#45;&gt;searxng3 -->
<g id="edge8" class="edge">
<title>uwsgi&#45;&gt;searxng3</title>
<path fill="none" stroke="black" d="M205.31,-161.99C220.42,-152.58 239.41,-140.76 255.75,-130.57"/>
<polygon fill="black" stroke="black" points="257.88,-133.37 264.52,-125.11 254.18,-127.43 257.88,-133.37"/>
</g>
<!-- searxng4 -->
<g id="node9" class="node">
<title>searxng4</title>
<polygon fill="#ffffcc" stroke="black" points="454,-125 358,-125 358,-89 454,-89 454,-125"/>
<text text-anchor="middle" x="406" y="-103.3" font-family="Sans" font-size="14.00" fill="#0000cd">SearXNG #4</text>
</g>
<!-- uwsgi&#45;&gt;searxng4 -->
<g id="edge10" class="edge">
<title>uwsgi&#45;&gt;searxng4</title>
<path fill="none" stroke="black" d="M213.13,-168.06C249.05,-156.87 305.47,-139.3 348.03,-126.05"/>
<polygon fill="black" stroke="black" points="349.2,-129.35 357.71,-123.04 347.12,-122.67 349.2,-129.35"/>
</g>
<!-- redis -->
<g id="node5" class="node">
<title>redis</title>
<path fill="#ffffcc" stroke="black" d="M271,-48.73C271,-50.53 254.86,-52 235,-52 215.14,-52 199,-50.53 199,-48.73 199,-48.73 199,-19.27 199,-19.27 199,-17.47 215.14,-16 235,-16 254.86,-16 271,-17.47 271,-19.27 271,-19.27 271,-48.73 271,-48.73"/>
<path fill="none" stroke="black" d="M271,-48.73C271,-46.92 254.86,-45.45 235,-45.45 215.14,-45.45 199,-46.92 199,-48.73"/>
<text text-anchor="middle" x="235" y="-30.3" font-family="Sans" font-size="14.00">redis DB</text>
</g>
<!-- searxng1&#45;&gt;redis -->
<g id="edge5" class="edge">
<title>searxng1&#45;&gt;redis</title>
<path fill="none" stroke="black" d="M104.96,-88.99C130.39,-78.43 163.12,-64.85 189.38,-53.94"/>
<polygon fill="black" stroke="black" points="190.84,-57.13 198.73,-50.06 188.16,-50.66 190.84,-57.13"/>
</g>
<!-- searxng2&#45;&gt;redis -->
<g id="edge7" class="edge">
<title>searxng2&#45;&gt;redis</title>
<path fill="none" stroke="black" d="M191.8,-88.81C198.73,-80.18 207.26,-69.56 214.9,-60.03"/>
<polygon fill="black" stroke="black" points="217.8,-62.02 221.33,-52.03 212.34,-57.64 217.8,-62.02"/>
</g>
<!-- searxng3&#45;&gt;redis -->
<g id="edge9" class="edge">
<title>searxng3&#45;&gt;redis</title>
<path fill="none" stroke="black" d="M278.2,-88.81C271.27,-80.18 262.74,-69.56 255.1,-60.03"/>
<polygon fill="black" stroke="black" points="257.66,-57.64 248.67,-52.03 252.2,-62.02 257.66,-57.64"/>
</g>
<!-- searxng4&#45;&gt;redis -->
<g id="edge11" class="edge">
<title>searxng4&#45;&gt;redis</title>
<path fill="none" stroke="black" d="M365.04,-88.99C339.61,-78.43 306.88,-64.85 280.62,-53.94"/>
<polygon fill="black" stroke="black" points="281.84,-50.66 271.27,-50.06 279.16,-57.13 281.84,-50.66"/>
</g>
</g>
</svg>
