<svg xmlns="http://www.w3.org/2000/svg" width="908" height="908" viewBox="0 0 681 681"><path fill="#e1746d" d="M337.18 0h.68c3.21 4.42 6.58 8.73 10.13 12.88 51.56 68.26 91.07 144.87 123.07 223.99 1.67 3.83 2.56 8.33 5.92 11.13 25.93 20.21 47.98 44.83 68.97 70 11.55 14.16 23.21 28.24 34.18 42.86 2.47 3.56 5.46 6.9 6.89 11.05-3.91 6.42-9.47 11.66-13.87 17.74-78.41 96.71-156.5 193.68-235.02 290.28-1.46-31.61-1.82-63.28-2.09-94.92-.17-42.85.65-85.72 3.34-128.49 1.86-33.99 5.25-67.9 10.39-101.55.96-8.79 3.41-17.34 4.26-26.14-5.7 1.77-10.99 4.61-16.59 6.67-44.59 19.71-86.05 45.86-125.29 74.66-37.73 27.81-73.39 58.35-107.66 90.31-4.88 4.44-9.41 9.29-14.6 13.39 1.74-5.33 4.36-10.29 6.54-15.43 20.82-47.59 41.94-95.04 63.38-142.36 32.03-70.05 64.59-139.89 99.89-208.37 23.76-45.61 48.03-90.95 71.59-136.67 2.07-3.62 4.06-7.28 5.89-11.03"/><g fill="#2b2a30"><path d="M264.7 3.72c1.74-.25 3.51-.05 5.26.12 12.33 1.52 24.7 2.74 37.04 4.17 8.1 1 16.3 1.28 24.29 3.02-23.56 45.72-47.83 91.06-71.59 136.67-35.3 68.48-67.86 138.32-99.89 208.37-17.14-6.96-32.43-17.62-47.01-28.86-15.77-12.45-31.15-25.44-45.63-39.38-20.36-19.73-38.77-42.48-48.51-69.42-.47-1.38-.69-2.83-.8-4.28 5.69-.68 11.44-.98 17.06-2.19 28.8-5.08 54.44-20.07 79.27-34.77 23.55-14.63 47.15-29.57 67.77-48.22 13.92-12.42 26.73-26.04 38.7-40.32 13.22-15.74 24.55-33.1 33.15-51.77 4.84-10.62 7.65-21.98 10.89-33.14M347.99 12.88c3.52.16 7.04.31 10.55.71 15.79 1.84 31.6 3.41 47.36 5.49 12.4 1.12 24.78 2.44 37.15 3.85 1.74.34 4.02.28 4.94 2.12 63.58 113.31 127.46 226.5 191.04 339.8 1.32 4.91.53 10.12 1 15.15.43 28.22 3.71 56.35 8.95 84.07 2.28 10.28 3.81 20.7 5.92 31.01 1.48 7.98 3.61 15.83 4.96 23.83-16.8-23.68-31.84-48.55-48.17-72.55-9.75-14.59-19.52-29.18-29.29-43.76-2.98-4.39-5.61-9.05-9.25-12.95 4.4-6.08 9.96-11.32 13.87-17.74-1.43-4.15-4.42-7.49-6.89-11.05-10.97-14.62-22.63-28.7-34.18-42.86-20.99-25.17-43.04-49.79-68.97-70-3.36-2.8-4.25-7.3-5.92-11.13-32-79.12-71.51-155.73-123.07-223.99"/></g></svg>