<?xml version="1.0" encoding="UTF-8" ?>
<!DOCTYPE svg PUBLIC "-//W3C//DTD SVG 1.1//EN" "http://www.w3.org/Graphics/SVG/1.1/DTD/svg11.dtd">
<svg width="1049pt" height="1438pt" viewBox="0 0 1049 1438" version="1.1" xmlns="http://www.w3.org/2000/svg">
<g id="#efd6cbff">
<path fill="#efd6cb" opacity="1.00" d=" M 970.92 3.32 C 991.88 1.16 1013.01 -0.42 1034.07 1.08 C 1039.86 1.23 1045.44 5.29 1046.86 11.00 C 1039.37 26.11 1032.97 41.76 1026.04 57.14 C 1013.64 84.39 1001.39 111.70 988.73 138.83 C 980.22 157.73 971.38 176.48 963.68 195.73 C 956.57 212.78 950.70 230.32 945.08 247.91 C 943.74 251.94 942.77 256.07 942.00 260.24 C 941.56 261.17 941.12 262.09 940.69 263.02 C 940.52 263.35 940.20 264.02 940.04 264.35 C 926.66 253.72 912.46 243.52 896.11 238.02 C 889.74 236.04 883.83 232.88 877.62 230.50 C 869.70 227.23 861.51 224.68 853.62 221.33 C 847.04 218.59 840.13 216.81 833.35 214.73 C 811.27 190.43 789.24 166.01 768.55 140.49 C 753.06 121.12 738.29 101.04 726.34 79.26 C 728.47 78.06 730.60 76.87 732.78 75.75 C 766.72 58.76 802.28 45.28 838.21 33.14 C 881.26 18.67 925.71 8.04 970.92 3.32 Z" />
<path fill="#efd6cb" opacity="1.00" d=" M 349.59 102.84 C 349.03 100.94 349.08 97.50 351.97 98.07 C 358.26 106.94 364.76 115.90 373.23 122.84 C 374.75 124.30 377.02 124.32 378.91 123.60 C 395.19 118.06 411.65 112.96 428.39 109.00 C 425.34 110.99 422.20 112.82 419.03 114.62 C 412.61 118.29 406.38 122.28 400.09 126.17 C 398.91 127.12 396.98 128.04 397.27 129.85 C 397.79 131.06 398.49 132.17 399.15 133.32 C 400.40 132.59 401.67 131.88 402.95 131.20 C 391.15 158.19 380.59 185.73 370.47 213.39 C 361.72 238.20 352.86 263.11 347.44 288.90 C 345.14 294.33 342.40 299.59 340.29 305.12 C 339.21 308.80 334.74 309.79 333.35 313.24 C 331.82 316.80 330.45 320.43 329.09 324.06 C 327.21 323.60 325.33 323.13 323.46 322.63 C 318.42 320.75 313.18 319.55 308.03 318.06 C 306.28 317.52 304.46 317.30 302.64 317.43 C 296.50 314.54 289.69 313.43 283.62 310.33 C 272.85 306.97 262.03 303.66 251.02 301.12 C 244.66 299.39 238.13 298.32 231.87 296.28 C 238.51 294.13 243.13 288.69 248.01 284.02 C 252.59 279.17 257.93 274.63 260.39 268.24 C 261.45 265.62 260.86 262.74 260.72 260.01 C 257.39 260.97 253.90 261.90 251.21 264.21 C 246.87 267.77 243.30 272.15 239.30 276.06 C 239.41 273.09 240.10 268.91 236.57 267.57 C 222.05 261.21 206.29 258.54 191.27 253.63 C 180.45 250.01 169.40 247.16 158.62 243.45 C 150.17 240.77 141.83 237.54 133.05 236.13 C 133.49 240.29 134.08 244.43 134.64 248.57 C 135.86 251.41 138.45 253.30 140.19 255.78 C 140.85 257.44 140.71 259.30 140.89 261.05 C 138.74 260.44 136.58 259.84 134.43 259.25 C 133.62 260.17 132.81 261.10 132.01 262.03 C 128.17 260.26 124.52 258.05 120.56 256.55 C 116.78 254.85 114.25 259.75 114.12 262.82 C 116.61 267.22 121.22 269.82 124.47 273.58 C 125.85 275.67 126.18 278.30 127.67 280.34 C 129.26 282.47 130.94 284.54 132.33 286.82 C 129.55 285.85 126.77 284.88 123.93 284.10 C 126.76 291.62 133.45 296.53 138.83 302.14 C 146.75 310.06 156.79 315.37 165.12 322.77 C 163.43 322.66 161.74 322.54 160.05 322.41 C 161.06 332.65 170.63 338.58 176.36 346.18 C 174.25 345.51 172.16 344.78 170.07 344.07 C 171.21 345.84 172.40 347.59 173.71 349.25 C 178.03 354.42 180.69 360.77 185.32 365.72 C 192.45 374.53 202.10 380.92 212.29 385.67 C 224.47 392.52 236.63 399.45 249.13 405.71 C 269.06 415.23 288.94 425.09 309.86 432.29 C 300.57 447.60 290.70 462.80 284.38 479.63 C 282.97 479.74 281.51 480.39 280.14 479.83 C 275.83 478.45 271.67 476.65 267.25 475.66 C 260.79 474.58 251.89 471.85 251.84 463.88 C 247.71 460.68 243.25 456.07 244.45 450.37 C 245.97 447.74 249.06 446.37 251.98 446.03 C 256.53 445.50 260.98 444.44 265.44 443.46 C 251.92 433.06 238.69 422.31 225.58 411.40 C 215.89 403.82 206.92 395.39 197.81 387.14 C 177.40 368.60 158.06 348.95 138.90 329.14 C 110.32 297.48 82.58 264.99 57.34 230.57 C 37.57 203.95 18.96 176.41 2.75 147.46 C -0.77 139.72 -0.60 129.85 5.23 123.22 C 11.62 115.34 22.55 114.37 31.98 114.02 C 41.96 114.76 51.93 113.41 61.88 112.72 C 102.53 110.69 143.24 109.29 183.96 109.51 C 205.65 109.79 227.33 110.85 249.01 111.63 C 273.39 112.49 297.63 115.39 321.90 117.69 C 333.42 118.83 344.93 120.06 356.42 121.51 C 353.48 115.56 351.23 109.27 349.59 102.84 Z" />
<path fill="#efd6cb" opacity="1.00" d=" M 765.04 236.11 C 769.30 235.04 773.56 233.57 778.02 233.74 C 788.70 234.05 799.37 234.73 810.04 235.15 C 812.29 235.27 814.55 235.44 816.76 235.97 C 830.02 246.40 843.71 256.39 855.67 268.37 C 882.02 294.07 902.88 324.69 922.10 355.90 C 927.54 365.16 933.77 374.02 937.98 383.94 C 940.21 393.19 941.89 402.57 943.48 411.96 C 946.17 422.19 947.07 432.90 951.18 442.74 C 954.62 453.05 959.74 462.87 966.84 471.15 C 974.66 481.24 983.76 490.25 991.76 500.19 C 992.86 501.75 994.76 503.63 993.59 505.69 C 992.58 507.12 990.97 505.64 989.94 505.07 C 974.62 494.76 962.58 480.36 952.50 465.05 C 947.45 458.10 944.31 450.03 940.37 442.45 C 935.39 432.89 930.85 423.12 926.62 413.20 C 920.26 400.47 916.62 386.54 909.58 374.13 C 907.87 388.75 906.35 403.40 904.65 418.02 C 904.49 425.04 903.06 431.98 903.44 439.03 C 903.70 448.37 902.57 457.85 904.52 467.07 C 906.04 475.24 907.61 483.42 909.73 491.46 C 910.87 495.82 911.72 500.30 911.37 504.84 C 912.46 528.91 917.02 552.65 920.76 576.40 C 921.25 582.63 921.59 588.90 921.41 595.16 C 920.55 597.69 917.78 598.04 915.49 597.72 C 911.35 588.34 906.93 579.09 902.56 569.82 C 898.12 592.57 894.23 615.43 889.51 638.12 C 888.98 648.13 891.91 657.94 891.86 667.94 C 893.47 704.39 895.88 740.80 899.58 777.10 C 901.16 793.79 904.52 810.26 906.14 826.95 C 907.41 837.23 907.85 847.60 909.37 857.86 C 910.67 868.13 911.66 878.44 912.45 888.77 C 914.19 910.75 914.57 932.87 913.04 954.88 C 912.24 958.91 912.23 963.12 910.86 967.03 C 910.42 968.76 907.96 969.48 906.66 968.29 C 904.81 967.12 906.02 964.78 906.18 963.17 C 907.23 958.04 907.64 952.82 907.86 947.61 C 906.83 946.84 904.98 946.58 904.96 945.00 C 904.43 941.63 904.80 938.17 904.12 934.83 C 900.22 918.47 895.40 902.36 891.26 886.06 C 888.19 874.19 885.54 862.21 883.50 850.12 C 881.83 841.65 881.31 833.02 879.70 824.56 C 876.87 809.00 874.38 793.36 870.44 778.04 C 863.57 746.53 854.93 715.46 847.94 683.98 C 845.04 669.48 840.84 655.25 839.06 640.53 C 843.85 631.20 846.62 621.06 850.30 611.28 C 853.17 601.14 853.97 590.51 853.84 580.01 C 855.57 563.22 857.83 546.41 862.20 530.07 C 863.33 525.37 865.14 520.83 865.76 516.02 C 864.77 517.82 863.83 519.66 863.01 521.55 C 861.53 518.48 860.24 515.32 859.25 512.06 C 856.38 503.08 854.24 493.89 852.27 484.68 C 851.77 489.67 852.20 494.71 851.71 499.71 C 846.39 499.14 841.03 499.00 835.75 498.20 C 835.51 497.92 835.03 497.36 834.79 497.08 C 832.72 488.96 832.89 480.41 830.79 472.31 C 830.23 459.17 827.36 446.19 827.67 433.00 C 827.60 430.93 827.80 428.80 827.16 426.81 C 825.56 426.22 823.84 426.24 822.19 426.05 C 818.94 435.37 816.03 444.81 813.30 454.30 C 809.90 465.26 806.23 476.15 803.96 487.41 C 801.70 493.51 800.88 500.00 799.23 506.27 C 798.15 506.83 797.05 507.36 795.95 507.85 C 795.00 505.65 794.05 503.45 793.10 501.26 C 789.51 492.17 784.41 483.81 779.66 475.31 C 777.35 471.56 775.48 467.52 772.77 464.05 C 770.57 463.34 768.19 464.13 765.96 464.23 C 742.67 466.99 719.25 463.15 695.93 465.10 C 690.92 456.60 688.05 447.02 682.91 438.62 C 682.43 444.39 682.66 450.20 683.33 455.94 C 683.49 457.90 683.81 459.99 682.90 461.84 C 681.67 464.89 678.04 465.79 675.08 465.99 C 668.44 466.31 661.78 466.06 655.16 466.55 C 650.99 467.14 647.07 468.76 643.02 469.80 C 639.20 470.73 635.48 472.54 631.46 472.21 C 629.66 468.36 627.45 464.71 625.23 461.10 C 625.61 465.90 626.74 470.60 627.83 475.29 C 630.30 483.27 634.30 490.67 637.61 498.33 C 638.34 499.63 637.57 501.18 636.15 501.51 C 629.80 495.70 625.26 488.32 620.59 481.17 C 615.90 474.00 612.05 466.34 608.19 458.71 C 606.08 454.38 603.26 450.38 601.74 445.78 L 601.55 445.20 C 607.01 443.07 612.58 441.27 618.10 439.31 C 634.53 432.80 650.91 426.07 667.83 420.92 C 680.90 417.10 694.16 413.94 707.51 411.29 C 694.55 411.32 681.47 412.62 668.99 416.27 C 652.08 421.00 635.79 427.67 619.75 434.76 C 613.39 437.57 607.60 441.48 601.27 444.35 C 595.41 426.97 586.48 410.75 581.58 393.03 C 585.26 392.60 589.42 392.93 592.49 390.46 C 594.53 389.00 595.30 386.52 596.23 384.31 C 602.39 383.74 605.33 377.99 608.29 373.37 C 619.18 356.46 630.79 340.00 643.20 324.17 C 655.35 308.97 668.52 294.58 682.45 281.00 C 692.27 271.94 701.41 261.80 713.20 255.22 C 728.97 245.38 747.37 241.19 765.04 236.11 M 881.72 324.33 C 880.68 326.40 879.68 328.56 879.48 330.89 C 878.97 335.07 877.82 339.28 878.73 343.50 C 882.49 361.38 886.30 379.26 889.89 397.18 C 891.11 406.33 894.23 415.04 896.63 423.92 C 896.52 421.61 896.55 419.30 897.08 417.06 C 898.17 411.48 896.84 405.72 898.09 400.16 C 898.50 398.12 898.56 396.05 898.54 393.98 C 898.33 389.93 899.86 386.02 899.56 381.96 C 899.35 370.81 900.10 359.60 898.36 348.55 C 893.44 341.49 887.82 334.86 883.92 327.13 C 883.19 326.22 882.98 324.60 881.72 324.33 M 820.98 419.16 C 828.20 422.54 835.13 426.53 842.49 429.62 C 852.23 434.01 861.65 439.23 870.14 445.75 C 876.55 450.43 881.83 456.49 888.20 461.19 C 878.75 445.42 862.71 435.03 846.34 427.50 C 838.34 423.50 829.61 421.34 820.98 419.16 Z" />
<path fill="#efd6cb" opacity="1.00" d=" M 425.12 375.19 C 438.40 381.21 452.66 384.68 466.93 387.43 C 489.63 390.53 512.52 392.06 535.38 393.47 C 536.08 401.37 534.51 409.15 534.26 417.03 C 531.65 443.69 525.24 469.83 517.56 495.44 C 509.64 514.72 500.86 533.64 491.29 552.16 C 488.54 557.24 486.48 562.74 482.93 567.35 C 483.59 563.76 484.67 560.28 485.52 556.74 C 487.57 545.67 488.00 534.28 486.66 523.09 C 485.53 513.85 481.63 505.30 478.36 496.68 C 474.98 488.82 471.61 480.95 467.65 473.37 C 451.28 472.05 435.10 468.15 418.62 468.61 C 416.41 470.97 415.44 474.17 413.95 476.98 C 405.36 494.16 398.29 512.04 390.61 529.63 C 388.61 532.94 391.70 536.10 392.92 539.08 C 403.35 560.32 414.58 581.15 426.42 601.64 C 429.52 606.66 431.76 612.20 435.37 616.91 C 435.70 617.37 436.04 617.84 436.39 618.32 C 437.04 621.89 439.16 624.87 441.23 627.76 C 439.97 630.17 438.47 632.48 437.57 635.07 C 436.78 638.60 440.55 642.09 444.00 641.03 C 447.19 640.23 448.15 636.67 449.68 634.19 C 454.00 633.30 458.15 631.80 462.25 630.18 C 460.71 636.33 458.53 642.68 460.29 649.03 C 459.56 653.02 456.81 656.26 455.00 659.82 C 450.16 669.28 442.07 677.62 431.75 680.86 C 427.62 682.35 423.64 684.36 419.25 684.96 C 412.01 684.60 404.76 684.46 397.53 683.90 C 399.27 683.29 401.04 682.77 402.84 682.37 C 395.35 671.13 384.68 662.57 373.47 655.26 C 373.37 659.85 372.23 664.36 372.39 668.97 C 372.46 672.91 372.37 676.87 371.89 680.80 C 371.23 687.75 370.56 694.74 368.94 701.55 C 368.10 709.61 364.09 717.12 358.64 722.96 C 359.14 713.96 358.46 704.98 356.97 696.10 C 356.70 690.25 352.71 685.53 348.79 681.57 C 348.36 681.17 347.94 680.77 347.53 680.39 C 345.89 679.25 346.09 677.54 347.69 676.60 C 347.79 675.91 348.01 674.54 348.12 673.85 C 348.03 673.58 347.84 673.03 347.75 672.76 C 348.33 665.99 345.29 659.75 343.61 653.36 C 340.69 642.93 335.82 633.23 331.21 623.48 L 331.12 623.27 C 327.95 626.61 325.53 630.56 322.87 634.30 C 319.30 631.30 317.79 626.37 313.72 623.99 C 305.93 638.06 298.89 652.60 293.10 667.63 C 281.91 695.69 271.92 724.37 265.86 754.03 C 264.91 758.07 264.49 762.24 263.18 766.19 C 262.55 766.19 261.30 766.20 260.67 766.20 C 260.02 758.49 260.94 750.73 260.58 743.00 C 259.72 748.04 259.67 753.26 257.94 758.13 C 257.78 757.34 257.45 755.78 257.29 755.00 C 257.33 740.94 259.22 726.98 259.96 712.96 C 261.05 703.36 260.45 693.65 260.97 684.00 C 262.02 671.73 261.09 659.38 261.75 647.08 C 262.63 634.71 263.03 622.31 263.86 609.95 C 264.58 605.00 265.44 600.07 265.57 595.06 C 264.79 599.44 263.90 603.80 262.49 608.02 C 259.45 618.91 257.02 629.97 255.20 641.13 C 253.67 649.35 252.67 657.66 251.38 665.93 C 251.03 667.20 251.13 668.83 249.90 669.66 C 247.61 669.08 248.34 666.54 248.48 664.83 C 250.36 652.22 251.64 639.51 254.05 626.98 C 254.79 623.24 255.46 619.47 255.73 615.67 C 259.31 607.64 259.66 598.60 262.58 590.36 C 263.57 588.18 265.13 586.34 266.54 584.44 C 270.33 579.50 273.56 574.18 276.80 568.88 C 287.34 550.37 298.81 532.41 310.32 514.49 C 317.54 503.71 324.47 492.71 332.29 482.34 C 338.57 473.06 344.81 463.70 352.17 455.22 C 361.28 444.95 370.29 434.60 379.95 424.85 C 385.48 418.08 392.14 412.35 397.74 405.64 C 402.80 399.81 408.72 394.78 413.68 388.86 C 417.41 384.22 422.27 380.51 425.12 375.19 Z" />
<path fill="#efd6cb" opacity="1.00" d=" M 541.60 393.77 C 553.87 394.13 566.17 394.13 578.42 393.27 C 578.28 394.73 578.16 396.20 578.07 397.67 C 572.99 403.30 570.96 410.82 567.36 417.36 C 564.34 422.73 562.81 428.85 559.39 434.00 C 557.74 435.44 555.89 436.79 554.94 438.83 C 548.36 452.46 539.30 464.67 531.82 477.79 C 530.68 479.68 529.69 481.86 527.53 482.79 C 529.10 475.29 531.76 468.05 533.16 460.49 C 538.47 438.66 541.06 416.19 541.60 393.77 Z" />
<path fill="#efd6cb" opacity="1.00" d=" M 540.59 481.87 C 544.02 473.86 547.01 465.68 550.53 457.71 C 551.43 470.46 552.15 483.24 553.39 495.97 C 553.96 501.15 554.03 506.42 555.42 511.48 C 555.17 515.87 555.67 520.47 557.25 524.60 C 557.81 531.43 560.68 537.74 561.90 544.44 C 562.70 548.93 564.13 553.27 565.40 557.64 C 565.36 562.51 567.96 566.77 570.09 570.98 C 578.15 585.88 587.22 600.23 596.84 614.17 C 612.47 636.41 629.35 658.23 650.73 675.26 C 652.35 676.28 652.97 678.00 652.85 679.87 C 651.58 679.60 650.26 679.52 649.09 678.95 C 620.93 663.42 597.39 640.60 578.14 615.03 C 579.29 624.68 581.63 634.15 583.39 643.70 C 586.01 656.13 588.21 668.67 591.60 680.92 C 592.68 685.75 593.69 690.60 594.73 695.44 C 596.88 705.64 598.09 716.03 601.36 725.98 C 603.81 736.64 606.71 747.20 608.86 757.94 C 611.12 770.29 613.47 782.73 617.64 794.59 C 618.09 800.98 620.29 807.04 621.79 813.22 C 623.19 818.34 624.16 823.66 626.61 828.42 C 626.48 832.66 628.39 836.55 629.46 840.57 C 634.37 857.36 639.42 874.11 644.17 890.95 C 645.01 893.85 646.87 897.09 645.10 900.02 C 642.39 905.31 635.49 906.18 630.19 905.85 C 628.57 904.26 628.03 901.95 627.22 899.92 C 624.76 892.51 621.97 885.21 619.25 877.89 C 617.81 874.14 617.05 869.86 613.90 867.07 C 604.39 857.60 596.77 846.52 588.96 835.68 L 588.55 837.14 C 582.92 823.12 577.10 809.17 571.91 794.97 C 566.69 782.29 563.24 768.98 557.91 756.34 C 557.37 752.12 556.04 748.09 554.70 744.08 C 549.24 726.47 544.39 708.68 539.70 690.86 C 533.54 693.37 527.74 696.68 521.87 699.77 C 522.12 700.00 522.64 700.46 522.90 700.69 L 521.25 700.07 C 523.74 711.71 529.46 722.80 529.09 734.94 C 529.13 738.09 528.11 741.56 525.16 743.16 C 517.92 748.84 508.04 747.43 500.02 751.35 C 503.06 761.19 505.85 771.42 512.13 779.78 C 517.08 784.53 522.83 788.49 527.16 793.89 C 532.14 799.96 538.00 805.99 539.49 814.02 C 540.83 820.45 538.59 826.78 537.07 832.96 C 536.25 835.59 537.74 838.12 538.48 840.58 C 540.62 846.14 542.05 852.02 542.25 857.99 C 542.37 859.49 540.78 860.28 540.07 861.42 C 539.99 867.78 538.61 874.02 538.23 880.35 C 537.94 881.94 538.06 883.74 537.24 885.22 C 536.03 886.90 533.04 886.07 532.81 884.03 C 532.28 879.77 532.92 875.48 532.91 871.22 C 532.53 865.12 531.95 858.91 529.89 853.12 C 526.28 844.89 519.71 838.55 514.45 831.41 C 506.13 822.04 498.22 812.31 489.97 802.88 C 489.88 803.46 489.71 804.63 489.62 805.22 C 487.59 813.23 487.31 821.48 487.44 829.70 C 487.35 832.74 482.50 832.18 482.53 829.35 C 480.51 818.31 482.31 807.13 483.53 796.11 C 484.23 786.19 487.43 776.72 489.48 767.05 C 490.53 761.92 492.24 756.95 493.17 751.81 C 492.38 749.37 491.85 746.87 491.93 744.30 C 489.65 743.82 486.92 743.74 485.32 741.81 C 484.37 737.78 484.32 733.52 485.38 729.52 C 487.69 720.92 490.73 712.54 493.59 704.11 C 489.88 700.68 486.09 696.87 485.30 691.63 C 468.30 689.78 451.25 688.42 434.35 685.80 C 440.55 682.83 447.50 680.47 452.00 675.00 C 458.64 666.24 462.75 655.92 468.67 646.71 C 472.62 640.98 476.91 635.44 480.02 629.19 C 480.90 627.41 482.02 625.75 483.30 624.24 C 487.99 622.11 493.16 621.64 498.15 620.60 C 501.66 625.69 504.48 631.24 508.29 636.13 C 509.09 632.23 510.44 628.39 510.45 624.38 C 510.28 617.23 512.01 610.19 511.54 603.03 C 513.44 581.19 516.14 559.38 520.29 537.85 C 520.96 533.79 522.59 530.01 524.16 526.25 C 529.81 511.52 535.55 496.82 540.59 481.87 M 516.12 787.66 C 518.31 792.84 521.06 797.77 523.08 803.04 C 525.79 810.52 529.53 817.55 532.63 824.88 C 533.98 820.00 535.28 814.67 533.20 809.80 C 529.69 801.03 523.19 793.75 516.12 787.66 Z" />
<path fill="#efd6cb" opacity="1.00" d=" M 265.73 525.38 C 274.62 522.66 280.44 514.87 288.28 510.35 C 288.08 513.48 286.39 516.17 284.79 518.77 C 278.66 528.17 272.65 537.67 267.12 547.45 C 268.51 547.57 269.89 547.71 271.28 547.85 C 270.53 555.02 268.72 562.00 267.75 569.14 C 264.89 567.96 262.37 566.16 259.65 564.73 C 260.46 559.57 261.41 554.44 262.64 549.36 C 245.53 552.19 227.80 552.22 210.90 548.08 C 208.80 547.76 207.23 545.35 208.47 543.42 C 213.93 542.46 219.58 542.78 224.95 541.16 C 239.43 538.67 253.12 532.78 265.73 525.38 Z" />
<path fill="#efd6cb" opacity="1.00" d=" M 781.12 582.19 C 783.09 581.34 785.11 583.73 784.58 585.60 C 783.91 588.55 782.87 591.53 781.01 593.95 C 779.39 596.08 775.34 594.78 775.61 591.99 C 775.86 588.25 777.53 583.89 781.12 582.19 Z" />
</g>
<g id="#6d6d6fff">
<path fill="#6d6d6f" opacity="1.00" d=" M 1026.04 57.14 C 1032.97 41.76 1039.37 26.11 1046.86 11.00 C 1048.04 15.85 1049.15 20.93 1048.07 25.92 C 1045.76 38.39 1041.01 50.26 1035.75 61.75 C 1033.19 67.55 1030.10 73.13 1028.01 79.14 C 1024.87 87.89 1021.21 96.44 1017.97 105.15 C 1022.11 100.88 1025.36 95.73 1029.98 91.94 C 1033.84 89.45 1039.25 94.75 1036.59 98.60 C 1033.37 103.29 1029.51 107.51 1026.15 112.10 C 1012.00 129.89 1000.19 149.37 989.40 169.33 C 980.87 186.97 971.96 204.42 962.62 221.65 C 955.74 234.51 948.03 246.93 942.00 260.24 C 942.77 256.07 943.74 251.94 945.08 247.91 C 950.70 230.32 956.57 212.78 963.68 195.73 C 971.38 176.48 980.22 157.73 988.73 138.83 C 1001.39 111.70 1013.64 84.39 1026.04 57.14 Z" />
<path fill="#6d6d6f" opacity="1.00" d=" M 531.84 72.85 C 540.20 70.69 548.17 67.32 556.35 64.60 C 566.01 65.62 575.56 67.42 585.25 68.18 C 584.95 68.63 584.35 69.54 584.05 69.99 C 599.96 72.59 616.08 75.45 630.80 82.31 C 637.62 85.06 643.60 89.41 650.00 92.98 C 667.52 104.26 684.89 115.84 701.34 128.67 C 716.84 139.93 731.41 152.45 744.96 166.00 C 755.75 176.55 766.06 187.59 776.64 198.35 C 777.53 199.35 778.35 200.42 779.20 201.48 C 772.74 201.54 766.50 203.68 760.01 203.21 C 748.26 203.81 736.35 203.04 724.79 205.61 C 711.28 208.85 697.65 211.61 684.31 215.51 C 667.20 219.58 650.94 226.38 634.08 231.26 C 619.60 236.76 605.02 242.16 591.38 249.57 C 577.87 257.05 563.90 263.71 550.70 271.74 C 534.18 280.93 517.71 290.33 502.29 301.32 C 498.39 304.12 494.64 307.18 490.43 309.52 C 477.00 316.73 463.57 324.14 451.61 333.64 C 445.71 338.48 438.56 341.32 432.06 345.19 C 419.09 352.60 406.93 361.28 394.58 369.64 C 390.24 372.49 386.26 375.98 381.38 377.90 C 382.94 369.34 382.96 360.64 382.82 351.98 C 382.76 349.87 382.20 347.83 381.63 345.82 C 380.47 351.02 380.27 356.48 378.15 361.43 C 376.19 350.71 377.19 339.73 376.70 328.89 C 376.55 326.54 375.28 324.34 375.61 321.96 C 376.53 314.64 375.05 307.26 376.01 299.94 C 377.06 291.28 378.74 282.71 379.65 274.04 C 380.16 257.85 384.80 242.15 385.88 226.01 C 387.36 214.04 390.53 202.19 389.83 190.04 C 389.37 186.68 391.97 184.31 393.85 181.92 C 401.56 172.34 409.58 162.99 417.90 153.93 C 422.65 148.21 428.25 143.11 432.10 136.70 C 429.57 138.22 427.39 140.21 425.32 142.29 C 416.61 150.64 408.69 159.75 400.90 168.94 C 398.14 172.12 395.81 175.68 392.65 178.50 C 393.25 176.59 393.90 174.69 394.71 172.86 C 403.31 153.66 411.82 134.39 419.03 114.62 C 422.20 112.82 425.34 110.99 428.39 109.00 C 444.49 100.35 459.85 90.36 476.19 82.15 C 482.16 79.32 487.53 75.35 493.74 73.01 C 498.39 75.68 503.75 76.63 509.02 77.04 C 516.86 77.40 524.34 74.72 531.84 72.85 M 470.94 127.96 C 457.79 147.95 446.83 169.39 438.96 192.00 C 437.49 198.49 435.02 204.69 432.99 211.02 C 426.81 229.47 422.01 248.34 416.49 266.99 C 413.72 277.55 410.70 288.09 409.34 298.95 C 409.16 300.31 409.31 301.69 409.43 303.05 C 415.19 278.75 422.80 254.96 429.77 231.00 C 434.00 216.25 439.14 201.79 443.08 186.96 C 445.04 178.28 449.77 170.60 453.54 162.63 C 465.59 140.68 479.25 119.56 495.00 100.06 C 497.98 96.26 501.35 92.54 503.00 87.92 C 490.09 99.31 480.51 113.80 470.94 127.96 M 531.45 146.70 C 531.09 146.75 530.39 146.86 530.03 146.92 C 530.44 143.88 531.55 140.97 531.69 137.89 C 531.73 136.77 531.22 135.98 530.16 135.52 C 528.24 135.52 527.66 137.54 526.96 138.91 C 523.12 147.59 520.14 156.63 517.70 165.79 C 516.54 160.12 517.79 154.27 516.97 148.55 C 515.02 151.27 513.89 154.45 512.35 157.40 C 510.85 156.12 509.14 155.15 507.28 154.54 C 507.13 153.31 507.00 152.09 506.88 150.86 C 503.26 156.11 500.82 161.96 498.83 167.99 C 496.26 172.74 494.16 177.80 491.12 182.26 C 491.12 180.11 491.06 177.95 491.10 175.80 C 489.85 176.32 488.61 176.83 487.36 177.32 C 486.78 178.92 486.17 180.50 485.56 182.09 C 485.13 181.06 484.71 180.03 484.28 179.01 C 480.52 181.45 478.51 185.65 476.43 189.46 C 469.80 203.58 465.51 218.63 460.55 233.38 C 457.27 243.91 453.48 254.29 450.87 265.02 C 449.88 269.21 447.67 272.93 445.80 276.75 C 440.53 287.29 434.87 297.63 428.82 307.74 C 424.56 315.03 419.58 321.88 415.44 329.25 C 415.30 329.89 415.01 331.18 414.86 331.83 C 419.12 333.53 422.28 329.52 425.58 327.54 C 433.02 322.81 440.12 317.58 447.04 312.11 C 450.08 309.56 454.03 308.54 457.25 306.25 C 463.02 302.24 468.79 298.18 474.99 294.83 C 480.46 291.66 486.60 289.97 492.27 287.21 C 494.84 285.28 492.50 281.31 494.84 279.08 C 495.29 285.12 497.98 290.67 500.65 296.01 C 499.89 287.02 499.07 278.02 499.31 268.99 C 498.44 251.14 501.19 233.44 504.16 215.90 C 504.28 215.68 504.51 215.24 504.63 215.02 C 505.28 212.09 504.83 208.41 506.75 206.04 C 506.91 206.51 507.24 207.46 507.40 207.93 C 503.17 231.04 499.19 254.44 499.69 278.02 C 499.56 280.26 500.24 282.59 502.14 283.97 C 504.22 281.16 504.79 277.66 505.45 274.32 C 506.86 273.94 508.29 273.57 509.72 273.21 C 510.12 274.69 510.84 276.65 512.79 275.79 C 514.57 273.19 515.05 270.03 515.62 267.01 C 515.56 269.36 515.35 271.70 515.46 274.05 C 515.49 275.86 517.99 276.40 518.95 275.00 C 521.53 273.45 522.39 270.62 522.74 267.80 C 524.99 265.93 526.14 263.29 526.59 260.46 C 526.97 260.12 527.72 259.45 528.10 259.11 C 528.62 254.10 528.29 249.06 528.48 244.04 C 529.57 219.84 533.40 195.91 536.74 171.95 C 538.05 162.96 539.84 154.01 540.49 144.93 C 540.77 142.24 540.02 139.61 539.79 136.95 C 539.54 135.28 540.25 133.38 539.18 131.92 C 535.62 136.29 533.70 141.61 531.45 146.70 Z" />
<path fill="#6d6d6f" opacity="1.00" d=" M 508.01 205.06 C 505.97 204.54 507.00 200.83 508.47 203.23 C 508.36 203.68 508.12 204.60 508.01 205.06 Z" />
<path fill="#6d6d6f" opacity="1.00" d=" M 715.06 211.43 C 724.34 210.40 733.68 209.52 743.03 209.64 C 752.40 209.59 761.73 210.59 771.08 210.98 C 788.06 213.02 805.09 215.38 821.72 219.42 C 845.53 227.94 869.13 237.19 891.96 248.10 C 901.46 253.73 910.70 259.82 919.68 266.26 C 927.09 271.48 934.64 276.56 941.57 282.41 C 947.80 288.85 954.27 295.06 960.19 301.79 C 968.13 312.34 975.25 323.49 982.35 334.62 C 985.14 338.82 986.75 343.63 988.84 348.19 C 992.34 355.98 996.02 363.88 997.15 372.44 C 993.55 366.85 991.42 360.49 988.10 354.75 C 979.34 338.82 969.41 323.40 957.17 309.91 C 949.83 301.82 941.33 294.92 932.45 288.62 C 919.32 277.09 905.51 266.07 889.92 258.04 C 883.00 254.28 874.90 253.77 867.98 250.05 C 856.47 244.21 843.90 240.98 831.29 238.60 C 826.38 238.10 821.54 237.15 816.76 235.97 C 814.55 235.44 812.29 235.27 810.04 235.15 C 799.37 234.73 788.70 234.05 778.02 233.74 C 773.56 233.57 769.30 235.04 765.04 236.11 C 747.37 241.19 728.97 245.38 713.20 255.22 C 701.41 261.80 692.27 271.94 682.45 281.00 C 681.28 281.62 680.10 282.19 679.01 282.92 C 664.75 293.87 651.71 306.38 640.19 320.19 C 630.14 332.13 620.72 344.84 614.13 359.05 C 611.93 365.39 608.37 371.13 604.40 376.50 C 600.84 380.04 596.08 382.04 592.26 385.28 C 589.97 386.80 588.04 389.43 585.07 389.41 C 576.71 389.71 568.34 389.42 559.99 389.05 C 549.01 388.31 538.01 388.72 527.02 388.75 C 513.63 388.77 500.34 386.89 486.98 386.10 C 475.15 384.27 463.74 380.41 451.94 378.35 C 444.43 377.21 438.32 372.24 431.02 370.46 C 441.18 360.09 452.48 350.92 463.71 341.75 C 480.28 328.89 496.74 315.87 513.96 303.88 C 541.64 284.16 570.30 265.61 600.95 250.82 C 622.82 239.98 645.80 231.58 668.90 223.79 C 684.06 218.89 699.39 214.35 715.06 211.43 Z" />
<path fill="#6d6d6f" opacity="1.00" d=" M 251.21 264.21 C 253.90 261.90 257.39 260.97 260.72 260.01 C 260.86 262.74 261.45 265.62 260.39 268.24 C 257.93 274.63 252.59 279.17 248.01 284.02 C 243.13 288.69 238.51 294.13 231.87 296.28 C 229.16 295.45 226.64 293.11 227.80 290.02 C 230.14 284.35 235.23 280.47 239.30 276.06 C 243.30 272.15 246.87 267.77 251.21 264.21 Z" />
<path fill="#6d6d6f" opacity="1.00" d=" M 302.64 317.43 C 304.46 317.30 306.28 317.52 308.03 318.06 C 313.18 319.55 318.42 320.75 323.46 322.63 C 316.20 324.60 309.50 328.57 301.97 329.47 C 298.77 329.96 295.42 327.36 295.74 323.99 C 295.67 320.18 299.69 318.60 302.64 317.43 Z" />
<path fill="#6d6d6f" opacity="1.00" d=" M 668.99 416.27 C 681.47 412.62 694.55 411.32 707.51 411.29 C 694.16 413.94 680.90 417.10 667.83 420.92 C 650.91 426.07 634.53 432.80 618.10 439.31 C 612.58 441.27 607.01 443.07 601.55 445.20 C 601.48 444.98 601.34 444.56 601.27 444.35 C 607.60 441.48 613.39 437.57 619.75 434.76 C 635.79 427.67 652.08 421.00 668.99 416.27 Z" />
<path fill="#6d6d6f" opacity="1.00" d=" M 820.98 419.16 C 829.61 421.34 838.34 423.50 846.34 427.50 C 862.71 435.03 878.75 445.42 888.20 461.19 C 881.83 456.49 876.55 450.43 870.14 445.75 C 861.65 439.23 852.23 434.01 842.49 429.62 C 835.13 426.53 828.20 422.54 820.98 419.16 Z" />
<path fill="#6d6d6f" opacity="1.00" d=" M 631.46 472.21 C 635.48 472.54 639.20 470.73 643.02 469.80 C 641.99 471.40 640.97 472.99 639.92 474.58 C 641.80 473.64 643.74 472.62 645.92 472.80 C 654.89 472.74 663.92 473.57 672.86 472.41 C 676.15 471.99 679.84 471.78 682.58 474.02 C 683.03 476.09 681.31 477.74 680.42 479.44 C 682.04 481.98 682.42 484.97 682.61 487.92 C 690.71 486.24 698.85 484.70 707.14 484.30 C 705.04 486.42 703.44 489.19 700.87 490.77 C 683.98 496.04 666.24 497.64 649.12 501.93 C 649.24 503.95 649.39 505.99 648.98 508.00 C 647.88 513.64 647.65 519.39 647.32 525.12 C 624.81 529.85 602.18 534.09 579.92 539.93 C 573.87 541.30 568.00 543.35 561.90 544.44 C 560.68 537.74 557.81 531.43 557.25 524.60 C 555.67 520.47 555.17 515.87 555.42 511.48 C 559.84 509.54 564.31 507.71 568.67 505.62 C 574.00 503.06 578.79 499.51 584.16 497.03 C 593.97 492.42 603.92 488.08 614.11 484.38 C 616.40 483.59 618.54 482.46 620.59 481.17 C 625.26 488.32 629.80 495.70 636.15 501.51 C 637.57 501.18 638.34 499.63 637.61 498.33 C 634.30 490.67 630.30 483.27 627.83 475.29 C 629.02 474.25 630.23 473.21 631.46 472.21 Z" />
<path fill="#6d6d6f" opacity="1.00" d=" M 813.68 482.78 C 818.65 478.07 825.68 476.75 830.79 472.31 C 832.89 480.41 832.72 488.96 834.79 497.08 C 835.03 497.36 835.51 497.92 835.75 498.20 C 841.03 499.00 846.39 499.14 851.71 499.71 C 852.20 494.71 851.77 489.67 852.27 484.68 C 854.24 493.89 856.38 503.08 859.25 512.06 L 859.81 513.92 C 856.99 513.18 854.20 512.37 851.47 511.38 C 849.47 517.56 846.96 523.54 844.28 529.45 C 831.42 526.92 818.49 524.75 805.57 522.57 C 798.11 521.30 790.47 520.83 783.26 518.40 C 786.54 514.44 790.02 510.60 794.06 507.39 C 793.48 507.45 792.32 507.57 791.74 507.63 C 790.32 505.19 790.89 502.94 793.10 501.26 C 794.05 503.45 795.00 505.65 795.95 507.85 C 797.05 507.36 798.15 506.83 799.23 506.27 C 800.88 500.00 801.70 493.51 803.96 487.41 C 806.14 485.16 808.30 482.70 811.17 481.33 C 812.48 480.69 813.32 481.18 813.68 482.78 Z" />
<path fill="#6d6d6f" opacity="1.00" d=" M 780.22 563.77 C 782.44 563.32 784.71 563.38 786.88 564.13 C 794.64 566.52 802.86 566.77 810.69 568.88 C 813.07 569.81 816.45 569.90 817.93 572.15 C 819.29 574.80 815.62 574.82 813.99 575.03 C 806.43 574.95 799.00 573.12 791.72 571.26 C 787.20 570.13 782.63 567.94 780.22 563.77 Z" />
<path fill="#6d6d6f" opacity="1.00" d=" M 630.08 573.16 C 632.52 572.51 634.95 571.81 637.45 571.38 C 636.39 574.09 633.49 575.10 631.08 576.24 C 624.40 578.74 617.21 579.41 610.15 579.82 C 602.11 580.22 594.30 583.11 586.19 582.34 C 587.88 580.23 590.57 579.68 593.04 579.01 C 605.17 575.88 617.80 575.45 630.08 573.16 Z" />
<path fill="#6d6d6f" opacity="1.00" d=" M 265.57 595.06 C 265.44 600.07 264.58 605.00 263.86 609.95 C 263.03 622.31 262.63 634.71 261.75 647.08 C 261.09 659.38 262.02 671.73 260.97 684.00 C 255.88 680.70 256.25 674.31 255.50 669.01 C 255.01 659.72 255.91 650.40 255.20 641.13 C 257.02 629.97 259.45 618.91 262.49 608.02 C 263.90 603.80 264.79 599.44 265.57 595.06 Z" />
<path fill="#6d6d6f" opacity="1.00" d=" M 293.10 667.63 C 295.17 669.62 297.05 671.80 298.72 674.15 C 282.47 705.05 270.48 738.30 264.57 772.75 C 263.40 779.52 254.49 783.05 249.03 778.83 C 243.97 775.70 244.91 768.92 246.02 763.97 C 247.67 754.18 250.24 744.57 253.12 735.08 C 253.97 731.71 254.91 728.35 256.16 725.10 C 257.30 721.01 258.87 717.06 259.96 712.96 C 259.22 726.98 257.33 740.94 257.29 755.00 C 257.45 755.78 257.78 757.34 257.94 758.13 C 259.67 753.26 259.72 748.04 260.58 743.00 C 260.94 750.73 260.02 758.49 260.67 766.20 C 261.30 766.20 262.55 766.19 263.18 766.19 C 264.49 762.24 264.91 758.07 265.86 754.03 C 271.92 724.37 281.91 695.69 293.10 667.63 Z" />
<path fill="#6d6d6f" opacity="1.00" d=" M 660.58 710.66 C 661.31 709.39 661.79 707.85 662.99 706.94 C 665.53 707.10 668.06 707.48 670.58 707.91 C 670.33 708.06 669.83 708.37 669.59 708.53 C 665.25 715.18 661.35 722.12 657.44 729.04 C 655.26 732.94 652.64 736.55 650.12 740.23 C 647.01 745.23 644.34 750.48 641.53 755.65 C 642.10 755.61 643.25 755.54 643.82 755.50 C 643.80 756.01 643.77 757.04 643.75 757.55 C 643.03 757.57 641.59 757.60 640.87 757.62 C 638.96 761.81 634.08 766.69 637.72 771.31 C 641.11 774.04 645.74 773.83 649.83 774.33 C 652.45 781.04 654.04 788.08 656.32 794.91 C 656.66 797.11 659.43 796.74 661.07 797.24 C 663.12 797.29 666.15 798.48 667.22 795.98 C 666.68 791.12 664.26 786.67 663.84 781.76 C 669.24 792.87 676.05 803.19 681.85 814.08 C 686.98 823.11 690.95 832.75 696.44 841.57 C 698.39 844.68 699.81 848.12 702.00 851.09 C 706.54 855.36 711.36 859.62 717.40 861.61 C 726.04 865.78 735.73 866.20 745.08 867.34 C 769.18 870.28 793.08 874.63 817.13 877.95 C 841.91 881.48 866.67 885.32 891.62 887.50 L 891.26 886.06 C 895.40 902.36 900.22 918.47 904.12 934.83 C 904.80 938.17 904.43 941.63 904.96 945.00 C 904.98 946.58 906.83 946.84 907.86 947.61 C 907.64 952.82 907.23 958.04 906.18 963.17 C 878.41 994.64 851.37 1026.77 824.52 1059.03 C 810.72 1075.60 797.25 1092.44 783.40 1108.97 C 782.27 1107.51 781.14 1106.06 780.00 1104.63 C 779.34 1101.00 779.28 1097.27 778.33 1093.71 C 775.57 1086.35 771.53 1079.47 766.23 1073.66 C 768.99 1065.43 770.85 1056.92 773.63 1048.69 C 782.60 1020.75 791.86 992.90 801.85 965.31 C 786.11 955.27 770.19 945.52 754.70 935.09 C 739.64 924.77 724.40 914.50 711.13 901.89 C 706.58 898.07 701.80 894.53 697.36 890.60 C 692.08 885.82 686.04 882.04 680.46 877.66 C 674.12 872.91 668.14 867.70 661.53 863.33 C 656.23 858.61 650.27 854.69 645.08 849.84 C 638.02 843.54 631.80 836.33 626.61 828.42 C 624.16 823.66 623.19 818.34 621.79 813.22 C 620.29 807.04 618.09 800.98 617.64 794.59 C 623.27 777.14 632.53 761.18 641.30 745.17 C 640.96 744.99 640.27 744.63 639.93 744.45 C 640.44 744.42 641.47 744.36 641.99 744.33 C 645.57 738.34 649.18 732.34 652.38 726.14 C 654.76 720.79 658.08 715.94 660.58 710.66 Z" />
<path fill="#6d6d6f" opacity="1.00" d=" M 287.05 765.06 C 293.30 761.54 299.05 757.21 304.75 752.87 C 305.14 754.49 306.43 756.43 305.12 757.99 C 301.98 762.03 299.30 766.40 296.90 770.93 C 295.98 771.84 296.47 773.54 297.91 773.59 C 293.90 774.36 288.17 775.53 285.37 771.74 C 285.15 769.47 284.39 766.14 287.05 765.06 Z" />
<path fill="#6d6d6f" opacity="1.00" d=" M 912.45 888.77 C 918.31 888.98 924.18 889.24 930.06 889.28 C 937.03 889.41 944.14 888.56 950.95 890.55 C 954.94 891.30 959.15 893.69 960.18 897.91 C 960.03 901.32 957.91 904.22 955.69 906.65 C 941.38 922.64 927.44 938.97 913.04 954.88 C 914.57 932.87 914.19 910.75 912.45 888.77 Z" />
<path fill="#6d6d6f" opacity="1.00" d=" M 819.19 1311.99 C 819.91 1316.54 819.09 1321.25 820.23 1325.73 C 819.92 1326.23 819.62 1326.74 819.32 1327.27 C 819.31 1324.98 819.23 1322.72 818.94 1320.48 C 819.24 1317.65 819.47 1314.81 819.19 1311.99 Z" />
</g>
<g id="#2d2c31ff">
<path fill="#2d2c31" opacity="1.00" d=" M 524.93 50.95 C 527.37 49.26 530.41 50.27 532.92 51.25 C 541.26 54.67 549.13 59.21 556.35 64.60 C 548.17 67.32 540.20 70.69 531.84 72.85 C 524.34 74.72 516.86 77.40 509.02 77.04 C 503.75 76.63 498.39 75.68 493.74 73.01 C 494.88 72.46 496.03 71.91 497.02 71.09 C 505.47 63.29 514.98 56.69 524.93 50.95 Z" />
<path fill="#2d2c31" opacity="1.00" d=" M 585.25 68.18 C 590.89 68.75 596.47 69.80 602.12 70.37 C 611.06 71.10 620.04 71.52 628.93 72.82 C 639.92 74.56 651.08 74.85 662.08 76.52 C 674.90 78.13 687.53 80.95 699.92 84.56 C 707.90 81.18 715.68 77.05 724.34 75.67 C 725.00 76.86 725.68 78.06 726.34 79.26 C 738.29 101.04 753.06 121.12 768.55 140.49 C 789.24 166.01 811.27 190.43 833.35 214.73 C 840.13 216.81 847.04 218.59 853.62 221.33 C 861.51 224.68 869.70 227.23 877.62 230.50 C 883.83 232.88 889.74 236.04 896.11 238.02 C 912.46 243.52 926.66 253.72 940.04 264.35 C 940.20 264.02 940.52 263.35 940.69 263.02 L 940.14 264.22 C 954.91 277.05 968.33 291.57 978.87 308.10 C 985.95 319.61 993.12 331.15 998.37 343.66 C 1001.84 349.76 1003.72 356.59 1004.65 363.52 C 1005.43 369.69 1006.85 375.84 1006.67 382.09 C 1006.78 383.83 1005.36 385.04 1004.51 386.38 C 1004.22 387.48 1003.93 388.58 1003.64 389.68 C 1001.31 383.99 999.06 378.28 997.15 372.44 C 996.02 363.88 992.34 355.98 988.84 348.19 C 986.75 343.63 985.14 338.82 982.35 334.62 C 975.25 323.49 968.13 312.34 960.19 301.79 C 954.27 295.06 947.80 288.85 941.57 282.41 C 934.64 276.56 927.09 271.48 919.68 266.26 C 910.70 259.82 901.46 253.73 891.96 248.10 C 869.13 237.19 845.53 227.94 821.72 219.42 C 805.09 215.38 788.06 213.02 771.08 210.98 C 761.73 210.59 752.40 209.59 743.03 209.64 C 733.68 209.52 724.34 210.40 715.06 211.43 C 699.39 214.35 684.06 218.89 668.90 223.79 C 645.80 231.58 622.82 239.98 600.95 250.82 C 570.30 265.61 541.64 284.16 513.96 303.88 C 496.74 315.87 480.28 328.89 463.71 341.75 C 452.48 350.92 441.18 360.09 431.02 370.46 C 438.32 372.24 444.43 377.21 451.94 378.35 C 463.74 380.41 475.15 384.27 486.98 386.10 C 500.34 386.89 513.63 388.77 527.02 388.75 C 538.01 388.72 549.01 388.31 559.99 389.05 C 568.34 389.42 576.71 389.71 585.07 389.41 C 588.04 389.43 589.97 386.80 592.26 385.28 C 596.08 382.04 600.84 380.04 604.40 376.50 C 608.37 371.13 611.93 365.39 614.13 359.05 C 620.72 344.84 630.14 332.13 640.19 320.19 C 651.71 306.38 664.75 293.87 679.01 282.92 C 680.10 282.19 681.28 281.62 682.45 281.00 C 668.52 294.58 655.35 308.97 643.20 324.17 C 630.79 340.00 619.18 356.46 608.29 373.37 C 605.33 377.99 602.39 383.74 596.23 384.31 C 595.30 386.52 594.53 389.00 592.49 390.46 C 589.42 392.93 585.26 392.60 581.58 393.03 C 580.52 393.10 579.47 393.19 578.42 393.27 C 566.17 394.13 553.87 394.13 541.60 393.77 C 539.52 393.66 537.45 393.55 535.38 393.47 C 512.52 392.06 489.63 390.53 466.93 387.43 C 452.66 384.68 438.40 381.21 425.12 375.19 L 423.65 374.57 C 420.37 376.97 417.78 380.13 414.90 382.96 C 407.07 390.84 398.33 397.85 391.29 406.48 C 384.41 414.59 375.54 420.56 367.38 427.24 C 360.06 433.67 353.96 441.31 347.35 448.43 C 334.34 462.40 321.35 476.38 308.36 490.37 C 301.82 497.17 295.74 504.52 288.28 510.35 C 280.44 514.87 274.62 522.66 265.73 525.38 C 261.49 526.44 256.50 523.64 256.43 518.97 C 257.66 515.57 259.81 512.62 261.35 509.37 C 263.64 504.24 267.74 500.27 270.57 495.45 C 264.30 490.43 257.40 485.79 253.23 478.73 C 252.14 477.48 253.24 476.09 254.13 475.17 C 258.49 475.79 262.86 476.10 267.25 475.66 C 271.67 476.65 275.83 478.45 280.14 479.83 C 281.51 480.39 282.97 479.74 284.38 479.63 C 290.70 462.80 300.57 447.60 309.86 432.29 C 317.03 420.46 325.11 409.21 332.96 397.83 C 330.82 397.64 326.22 398.62 326.66 395.04 C 328.33 383.89 331.19 372.95 333.42 361.90 C 332.31 356.17 329.79 350.82 327.66 345.42 C 326.28 345.20 324.61 345.49 323.58 344.33 C 322.63 343.00 323.29 341.37 323.67 339.96 C 325.41 334.64 327.25 329.35 329.09 324.06 C 330.45 320.43 331.82 316.80 333.35 313.24 C 334.74 309.79 339.21 308.80 340.29 305.12 C 342.40 299.59 345.14 294.33 347.44 288.90 C 352.86 263.11 361.72 238.20 370.47 213.39 C 380.59 185.73 391.15 158.19 402.95 131.20 C 401.67 131.88 400.40 132.59 399.15 133.32 C 398.49 132.17 397.79 131.06 397.27 129.85 C 396.98 128.04 398.91 127.12 400.09 126.17 C 406.38 122.28 412.61 118.29 419.03 114.62 C 411.82 134.39 403.31 153.66 394.71 172.86 C 393.90 174.69 393.25 176.59 392.65 178.50 C 395.81 175.68 398.14 172.12 400.90 168.94 C 408.69 159.75 416.61 150.64 425.32 142.29 C 427.39 140.21 429.57 138.22 432.10 136.70 C 428.25 143.11 422.65 148.21 417.90 153.93 C 409.58 162.99 401.56 172.34 393.85 181.92 C 391.97 184.31 389.37 186.68 389.83 190.04 C 390.53 202.19 387.36 214.04 385.88 226.01 C 384.80 242.15 380.16 257.85 379.65 274.04 C 378.74 282.71 377.06 291.28 376.01 299.94 C 375.05 307.26 376.53 314.64 375.61 321.96 C 375.28 324.34 376.55 326.54 376.70 328.89 C 377.19 339.73 376.19 350.71 378.15 361.43 C 380.27 356.48 380.47 351.02 381.63 345.82 C 382.20 347.83 382.76 349.87 382.82 351.98 C 382.96 360.64 382.94 369.34 381.38 377.90 C 386.26 375.98 390.24 372.49 394.58 369.64 C 406.93 361.28 419.09 352.60 432.06 345.19 C 438.56 341.32 445.71 338.48 451.61 333.64 C 463.57 324.14 477.00 316.73 490.43 309.52 C 494.64 307.18 498.39 304.12 502.29 301.32 C 517.71 290.33 534.18 280.93 550.70 271.74 C 563.90 263.71 577.87 257.05 591.38 249.57 C 605.02 242.16 619.60 236.76 634.08 231.26 C 650.94 226.38 667.20 219.58 684.31 215.51 C 697.65 211.61 711.28 208.85 724.79 205.61 C 736.35 203.04 748.26 203.81 760.01 203.21 C 766.50 203.68 772.74 201.54 779.20 201.48 C 778.35 200.42 777.53 199.35 776.64 198.35 C 766.06 187.59 755.75 176.55 744.96 166.00 C 731.41 152.45 716.84 139.93 701.34 128.67 C 684.89 115.84 667.52 104.26 650.00 92.98 C 643.60 89.41 637.62 85.06 630.80 82.31 C 616.08 75.45 599.96 72.59 584.05 69.99 C 584.35 69.54 584.95 68.63 585.25 68.18 Z" />
<path fill="#2d2c31" opacity="1.00" d=" M 470.94 127.96 C 480.51 113.80 490.09 99.31 503.00 87.92 C 501.35 92.54 497.98 96.26 495.00 100.06 C 479.25 119.56 465.59 140.68 453.54 162.63 C 449.77 170.60 445.04 178.28 443.08 186.96 C 439.14 201.79 434.00 216.25 429.77 231.00 C 422.80 254.96 415.19 278.75 409.43 303.05 C 409.31 301.69 409.16 300.31 409.34 298.95 C 410.70 288.09 413.72 277.55 416.49 266.99 C 422.01 248.34 426.81 229.47 432.99 211.02 C 435.02 204.69 437.49 198.49 438.96 192.00 C 446.83 169.39 457.79 147.95 470.94 127.96 Z" />
<path fill="#2d2c31" opacity="1.00" d=" M 449.15 609.51 C 449.89 607.00 450.77 604.45 452.89 602.76 C 455.98 604.64 459.10 606.48 462.22 608.33 C 461.47 610.60 460.53 612.80 459.47 614.94 C 462.07 616.42 464.51 618.85 463.64 622.16 C 463.15 623.00 462.69 623.87 462.23 624.74 C 460.93 628.70 456.37 628.92 453.24 627.07 C 452.07 629.45 450.88 631.82 449.68 634.19 C 448.15 636.67 447.19 640.23 444.00 641.03 C 440.55 642.09 436.78 638.60 437.57 635.07 C 438.47 632.48 439.97 630.17 441.23 627.76 C 442.22 625.89 443.17 624.01 444.12 622.13 C 441.51 620.94 438.90 619.72 436.39 618.32 C 436.04 617.84 435.70 617.37 435.37 616.91 C 437.36 613.29 439.05 609.52 440.87 605.82 C 443.60 607.10 446.36 608.34 449.15 609.51 Z" />
<path fill="#2d2c31" opacity="1.00" d=" M 347.53 680.39 C 347.94 680.77 348.36 681.17 348.79 681.57 C 347.53 684.28 346.27 687.05 346.02 690.08 C 345.83 690.23 345.44 690.54 345.25 690.69 C 345.42 687.14 346.43 683.73 347.53 680.39 Z" />
<path fill="#2d2c31" opacity="1.00" d=" M 368.94 701.55 C 370.56 694.74 371.23 687.75 371.89 680.80 C 380.38 682.21 388.94 683.33 397.53 683.90 C 404.76 684.46 412.01 684.60 419.25 684.96 C 414.38 686.32 410.46 689.54 406.57 692.60 C 399.91 696.69 392.00 697.91 384.42 699.25 C 379.26 700.00 374.17 701.29 368.94 701.55 Z" />
<path fill="#2d2c31" opacity="1.00" d=" M 422.06 690.30 C 426.12 688.71 430.13 686.94 434.35 685.80 C 451.25 688.42 468.30 689.78 485.30 691.63 C 486.09 696.87 489.88 700.68 493.59 704.11 C 490.73 712.54 487.69 720.92 485.38 729.52 C 484.32 733.52 484.37 737.78 485.32 741.81 C 486.92 743.74 489.65 743.82 491.93 744.30 C 491.85 746.87 492.38 749.37 493.17 751.81 C 492.24 756.95 490.53 761.92 489.48 767.05 C 487.43 776.72 484.23 786.19 483.53 796.11 C 473.96 782.60 464.79 768.81 454.95 755.50 C 439.14 790.93 424.19 826.74 408.10 862.05 C 393.14 895.87 376.75 929.09 358.22 961.10 C 343.78 986.49 327.74 1010.91 313.45 1036.38 C 310.96 1040.59 309.05 1045.17 305.98 1049.02 C 304.30 1051.10 301.65 1051.96 299.12 1052.43 C 291.71 1052.20 284.40 1050.73 277.40 1048.36 C 268.04 1045.34 258.41 1042.88 249.73 1038.14 C 238.10 1032.00 226.52 1025.71 215.58 1018.40 C 203.33 1010.17 192.63 999.94 180.69 991.30 C 170.77 983.97 160.98 976.45 151.80 968.21 C 138.49 956.56 125.37 944.63 113.79 931.24 C 106.44 922.20 100.84 911.93 95.56 901.60 C 92.84 895.52 97.56 889.20 103.32 887.34 C 122.26 878.38 142.15 871.67 161.97 864.96 C 172.25 861.42 182.89 859.03 193.05 855.15 C 210.93 848.77 228.95 842.77 246.95 836.74 C 249.95 835.77 252.21 833.48 254.55 831.48 C 281.60 806.88 308.10 781.69 335.77 757.79 C 337.60 756.29 339.23 754.55 340.66 752.66 C 344.29 750.42 346.99 747.10 349.94 744.09 C 353.29 740.39 357.34 737.21 359.91 732.88 C 362.46 726.85 364.96 720.75 366.43 714.35 C 382.78 711.28 397.80 703.77 412.67 696.62 C 416.33 695.27 418.33 691.48 422.06 690.30 Z" />
<path fill="#2d2c31" opacity="1.00" d=" M 594.73 695.44 C 606.16 700.81 617.35 706.70 628.67 712.32 C 636.91 716.33 644.54 721.41 652.38 726.14 C 649.18 732.34 645.57 738.34 641.99 744.33 C 641.47 744.36 640.44 744.42 639.93 744.45 C 627.44 737.53 614.28 732.00 601.36 725.98 C 598.09 716.03 596.88 705.64 594.73 695.44 Z" />
<path fill="#2d2c31" opacity="1.00" d=" M 521.25 700.07 L 522.90 700.69 C 529.19 702.81 536.13 705.23 539.69 711.29 C 545.75 726.30 551.45 741.48 557.91 756.34 C 563.24 768.98 566.69 782.29 571.91 794.97 C 577.10 809.17 582.92 823.12 588.55 837.14 C 593.98 851.17 598.71 865.52 604.61 879.34 C 629.17 913.21 655.19 946.01 681.10 978.86 C 692.57 992.67 702.66 1007.79 716.18 1019.75 C 733.96 1036.67 750.54 1054.80 766.23 1073.66 C 771.53 1079.47 775.57 1086.35 778.33 1093.71 C 779.28 1097.27 779.34 1101.00 780.00 1104.63 C 782.84 1122.68 786.32 1140.63 790.46 1158.43 C 796.11 1183.22 802.81 1207.78 807.24 1232.83 C 809.31 1243.88 810.76 1255.05 813.10 1266.05 C 816.36 1281.18 817.79 1296.61 819.19 1311.99 C 819.47 1314.81 819.24 1317.65 818.94 1320.48 C 813.35 1308.18 808.61 1295.49 802.81 1283.27 C 795.11 1266.12 785.34 1250.03 776.34 1233.56 C 767.08 1217.12 757.27 1201.00 747.04 1185.14 C 741.46 1175.76 734.74 1167.16 728.24 1158.42 C 721.28 1149.16 714.36 1139.87 707.30 1130.69 C 684.79 1101.35 661.64 1072.48 637.49 1044.46 C 626.80 1032.19 616.08 1019.90 604.26 1008.69 C 599.36 1003.60 592.62 999.50 590.76 992.24 C 582.51 964.07 570.06 937.38 556.79 911.29 C 550.74 900.90 544.83 890.40 538.23 880.35 C 538.61 874.02 539.99 867.78 540.07 861.42 C 540.78 860.28 542.37 859.49 542.25 857.99 C 542.05 852.02 540.62 846.14 538.48 840.58 C 537.74 838.12 536.25 835.59 537.07 832.96 C 538.59 826.78 540.83 820.45 539.49 814.02 C 538.00 805.99 532.14 799.96 527.16 793.89 C 522.83 788.49 517.08 784.53 512.13 779.78 C 505.85 771.42 503.06 761.19 500.02 751.35 C 508.04 747.43 517.92 748.84 525.16 743.16 C 528.11 741.56 529.13 738.09 529.09 734.94 C 529.46 722.80 523.74 711.71 521.25 700.07 Z" />
<path fill="#2d2c31" opacity="1.00" d=" M 650.12 740.23 C 652.64 736.55 655.26 732.94 657.44 729.04 C 660.47 731.11 660.37 735.19 659.58 738.38 C 658.20 742.16 655.77 745.73 652.21 747.76 C 653.55 751.75 654.00 756.22 656.28 759.80 C 659.75 762.04 664.30 761.89 667.71 764.27 C 669.86 766.54 669.52 770.04 669.39 772.94 C 668.88 776.44 665.07 777.17 662.15 777.19 C 662.71 778.71 663.27 780.23 663.84 781.76 C 664.26 786.67 666.68 791.12 667.22 795.98 C 666.15 798.48 663.12 797.29 661.07 797.24 C 659.43 796.74 656.66 797.11 656.32 794.91 C 654.04 788.08 652.45 781.04 649.83 774.33 C 645.74 773.83 641.11 774.04 637.72 771.31 C 634.08 766.69 638.96 761.81 640.87 757.62 C 641.59 757.60 643.03 757.57 643.75 757.55 C 643.77 757.04 643.80 756.01 643.82 755.50 C 643.25 755.54 642.10 755.61 641.53 755.65 C 644.34 750.48 647.01 745.23 650.12 740.23 Z" />
<path fill="#2d2c31" opacity="1.00" d=" M 516.12 787.66 C 523.19 793.75 529.69 801.03 533.20 809.80 C 535.28 814.67 533.98 820.00 532.63 824.88 C 529.53 817.55 525.79 810.52 523.08 803.04 C 521.06 797.77 518.31 792.84 516.12 787.66 Z" />
<path fill="#2d2c31" opacity="1.00" d=" M 489.97 802.88 C 498.22 812.31 506.13 822.04 514.45 831.41 C 519.71 838.55 526.28 844.89 529.89 853.12 C 531.95 858.91 532.53 865.12 532.91 871.22 C 519.10 848.82 504.88 826.65 489.62 805.22 C 489.71 804.63 489.88 803.46 489.97 802.88 Z" />
</g>
<g id="#fbf7f7ff">
<path fill="#fbf7f7" opacity="1.00" d=" M 531.45 146.70 C 533.70 141.61 535.62 136.29 539.18 131.92 C 540.25 133.38 539.54 135.28 539.79 136.95 C 540.02 139.61 540.77 142.24 540.49 144.93 C 539.84 154.01 538.05 162.96 536.74 171.95 C 533.40 195.91 529.57 219.84 528.48 244.04 C 528.29 249.06 528.62 254.10 528.10 259.11 C 527.72 259.45 526.97 260.12 526.59 260.46 C 526.14 263.29 524.99 265.93 522.74 267.80 C 522.39 270.62 521.53 273.45 518.95 275.00 C 517.99 276.40 515.49 275.86 515.46 274.05 C 515.35 271.70 515.56 269.36 515.62 267.01 C 515.05 270.03 514.57 273.19 512.79 275.79 C 510.84 276.65 510.12 274.69 509.72 273.21 C 508.29 273.57 506.86 273.94 505.45 274.32 C 504.79 277.66 504.22 281.16 502.14 283.97 C 500.24 282.59 499.56 280.26 499.69 278.02 C 499.19 254.44 503.17 231.04 507.40 207.93 C 507.60 206.97 507.80 206.01 508.01 205.06 C 508.12 204.60 508.36 203.68 508.47 203.23 C 511.03 190.62 514.87 178.33 517.70 165.79 C 520.14 156.63 523.12 147.59 526.96 138.91 C 527.66 137.54 528.24 135.52 530.16 135.52 C 531.22 135.98 531.73 136.77 531.69 137.89 C 531.55 140.97 530.44 143.88 530.03 146.92 C 530.39 146.86 531.09 146.75 531.45 146.70 Z" />
<path fill="#fbf7f7" opacity="1.00" d=" M 502.28 220.88 C 502.67 219.14 503.32 217.47 504.16 215.90 C 501.19 233.44 498.44 251.14 499.31 268.99 C 499.07 278.02 499.89 287.02 500.65 296.01 C 497.98 290.67 495.29 285.12 494.84 279.08 C 493.72 271.29 493.85 263.35 494.72 255.54 C 496.70 243.88 499.43 232.36 502.28 220.88 Z" />
<path fill="#fbf7f7" opacity="1.00" d=" M 133.05 236.13 C 141.83 237.54 150.17 240.77 158.62 243.45 C 169.40 247.16 180.45 250.01 191.27 253.63 C 206.29 258.54 222.05 261.21 236.57 267.57 C 240.10 268.91 239.41 273.09 239.30 276.06 C 235.23 280.47 230.14 284.35 227.80 290.02 C 226.64 293.11 229.16 295.45 231.87 296.28 C 238.13 298.32 244.66 299.39 251.02 301.12 C 262.03 303.66 272.85 306.97 283.62 310.33 C 289.69 313.43 296.50 314.54 302.64 317.43 C 299.69 318.60 295.67 320.18 295.74 323.99 C 295.42 327.36 298.77 329.96 301.97 329.47 C 309.50 328.57 316.20 324.60 323.46 322.63 C 325.33 323.13 327.21 323.60 329.09 324.06 C 327.25 329.35 325.41 334.64 323.67 339.96 C 323.29 341.37 322.63 343.00 323.58 344.33 C 324.61 345.49 326.28 345.20 327.66 345.42 C 329.79 350.82 332.31 356.17 333.42 361.90 C 331.19 372.95 328.33 383.89 326.66 395.04 C 326.22 398.62 330.82 397.64 332.96 397.83 C 325.11 409.21 317.03 420.46 309.86 432.29 C 288.94 425.09 269.06 415.23 249.13 405.71 C 236.63 399.45 224.47 392.52 212.29 385.67 C 202.10 380.92 192.45 374.53 185.32 365.72 C 180.69 360.77 178.03 354.42 173.71 349.25 C 172.40 347.59 171.21 345.84 170.07 344.07 C 172.16 344.78 174.25 345.51 176.36 346.18 C 170.63 338.58 161.06 332.65 160.05 322.41 C 161.74 322.54 163.43 322.66 165.12 322.77 C 156.79 315.37 146.75 310.06 138.83 302.14 C 133.45 296.53 126.76 291.62 123.93 284.10 C 126.77 284.88 129.55 285.85 132.33 286.82 C 130.94 284.54 129.26 282.47 127.67 280.34 C 126.18 278.30 125.85 275.67 124.47 273.58 C 121.22 269.82 116.61 267.22 114.12 262.82 C 114.25 259.75 116.78 254.85 120.56 256.55 C 124.52 258.05 128.17 260.26 132.01 262.03 C 132.81 261.10 133.62 260.17 134.43 259.25 C 136.58 259.84 138.74 260.44 140.89 261.05 C 140.71 259.30 140.85 257.44 140.19 255.78 C 138.45 253.30 135.86 251.41 134.64 248.57 C 134.08 244.43 133.49 240.29 133.05 236.13 Z" />
<path fill="#fbf7f7" opacity="1.00" d=" M 567.36 417.36 C 570.96 410.82 572.99 403.30 578.07 397.67 C 579.07 403.48 581.71 408.81 583.95 414.21 C 588.50 424.75 594.57 434.50 600.63 444.22 C 599.40 445.08 598.20 445.94 597.00 446.82 C 598.57 446.47 600.15 446.12 601.74 445.78 C 603.26 450.38 606.08 454.38 608.19 458.71 C 612.05 466.34 615.90 474.00 620.59 481.17 C 618.54 482.46 616.40 483.59 614.11 484.38 C 603.92 488.08 593.97 492.42 584.16 497.03 C 578.79 499.51 574.00 503.06 568.67 505.62 C 564.31 507.71 559.84 509.54 555.42 511.48 C 554.03 506.42 553.96 501.15 553.39 495.97 C 552.15 483.24 551.43 470.46 550.53 457.71 C 551.80 449.27 555.92 441.68 559.39 434.00 C 562.81 428.85 564.34 422.73 567.36 417.36 Z" />
<path fill="#fbf7f7" opacity="1.00" d=" M 822.19 426.05 C 823.84 426.24 825.56 426.22 827.16 426.81 C 827.80 428.80 827.60 430.93 827.67 433.00 C 827.36 446.19 830.23 459.17 830.79 472.31 C 825.68 476.75 818.65 478.07 813.68 482.78 C 813.32 481.18 812.48 480.69 811.17 481.33 C 808.30 482.70 806.14 485.16 803.96 487.41 C 806.23 476.15 809.90 465.26 813.30 454.30 C 816.03 444.81 818.94 435.37 822.19 426.05 Z" />
<path fill="#fbf7f7" opacity="1.00" d=" M 682.91 438.62 C 688.05 447.02 690.92 456.60 695.93 465.10 C 719.25 463.15 742.67 466.99 765.96 464.23 C 768.19 464.13 770.57 463.34 772.77 464.05 C 775.48 467.52 777.35 471.56 779.66 475.31 C 784.41 483.81 789.51 492.17 793.10 501.26 C 790.89 502.94 790.32 505.19 791.74 507.63 C 792.32 507.57 793.48 507.45 794.06 507.39 C 790.02 510.60 786.54 514.44 783.26 518.40 C 781.18 523.39 780.41 528.79 779.89 534.14 C 779.05 542.73 778.50 551.38 779.03 560.01 C 779.04 561.35 779.59 562.60 780.22 563.77 C 782.63 567.94 787.20 570.13 791.72 571.26 C 799.00 573.12 806.43 574.95 813.99 575.03 C 815.62 574.82 819.29 574.80 817.93 572.15 C 816.45 569.90 813.07 569.81 810.69 568.88 C 814.46 567.08 818.81 565.92 821.64 562.63 C 830.70 552.75 838.77 541.72 844.28 529.45 C 846.96 523.54 849.47 517.56 851.47 511.38 C 854.20 512.37 856.99 513.18 859.81 513.92 L 859.25 512.06 C 860.24 515.32 861.53 518.48 863.01 521.55 C 855.71 537.11 853.59 554.30 850.78 571.06 C 849.37 579.30 850.15 587.69 849.17 595.97 C 848.16 604.76 846.29 613.45 843.81 621.95 C 841.91 628.62 837.13 633.86 833.89 639.87 C 832.22 642.80 830.97 646.14 828.21 648.25 C 823.19 652.29 818.38 656.78 812.38 659.34 C 800.41 664.75 789.56 672.26 778.97 679.94 C 765.92 689.48 753.40 699.72 741.16 710.26 C 739.12 711.98 736.85 713.71 734.06 713.75 C 720.49 715.21 707.07 711.63 694.16 707.87 C 682.46 704.82 670.76 701.73 659.32 697.78 C 653.04 695.57 646.40 694.71 639.97 693.05 C 623.79 689.23 607.95 683.97 591.60 680.92 C 588.21 668.67 586.01 656.13 583.39 643.70 C 581.63 634.15 579.29 624.68 578.14 615.03 C 597.39 640.60 620.93 663.42 649.09 678.95 C 650.26 679.52 651.58 679.60 652.85 679.87 C 652.97 678.00 652.35 676.28 650.73 675.26 C 629.35 658.23 612.47 636.41 596.84 614.17 C 587.22 600.23 578.15 585.88 570.09 570.98 C 567.96 566.77 565.36 562.51 565.40 557.64 C 568.25 565.74 572.24 573.57 578.29 579.76 C 580.37 581.81 583.46 581.97 586.19 582.34 C 594.30 583.11 602.11 580.22 610.15 579.82 C 617.21 579.41 624.40 578.74 631.08 576.24 C 633.49 575.10 636.39 574.09 637.45 571.38 C 634.95 571.81 632.52 572.51 630.08 573.16 L 628.95 572.80 C 634.26 571.14 639.54 568.35 642.31 563.29 C 644.96 559.05 645.74 553.98 645.83 549.07 C 645.94 541.06 647.02 533.12 647.32 525.12 C 647.65 519.39 647.88 513.64 648.98 508.00 C 649.39 505.99 649.24 503.95 649.12 501.93 C 666.24 497.64 683.98 496.04 700.87 490.77 C 703.44 489.19 705.04 486.42 707.14 484.30 C 698.85 484.70 690.71 486.24 682.61 487.92 C 682.42 484.97 682.04 481.98 680.42 479.44 C 681.31 477.74 683.03 476.09 682.58 474.02 C 679.84 471.78 676.15 471.99 672.86 472.41 C 663.92 473.57 654.89 472.74 645.92 472.80 C 643.74 472.62 641.80 473.64 639.92 474.58 C 640.97 472.99 641.99 471.40 643.02 469.80 C 647.07 468.76 650.99 467.14 655.16 466.55 C 661.78 466.06 668.44 466.31 675.08 465.99 C 678.04 465.79 681.67 464.89 682.90 461.84 C 683.81 459.99 683.49 457.90 683.33 455.94 C 682.66 450.20 682.43 444.39 682.91 438.62 M 781.12 582.19 C 777.53 583.89 775.86 588.25 775.61 591.99 C 775.34 594.78 779.39 596.08 781.01 593.95 C 782.87 591.53 783.91 588.55 784.58 585.60 C 785.11 583.73 783.09 581.34 781.12 582.19 M 757.37 635.49 C 752.85 637.11 749.31 640.64 745.93 643.93 C 743.52 646.83 740.48 649.78 740.14 653.74 C 740.75 653.71 741.96 653.66 742.57 653.64 C 747.77 647.78 753.79 642.77 760.03 638.06 C 761.87 636.49 758.99 634.57 757.37 635.49 Z" />
<path fill="#fbf7f7" opacity="1.00" d=" M 625.23 461.10 C 627.45 464.71 629.66 468.36 631.46 472.21 C 630.23 473.21 629.02 474.25 627.83 475.29 C 626.74 470.60 625.61 465.90 625.23 461.10 Z" />
<path fill="#fbf7f7" opacity="1.00" d=" M 418.62 468.61 C 435.10 468.15 451.28 472.05 467.65 473.37 C 471.61 480.95 474.98 488.82 478.36 496.68 C 481.63 505.30 485.53 513.85 486.66 523.09 C 488.00 534.28 487.57 545.67 485.52 556.74 C 484.67 560.28 483.59 563.76 482.93 567.35 C 481.81 569.82 480.84 572.37 480.24 575.03 C 478.41 582.82 475.88 590.42 473.16 597.94 C 470.35 605.74 468.63 613.99 464.75 621.36 L 463.64 622.16 C 464.51 618.85 462.07 616.42 459.47 614.94 C 460.53 612.80 461.47 610.60 462.22 608.33 C 459.10 606.48 455.98 604.64 452.89 602.76 C 450.77 604.45 449.89 607.00 449.15 609.51 C 446.36 608.34 443.60 607.10 440.87 605.82 C 439.05 609.52 437.36 613.29 435.37 616.91 C 431.76 612.20 429.52 606.66 426.42 601.64 C 414.58 581.15 403.35 560.32 392.92 539.08 C 391.70 536.10 388.61 532.94 390.61 529.63 C 398.29 512.04 405.36 494.16 413.95 476.98 C 415.44 474.17 416.41 470.97 418.62 468.61 Z" />
<path fill="#fbf7f7" opacity="1.00" d=" M 498.24 594.30 C 498.93 593.00 499.89 591.87 500.80 590.72 C 502.43 602.32 505.36 613.79 510.45 624.38 C 510.44 628.39 509.09 632.23 508.29 636.13 C 504.48 631.24 501.66 625.69 498.15 620.60 C 493.16 621.64 487.99 622.11 483.30 624.24 C 483.59 622.98 483.89 621.70 484.51 620.57 C 489.20 611.87 493.77 603.11 498.24 594.30 Z" />
<path fill="#fbf7f7" opacity="1.00" d=" M 441.23 627.76 C 439.16 624.87 437.04 621.89 436.39 618.32 C 438.90 619.72 441.51 620.94 444.12 622.13 C 443.17 624.01 442.22 625.89 441.23 627.76 Z" />
<path fill="#fbf7f7" opacity="1.00" d=" M 462.23 624.74 L 463.78 624.32 C 463.29 626.27 462.78 628.23 462.25 630.18 C 458.15 631.80 454.00 633.30 449.68 634.19 C 450.88 631.82 452.07 629.45 453.24 627.07 C 456.37 628.92 460.93 628.70 462.23 624.74 Z" />
<path fill="#fbf7f7" opacity="1.00" d=" M 601.36 725.98 C 614.28 732.00 627.44 737.53 639.93 744.45 C 640.27 744.63 640.96 744.99 641.30 745.17 C 632.53 761.18 623.27 777.14 617.64 794.59 C 613.47 782.73 611.12 770.29 608.86 757.94 C 606.71 747.20 603.81 736.64 601.36 725.98 Z" />
<path fill="#fbf7f7" opacity="1.00" d=" M 629.46 840.57 C 628.39 836.55 626.48 832.66 626.61 828.42 C 631.80 836.33 638.02 843.54 645.08 849.84 C 650.27 854.69 656.23 858.61 661.53 863.33 C 668.14 867.70 674.12 872.91 680.46 877.66 C 686.04 882.04 692.08 885.82 697.36 890.60 C 701.80 894.53 706.58 898.07 711.13 901.89 C 724.40 914.50 739.64 924.77 754.70 935.09 C 729.98 949.37 705.38 963.84 681.10 978.86 C 655.19 946.01 629.17 913.21 604.61 879.34 C 598.71 865.52 593.98 851.17 588.55 837.14 L 588.96 835.68 C 596.77 846.52 604.39 857.60 613.90 867.07 C 617.05 869.86 617.81 874.14 619.25 877.89 C 621.97 885.21 624.76 892.51 627.22 899.92 C 628.03 901.95 628.57 904.26 630.19 905.85 C 635.49 906.18 642.39 905.31 645.10 900.02 C 646.87 897.09 645.01 893.85 644.17 890.95 C 639.42 874.11 634.37 857.36 629.46 840.57 Z" />
</g>
<g id="#afababfe">
<path fill="#afabab" opacity="1.00" d=" M 512.35 157.40 C 513.89 154.45 515.02 151.27 516.97 148.55 C 517.79 154.27 516.54 160.12 517.70 165.79 C 514.87 178.33 511.03 190.62 508.47 203.23 C 507.00 200.83 505.97 204.54 508.01 205.06 C 507.80 206.01 507.60 206.97 507.40 207.93 C 507.24 207.46 506.91 206.51 506.75 206.04 C 504.83 208.41 505.28 212.09 504.63 215.02 C 504.51 215.24 504.28 215.68 504.16 215.90 C 503.32 217.47 502.67 219.14 502.28 220.88 C 499.43 232.36 496.70 243.88 494.72 255.54 C 493.85 263.35 493.72 271.29 494.84 279.08 C 492.50 281.31 494.84 285.28 492.27 287.21 C 486.60 289.97 480.46 291.66 474.99 294.83 C 468.79 298.18 463.02 302.24 457.25 306.25 C 454.03 308.54 450.08 309.56 447.04 312.11 C 440.12 317.58 433.02 322.81 425.58 327.54 C 422.28 329.52 419.12 333.53 414.86 331.83 C 415.01 331.18 415.30 329.89 415.44 329.25 C 419.58 321.88 424.56 315.03 428.82 307.74 C 434.87 297.63 440.53 287.29 445.80 276.75 C 447.67 272.93 449.88 269.21 450.87 265.02 C 453.48 254.29 457.27 243.91 460.55 233.38 C 465.51 218.63 469.80 203.58 476.43 189.46 C 478.51 185.65 480.52 181.45 484.28 179.01 C 484.71 180.03 485.13 181.06 485.56 182.09 C 486.17 180.50 486.78 178.92 487.36 177.32 C 488.61 176.83 489.85 176.32 491.10 175.80 C 491.06 177.95 491.12 180.11 491.12 182.26 C 494.16 177.80 496.26 172.74 498.83 167.99 C 500.82 161.96 503.26 156.11 506.88 150.86 C 507.00 152.09 507.13 153.31 507.28 154.54 C 509.14 155.15 510.85 156.12 512.35 157.40 Z" />
<path fill="#afabab" opacity="1.00" d=" M 816.76 235.97 C 821.54 237.15 826.38 238.10 831.29 238.60 C 843.90 240.98 856.47 244.21 867.98 250.05 C 874.90 253.77 883.00 254.28 889.92 258.04 C 905.51 266.07 919.32 277.09 932.45 288.62 C 941.33 294.92 949.83 301.82 957.17 309.91 C 969.41 323.40 979.34 338.82 988.10 354.75 C 991.42 360.49 993.55 366.85 997.15 372.44 C 999.06 378.28 1001.31 383.99 1003.64 389.68 C 989.21 397.89 972.67 402.48 956.00 401.97 C 951.84 401.71 946.31 402.22 943.87 398.05 C 941.60 393.48 940.18 388.54 937.98 383.94 C 933.77 374.02 927.54 365.16 922.10 355.90 C 902.88 324.69 882.02 294.07 855.67 268.37 C 843.71 256.39 830.02 246.40 816.76 235.97 Z" />
<path fill="#afabab" opacity="1.00" d=" M 881.72 324.33 C 882.98 324.60 883.19 326.22 883.92 327.13 C 887.82 334.86 893.44 341.49 898.36 348.55 C 900.10 359.60 899.35 370.81 899.56 381.96 C 899.86 386.02 898.33 389.93 898.54 393.98 C 898.56 396.05 898.50 398.12 898.09 400.16 C 896.84 405.72 898.17 411.48 897.08 417.06 C 896.55 419.30 896.52 421.61 896.63 423.92 C 894.23 415.04 891.11 406.33 889.89 397.18 C 886.30 379.26 882.49 361.38 878.73 343.50 C 877.82 339.28 878.97 335.07 879.48 330.89 C 879.68 328.56 880.68 326.40 881.72 324.33 Z" />
<path fill="#afabab" opacity="1.00" d=" M 909.58 374.13 C 916.62 386.54 920.26 400.47 926.62 413.20 C 930.85 423.12 935.39 432.89 940.37 442.45 C 944.31 450.03 947.45 458.10 952.50 465.05 C 954.38 472.67 955.86 480.38 957.81 487.99 C 960.19 498.49 963.60 508.72 966.63 519.04 C 970.91 533.29 974.83 547.64 978.86 561.96 C 981.65 572.23 984.74 582.44 986.89 592.87 C 988.72 601.00 988.36 609.43 990.28 617.55 C 990.67 621.05 992.21 625.47 989.38 628.35 C 986.79 631.20 981.30 629.79 980.64 625.94 C 978.82 604.99 968.45 586.26 960.74 567.07 C 955.02 552.60 947.77 538.82 941.45 524.62 C 936.61 513.82 932.08 502.89 927.83 491.85 C 926.21 495.35 924.77 499.51 921.00 501.26 C 917.86 502.64 914.49 503.42 911.37 504.84 C 911.72 500.30 910.87 495.82 909.73 491.46 C 907.61 483.42 906.04 475.24 904.52 467.07 C 902.57 457.85 903.70 448.37 903.44 439.03 C 903.06 431.98 904.49 425.04 904.65 418.02 C 906.35 403.40 907.87 388.75 909.58 374.13 Z" />
<path fill="#afabab" opacity="1.00" d=" M 414.90 382.96 C 417.78 380.13 420.37 376.97 423.65 374.57 L 425.12 375.19 C 422.27 380.51 417.41 384.22 413.68 388.86 C 408.72 394.78 402.80 399.81 397.74 405.64 C 392.14 412.35 385.48 418.08 379.95 424.85 C 370.29 434.60 361.28 444.95 352.17 455.22 C 344.81 463.70 338.57 473.06 332.29 482.34 C 324.47 492.71 317.54 503.71 310.32 514.49 C 298.81 532.41 287.34 550.37 276.80 568.88 C 273.56 574.18 270.33 579.50 266.54 584.44 C 265.13 586.34 263.57 588.18 262.58 590.36 C 259.66 598.60 259.31 607.64 255.73 615.67 C 255.86 609.78 256.37 603.92 256.61 598.04 C 257.75 586.95 257.85 575.75 259.65 564.73 C 262.37 566.16 264.89 567.96 267.75 569.14 C 268.72 562.00 270.53 555.02 271.28 547.85 C 269.89 547.71 268.51 547.57 267.12 547.45 C 272.65 537.67 278.66 528.17 284.79 518.77 C 286.39 516.17 288.08 513.48 288.28 510.35 C 295.74 504.52 301.82 497.17 308.36 490.37 C 321.35 476.38 334.34 462.40 347.35 448.43 C 353.96 441.31 360.06 433.67 367.38 427.24 C 375.54 420.56 384.41 414.59 391.29 406.48 C 398.33 397.85 407.07 390.84 414.90 382.96 Z" />
<path fill="#afabab" opacity="1.00" d=" M 578.42 393.27 C 579.47 393.19 580.52 393.10 581.58 393.03 C 586.48 410.75 595.41 426.97 601.27 444.35 C 601.34 444.56 601.48 444.98 601.55 445.20 L 601.74 445.78 C 600.15 446.12 598.57 446.47 597.00 446.82 C 598.20 445.94 599.40 445.08 600.63 444.22 C 594.57 434.50 588.50 424.75 583.95 414.21 C 581.71 408.81 579.07 403.48 578.07 397.67 C 578.16 396.20 578.28 394.73 578.42 393.27 Z" />
<path fill="#afabab" opacity="1.00" d=" M 535.38 393.47 C 537.45 393.55 539.52 393.66 541.60 393.77 C 541.06 416.19 538.47 438.66 533.16 460.49 C 531.76 468.05 529.10 475.29 527.53 482.79 C 529.69 481.86 530.68 479.68 531.82 477.79 C 539.30 464.67 548.36 452.46 554.94 438.83 C 555.89 436.79 557.74 435.44 559.39 434.00 C 555.92 441.68 551.80 449.27 550.53 457.71 C 547.01 465.68 544.02 473.86 540.59 481.87 C 535.55 496.82 529.81 511.52 524.16 526.25 C 522.59 530.01 520.96 533.79 520.29 537.85 C 516.14 559.38 513.44 581.19 511.54 603.03 C 512.01 610.19 510.28 617.23 510.45 624.38 C 505.36 613.79 502.43 602.32 500.80 590.72 C 499.89 591.87 498.93 593.00 498.24 594.30 C 493.77 603.11 489.20 611.87 484.51 620.57 C 483.89 621.70 483.59 622.98 483.30 624.24 C 482.02 625.75 480.90 627.41 480.02 629.19 C 476.91 635.44 472.62 640.98 468.67 646.71 C 462.75 655.92 458.64 666.24 452.00 675.00 C 447.50 680.47 440.55 682.83 434.35 685.80 C 430.13 686.94 426.12 688.71 422.06 690.30 C 418.33 691.48 416.33 695.27 412.67 696.62 C 397.80 703.77 382.78 711.28 366.43 714.35 C 364.96 720.75 362.46 726.85 359.91 732.88 C 357.34 737.21 353.29 740.39 349.94 744.09 C 346.99 747.10 344.29 750.42 340.66 752.66 C 335.87 754.47 332.27 758.30 327.97 760.97 C 319.01 767.31 308.44 770.84 297.91 773.59 C 296.47 773.54 295.98 771.84 296.90 770.93 C 299.30 766.40 301.98 762.03 305.12 757.99 C 306.43 756.43 305.14 754.49 304.75 752.87 C 314.92 744.11 323.42 733.47 329.86 721.71 C 335.77 711.78 341.15 701.50 345.25 690.69 C 345.44 690.54 345.83 690.23 346.02 690.08 C 346.27 687.05 347.53 684.28 348.79 681.57 C 352.71 685.53 356.70 690.25 356.97 696.10 C 358.46 704.98 359.14 713.96 358.64 722.96 C 364.09 717.12 368.10 709.61 368.94 701.55 C 374.17 701.29 379.26 700.00 384.42 699.25 C 392.00 697.91 399.91 696.69 406.57 692.60 C 410.46 689.54 414.38 686.32 419.25 684.96 C 423.64 684.36 427.62 682.35 431.75 680.86 C 442.07 677.62 450.16 669.28 455.00 659.82 C 456.81 656.26 459.56 653.02 460.29 649.03 C 458.53 642.68 460.71 636.33 462.25 630.18 C 462.78 628.23 463.29 626.27 463.78 624.32 L 462.23 624.74 C 462.69 623.87 463.15 623.00 463.64 622.16 L 464.75 621.36 C 468.63 613.99 470.35 605.74 473.16 597.94 C 475.88 590.42 478.41 582.82 480.24 575.03 C 480.84 572.37 481.81 569.82 482.93 567.35 C 486.48 562.74 488.54 557.24 491.29 552.16 C 500.86 533.64 509.64 514.72 517.56 495.44 C 525.24 469.83 531.65 443.69 534.26 417.03 C 534.51 409.15 536.08 401.37 535.38 393.47 Z" />
<path fill="#afabab" opacity="1.00" d=" M 865.76 516.02 C 865.14 520.83 863.33 525.37 862.20 530.07 C 857.83 546.41 855.57 563.22 853.84 580.01 C 853.97 590.51 853.17 601.14 850.30 611.28 C 846.62 621.06 843.85 631.20 839.06 640.53 C 837.97 643.13 836.79 645.76 834.81 647.81 C 829.45 652.89 825.05 659.24 818.13 662.40 C 793.72 674.45 772.94 692.26 751.02 708.12 C 744.69 712.21 738.53 717.05 731.08 718.87 C 725.12 719.58 719.04 719.03 713.19 717.80 C 709.71 717.12 706.54 715.34 703.02 714.90 C 691.99 713.77 681.18 711.09 670.58 707.91 C 668.06 707.48 665.53 707.10 662.99 706.94 C 661.79 707.85 661.31 709.39 660.58 710.66 C 658.08 715.94 654.76 720.79 652.38 726.14 C 644.54 721.41 636.91 716.33 628.67 712.32 C 617.35 706.70 606.16 700.81 594.73 695.44 C 593.69 690.60 592.68 685.75 591.60 680.92 C 607.95 683.97 623.79 689.23 639.97 693.05 C 646.40 694.71 653.04 695.57 659.32 697.78 C 670.76 701.73 682.46 704.82 694.16 707.87 C 707.07 711.63 720.49 715.21 734.06 713.75 C 736.85 713.71 739.12 711.98 741.16 710.26 C 753.40 699.72 765.92 689.48 778.97 679.94 C 789.56 672.26 800.41 664.75 812.38 659.34 C 818.38 656.78 823.19 652.29 828.21 648.25 C 830.97 646.14 832.22 642.80 833.89 639.87 C 837.13 633.86 841.91 628.62 843.81 621.95 C 846.29 613.45 848.16 604.76 849.17 595.97 C 850.15 587.69 849.37 579.30 850.78 571.06 C 853.59 554.30 855.71 537.11 863.01 521.55 C 863.83 519.66 864.77 517.82 865.76 516.02 Z" />
<path fill="#afabab" opacity="1.00" d=" M 779.89 534.14 C 780.41 528.79 781.18 523.39 783.26 518.40 C 790.47 520.83 798.11 521.30 805.57 522.57 C 818.49 524.75 831.42 526.92 844.28 529.45 C 838.77 541.72 830.70 552.75 821.64 562.63 C 818.81 565.92 814.46 567.08 810.69 568.88 C 802.86 566.77 794.64 566.52 786.88 564.13 C 784.71 563.38 782.44 563.32 780.22 563.77 C 779.59 562.60 779.04 561.35 779.03 560.01 C 778.50 551.38 779.05 542.73 779.89 534.14 Z" />
<path fill="#afabab" opacity="1.00" d=" M 579.92 539.93 C 602.18 534.09 624.81 529.85 647.32 525.12 C 647.02 533.12 645.94 541.06 645.83 549.07 C 645.74 553.98 644.96 559.05 642.31 563.29 C 639.54 568.35 634.26 571.14 628.95 572.80 L 630.08 573.16 C 617.80 575.45 605.17 575.88 593.04 579.01 C 590.57 579.68 587.88 580.23 586.19 582.34 C 583.46 581.97 580.37 581.81 578.29 579.76 C 572.24 573.57 568.25 565.74 565.40 557.64 C 564.13 553.27 562.70 548.93 561.90 544.44 C 568.00 543.35 573.87 541.30 579.92 539.93 Z" />
<path fill="#afabab" opacity="1.00" d=" M 313.72 623.99 C 317.79 626.37 319.30 631.30 322.87 634.30 C 314.07 647.11 305.88 660.35 298.72 674.15 C 297.05 671.80 295.17 669.62 293.10 667.63 C 298.89 652.60 305.93 638.06 313.72 623.99 Z" />
<path fill="#afabab" opacity="1.00" d=" M 337.88 661.03 C 331.73 649.68 328.53 636.29 331.21 623.48 C 335.82 633.23 340.69 642.93 343.61 653.36 C 345.29 659.75 348.33 665.99 347.75 672.76 C 343.90 669.37 340.55 665.41 337.88 661.03 Z" />
<path fill="#afabab" opacity="1.00" d=" M 757.37 635.49 C 758.99 634.57 761.87 636.49 760.03 638.06 C 753.79 642.77 747.77 647.78 742.57 653.64 C 741.96 653.66 740.75 653.71 740.14 653.74 C 740.48 649.78 743.52 646.83 745.93 643.93 C 749.31 640.64 752.85 637.11 757.37 635.49 Z" />
<path fill="#afabab" opacity="1.00" d=" M 373.47 655.26 C 384.68 662.57 395.35 671.13 402.84 682.37 C 401.04 682.77 399.27 683.29 397.53 683.90 C 388.94 683.33 380.38 682.21 371.89 680.80 C 372.37 676.87 372.46 672.91 372.39 668.97 C 372.23 664.36 373.37 659.85 373.47 655.26 Z" />
<path fill="#afabab" opacity="1.00" d=" M 521.87 699.77 C 527.74 696.68 533.54 693.37 539.70 690.86 C 544.39 708.68 549.24 726.47 554.70 744.08 C 556.04 748.09 557.37 752.12 557.91 756.34 C 551.45 741.48 545.75 726.30 539.69 711.29 C 536.13 705.23 529.19 702.81 522.90 700.69 C 522.64 700.46 522.12 700.00 521.87 699.77 Z" />
<path fill="#afabab" opacity="1.00" d=" M 754.70 935.09 C 770.19 945.52 786.11 955.27 801.85 965.31 C 791.86 992.90 782.60 1020.75 773.63 1048.69 C 770.85 1056.92 768.99 1065.43 766.23 1073.66 C 750.54 1054.80 733.96 1036.67 716.18 1019.75 C 702.66 1007.79 692.57 992.67 681.10 978.86 C 705.38 963.84 729.98 949.37 754.70 935.09 Z" />
<path fill="#afabab" opacity="1.00" d=" M 728.24 1158.42 C 734.74 1167.16 741.46 1175.76 747.04 1185.14 C 746.76 1204.77 746.94 1224.41 746.78 1244.05 C 746.14 1255.67 745.69 1267.31 745.37 1278.96 C 744.52 1307.56 742.83 1336.14 739.87 1364.61 C 739.42 1366.21 740.09 1368.79 737.72 1369.12 C 738.36 1350.40 738.70 1331.62 736.88 1312.96 C 734.58 1287.23 728.74 1261.90 727.73 1236.05 C 726.39 1210.20 726.60 1184.26 728.24 1158.42 Z" />
</g>
<g id="#e1746dff">
<path fill="#e1746d" opacity="1.00" d=" M 408.10 862.05 C 424.19 826.74 439.14 790.93 454.95 755.50 C 464.79 768.81 473.96 782.60 483.53 796.11 C 482.31 807.13 480.51 818.31 482.53 829.35 C 482.50 832.18 487.35 832.74 487.44 829.70 C 487.31 821.48 487.59 813.23 489.62 805.22 C 504.88 826.65 519.10 848.82 532.91 871.22 C 532.92 875.48 532.28 879.77 532.81 884.03 C 533.04 886.07 536.03 886.90 537.24 885.22 C 538.06 883.74 537.94 881.94 538.23 880.35 C 544.83 890.40 550.74 900.90 556.79 911.29 C 570.06 937.38 582.51 964.07 590.76 992.24 C 592.62 999.50 599.36 1003.60 604.26 1008.69 C 616.08 1019.90 626.80 1032.19 637.49 1044.46 C 661.64 1072.48 684.79 1101.35 707.30 1130.69 C 660.90 1187.41 613.40 1243.23 567.73 1300.54 C 557.50 1313.09 547.86 1326.12 537.39 1338.47 C 511.92 1369.10 487.53 1400.59 462.75 1431.77 C 461.19 1433.69 459.40 1435.57 458.66 1438.00 L 458.24 1438.00 C 455.74 1424.47 455.92 1410.66 455.67 1396.97 C 455.25 1371.28 456.26 1345.61 457.18 1319.95 C 457.85 1298.57 459.38 1277.23 460.84 1255.89 C 461.74 1229.58 462.87 1203.27 464.70 1177.01 C 465.71 1163.37 465.06 1149.70 464.92 1136.05 C 464.70 1120.81 464.56 1105.57 464.44 1090.34 C 459.53 1092.40 454.63 1094.49 449.80 1096.75 C 435.37 1103.71 420.69 1110.37 407.45 1119.48 C 384.58 1134.23 361.04 1147.95 338.89 1163.80 C 308.21 1185.48 278.65 1208.72 250.09 1233.12 C 234.67 1246.57 219.24 1260.14 205.70 1275.53 C 217.40 1242.58 229.59 1209.80 242.73 1177.40 C 260.16 1135.15 278.76 1093.37 299.12 1052.43 C 301.65 1051.96 304.30 1051.10 305.98 1049.02 C 309.05 1045.17 310.96 1040.59 313.45 1036.38 C 327.74 1010.91 343.78 986.49 358.22 961.10 C 376.75 929.09 393.14 895.87 408.10 862.05 Z" />
<path fill="#e1746d" opacity="1.00" d=" M 783.40 1108.97 C 797.25 1092.44 810.72 1075.60 824.52 1059.03 C 825.06 1119.70 825.03 1180.38 825.14 1241.05 C 825.18 1268.02 823.90 1294.99 821.41 1321.85 C 821.19 1323.18 820.80 1324.47 820.23 1325.73 C 819.09 1321.25 819.91 1316.54 819.19 1311.99 C 817.79 1296.61 816.36 1281.18 813.10 1266.05 C 810.76 1255.05 809.31 1243.88 807.24 1232.83 C 802.81 1207.78 796.11 1183.22 790.46 1158.43 C 786.32 1140.63 782.84 1122.68 780.00 1104.63 C 781.14 1106.06 782.27 1107.51 783.40 1108.97 Z" />
</g>
</svg>
