<svg xmlns="http://www.w3.org/2000/svg" width="1049pt" height="1438pt" viewBox="0 0 1049 1438"><g fill="#efd6cb"><path d="M970.92 3.32c20.96-2.16 42.09-3.74 63.15-2.24 5.79.15 11.37 4.21 12.79 9.92-7.49 15.11-13.89 30.76-20.82 46.14-12.4 27.25-24.65 54.56-37.31 81.69-8.51 18.9-17.35 37.65-25.05 56.9-7.11 17.05-12.98 34.59-18.6 52.18-1.34 4.03-2.31 8.16-3.08 12.33-.44.93-.88 1.85-1.31 2.78-.17.33-.49 1-.65 1.33-13.38-10.63-27.58-20.83-43.93-26.33-6.37-1.98-12.28-5.14-18.49-7.52-7.92-3.27-16.11-5.82-24-9.17-6.58-2.74-13.49-4.52-20.27-6.6-22.08-24.3-44.11-48.72-64.8-74.24-15.49-19.37-30.26-39.45-42.21-61.23 2.13-1.2 4.26-2.39 6.44-3.51 33.94-16.99 69.5-30.47 105.43-42.61 43.05-14.47 87.5-25.1 132.71-29.82M349.59 102.84c-.56-1.9-.51-5.34 2.38-4.77 6.29 8.87 12.79 17.83 21.26 24.77 1.52 1.46 3.79 1.48 5.68.76 16.28-5.54 32.74-10.64 49.48-14.6-3.05 1.99-6.19 3.82-9.36 5.62-6.42 3.67-12.65 7.66-18.94 11.55-1.18.95-3.11 1.87-2.82 3.68.52 1.21 1.22 2.32 1.88 3.47 1.25-.73 2.52-1.44 3.8-2.12-11.8 26.99-22.36 54.53-32.48 82.19-8.75 24.81-17.61 49.72-23.03 75.51-2.3 5.43-5.04 10.69-7.15 16.22-1.08 3.68-5.55 4.67-6.94 8.12-1.53 3.56-2.9 7.19-4.26 10.82-1.88-.46-3.76-.93-5.63-1.43-5.04-1.88-10.28-3.08-15.43-4.57a14.7 14.7 0 0 0-5.39-.63c-6.14-2.89-12.95-4-19.02-7.1-10.77-3.36-21.59-6.67-32.6-9.21-6.36-1.73-12.89-2.8-19.15-4.84 6.64-2.15 11.26-7.59 16.14-12.26 4.58-4.85 9.92-9.39 12.38-15.78 1.06-2.62.47-5.5.33-8.23-3.33.96-6.82 1.89-9.51 4.2-4.34 3.56-7.91 7.94-11.91 11.85.11-2.97.8-7.15-2.73-8.49-14.52-6.36-30.28-9.03-45.3-13.94-10.82-3.62-21.87-6.47-32.65-10.18-8.45-2.68-16.79-5.91-25.57-7.32.44 4.16 1.03 8.3 1.59 12.44 1.22 2.84 3.81 4.73 5.55 7.21.66 1.66.52 3.52.7 5.27-2.15-.61-4.31-1.21-6.46-1.8-.81.92-1.62 1.85-2.42 2.78-3.84-1.77-7.49-3.98-11.45-5.48-3.78-1.7-6.31 3.2-6.44 6.27 2.49 4.4 7.1 7 10.35 10.76 1.38 2.09 1.71 4.72 3.2 6.76 1.59 2.13 3.27 4.2 4.66 6.48-2.78-.97-5.56-1.94-8.4-2.72 2.83 7.52 9.52 12.43 14.9 18.04 7.92 7.92 17.96 13.23 26.29 20.63q-2.535-.165-5.07-.36c1.01 10.24 10.58 16.17 16.31 23.77-2.11-.67-4.2-1.4-6.29-2.11 1.14 1.77 2.33 3.52 3.64 5.18 4.32 5.17 6.98 11.52 11.61 16.47 7.13 8.81 16.78 15.2 26.97 19.95 12.18 6.85 24.34 13.78 36.84 20.04 19.93 9.52 39.81 19.38 60.73 26.58-9.29 15.31-19.16 30.51-25.48 47.34-1.41.11-2.87.76-4.24.2-4.31-1.38-8.47-3.18-12.89-4.17-6.46-1.08-15.36-3.81-15.41-11.78-4.13-3.2-8.59-7.81-7.39-13.51 1.52-2.63 4.61-4 7.53-4.34 4.55-.53 9-1.59 13.46-2.57-13.52-10.4-26.75-21.15-39.86-32.06-9.69-7.58-18.66-16.01-27.77-24.26-20.41-18.54-39.75-38.19-58.91-58-28.58-31.66-56.32-64.15-81.56-98.57-19.77-26.62-38.38-54.16-54.59-83.11-3.52-7.74-3.35-17.61 2.48-24.24 6.39-7.88 17.32-8.85 26.75-9.2 9.98.74 19.95-.61 29.9-1.3 40.65-2.03 81.36-3.43 122.08-3.21 21.69.28 43.37 1.34 65.05 2.12 24.38.86 48.62 3.76 72.89 6.06 11.52 1.14 23.03 2.37 34.52 3.82-2.94-5.95-5.19-12.24-6.83-18.67M765.04 236.11c4.26-1.07 8.52-2.54 12.98-2.37 10.68.31 21.35.99 32.02 1.41 2.25.12 4.51.29 6.72.82 13.26 10.43 26.95 20.42 38.91 32.4 26.35 25.7 47.21 56.32 66.43 87.53 5.44 9.26 11.67 18.12 15.88 28.04 2.23 9.25 3.91 18.63 5.5 28.02 2.69 10.23 3.59 20.94 7.7 30.78 3.44 10.31 8.56 20.13 15.66 28.41 7.82 10.09 16.92 19.1 24.92 29.04 1.1 1.56 3 3.44 1.83 5.5-1.01 1.43-2.62-.05-3.65-.62-15.32-10.31-27.36-24.71-37.44-40.02-5.05-6.95-8.19-15.02-12.13-22.6-4.98-9.56-9.52-19.33-13.75-29.25-6.36-12.73-10-26.66-17.04-39.07-1.71 14.62-3.23 29.27-4.93 43.89-.16 7.02-1.59 13.96-1.21 21.01.26 9.34-.87 18.82 1.08 28.04 1.52 8.17 3.09 16.35 5.21 24.39 1.14 4.36 1.99 8.84 1.64 13.38 1.09 24.07 5.65 47.81 9.39 71.56.49 6.23.83 12.5.65 18.76-.86 2.53-3.63 2.88-5.92 2.56-4.14-9.38-8.56-18.63-12.93-27.9-4.44 22.75-8.33 45.61-13.05 68.3-.53 10.01 2.4 19.82 2.35 29.82 1.61 36.45 4.02 72.86 7.72 109.16 1.58 16.69 4.94 33.16 6.56 49.85 1.27 10.28 1.71 20.65 3.23 30.91 1.3 10.27 2.29 20.58 3.08 30.91 1.74 21.98 2.12 44.1.59 66.11-.8 4.03-.81 8.24-2.18 12.15-.44 1.73-2.9 2.45-4.2 1.26-1.85-1.17-.64-3.51-.48-5.12 1.05-5.13 1.46-10.35 1.68-15.56-1.03-.77-2.88-1.03-2.9-2.61-.53-3.37-.16-6.83-.84-10.17-3.9-16.36-8.72-32.47-12.86-48.77-3.07-11.87-5.72-23.85-7.76-35.94-1.67-8.47-2.19-17.1-3.8-25.56-2.83-15.56-5.32-31.2-9.26-46.52-6.87-31.51-15.51-62.58-22.5-94.06-2.9-14.5-7.1-28.73-8.88-43.45 4.79-9.33 7.56-19.47 11.24-29.25 2.87-10.14 3.67-20.77 3.54-31.27 1.73-16.79 3.99-33.6 8.36-49.94 1.13-4.7 2.94-9.24 3.56-14.05-.99 1.8-1.93 3.64-2.75 5.53-1.48-3.07-2.77-6.23-3.76-9.49-2.87-8.98-5.01-18.17-6.98-27.38-.5 4.99-.07 10.03-.56 15.03-5.32-.57-10.68-.71-15.96-1.51l-.96-1.12c-2.07-8.12-1.9-16.67-4-24.77-.56-13.14-3.43-26.12-3.12-39.31-.07-2.07.13-4.2-.51-6.19-1.6-.59-3.32-.57-4.97-.76-3.25 9.32-6.16 18.76-8.89 28.25-3.4 10.96-7.07 21.85-9.34 33.11-2.26 6.1-3.08 12.59-4.73 18.86-1.08.56-2.18 1.09-3.28 1.58-.95-2.2-1.9-4.4-2.85-6.59-3.59-9.09-8.69-17.45-13.44-25.95-2.31-3.75-4.18-7.79-6.89-11.26-2.2-.71-4.58.08-6.81.18-23.29 2.76-46.71-1.08-70.03.87-5.01-8.5-7.88-18.08-13.02-26.48-.48 5.77-.25 11.58.42 17.32.16 1.96.48 4.05-.43 5.9-1.23 3.05-4.86 3.95-7.82 4.15-6.64.32-13.3.07-19.92.56-4.17.59-8.09 2.21-12.14 3.25-3.82.93-7.54 2.74-11.56 2.41-1.8-3.85-4.01-7.5-6.23-11.11.38 4.8 1.51 9.5 2.6 14.19 2.47 7.98 6.47 15.38 9.78 23.04.73 1.3-.04 2.85-1.46 3.18-6.35-5.81-10.89-13.19-15.56-20.34-4.69-7.17-8.54-14.83-12.4-22.46-2.11-4.33-4.93-8.33-6.45-12.93l-.19-.58c5.46-2.13 11.03-3.93 16.55-5.89 16.43-6.51 32.81-13.24 49.73-18.39 13.07-3.82 26.33-6.98 39.68-9.63-12.96.03-26.04 1.33-38.52 4.98-16.91 4.73-33.2 11.4-49.24 18.49-6.36 2.81-12.15 6.72-18.48 9.59-5.86-17.38-14.79-33.6-19.69-51.32 3.68-.43 7.84-.1 10.91-2.57 2.04-1.46 2.81-3.94 3.74-6.15 6.16-.57 9.1-6.32 12.06-10.94 10.89-16.91 22.5-33.37 34.91-49.2 12.15-15.2 25.32-29.59 39.25-43.17 9.82-9.06 18.96-19.2 30.75-25.78 15.77-9.84 34.17-14.03 51.84-19.11m116.68 88.22c-1.04 2.07-2.04 4.23-2.24 6.56-.51 4.18-1.66 8.39-.75 12.61 3.76 17.88 7.57 35.76 11.16 53.68 1.22 9.15 4.34 17.86 6.74 26.74-.11-2.31-.08-4.62.45-6.86 1.09-5.58-.24-11.34 1.01-16.9.41-2.04.47-4.11.45-6.18-.21-4.05 1.32-7.96 1.02-12.02-.21-11.15.54-22.36-1.2-33.41-4.92-7.06-10.54-13.69-14.44-21.42-.73-.91-.94-2.53-2.2-2.8m-60.74 94.83c7.22 3.38 14.15 7.37 21.51 10.46 9.74 4.39 19.16 9.61 27.65 16.13 6.41 4.68 11.69 10.74 18.06 15.44-9.45-15.77-25.49-26.16-41.86-33.69-8-4-16.73-6.16-25.36-8.34M425.12 375.19c13.28 6.02 27.54 9.49 41.81 12.24 22.7 3.1 45.59 4.63 68.45 6.04.7 7.9-.87 15.68-1.12 23.56-2.61 26.66-9.02 52.8-16.7 78.41-7.92 19.28-16.7 38.2-26.27 56.72-2.75 5.08-4.81 10.58-8.36 15.19.66-3.59 1.74-7.07 2.59-10.61 2.05-11.07 2.48-22.46 1.14-33.65-1.13-9.24-5.03-17.79-8.3-26.41-3.38-7.86-6.75-15.73-10.71-23.31-16.37-1.32-32.55-5.22-49.03-4.76-2.21 2.36-3.18 5.56-4.67 8.37-8.59 17.18-15.66 35.06-23.34 52.65-2 3.31 1.09 6.47 2.31 9.45 10.43 21.24 21.66 42.07 33.5 62.56 3.1 5.02 5.34 10.56 8.95 15.27q.495.69 1.02 1.41c.65 3.57 2.77 6.55 4.84 9.44-1.26 2.41-2.76 4.72-3.66 7.31-.79 3.53 2.98 7.02 6.43 5.96 3.19-.8 4.15-4.36 5.68-6.84 4.32-.89 8.47-2.39 12.57-4.01-1.54 6.15-3.72 12.5-1.96 18.85-.73 3.99-3.48 7.23-5.29 10.79-4.84 9.46-12.93 17.8-23.25 21.04-4.13 1.49-8.11 3.5-12.5 4.1-7.24-.36-14.49-.5-21.72-1.06 1.74-.61 3.51-1.13 5.31-1.53-7.49-11.24-18.16-19.8-29.37-27.11-.1 4.59-1.24 9.1-1.08 13.71.07 3.94-.02 7.9-.5 11.83-.66 6.95-1.33 13.94-2.95 20.75-.84 8.06-4.85 15.57-10.3 21.41.5-9-.18-17.98-1.67-26.86-.27-5.85-4.26-10.57-8.18-14.53-.43-.4-.85-.8-1.26-1.18-1.64-1.14-1.44-2.85.16-3.79.1-.69.32-2.06.43-2.75-.09-.27-.28-.82-.37-1.09.58-6.77-2.46-13.01-4.14-19.4-2.92-10.43-7.79-20.13-12.4-29.88l-.09-.21c-3.17 3.34-5.59 7.29-8.25 11.03-3.57-3-5.08-7.93-9.15-10.31-7.79 14.07-14.83 28.61-20.62 43.64-11.19 28.06-21.18 56.74-27.24 86.4-.95 4.04-1.37 8.21-2.68 12.16-.63 0-1.88.01-2.51.01-.65-7.71.27-15.47-.09-23.2-.86 5.04-.91 10.26-2.64 15.13-.16-.79-.49-2.35-.65-3.13.04-14.06 1.93-28.02 2.67-42.04 1.09-9.6.49-19.31 1.01-28.96 1.05-12.27.12-24.62.78-36.92.88-12.37 1.28-24.77 2.11-37.13.72-4.95 1.58-9.88 1.71-14.89-.78 4.38-1.67 8.74-3.08 12.96a307 307 0 0 0-7.29 33.11c-1.53 8.22-2.53 16.53-3.82 24.8-.35 1.27-.25 2.9-1.48 3.73-2.29-.58-1.56-3.12-1.42-4.83 1.88-12.61 3.16-25.32 5.57-37.85.74-3.74 1.41-7.51 1.68-11.31 3.58-8.03 3.93-17.07 6.85-25.31.99-2.18 2.55-4.02 3.96-5.92 3.79-4.94 7.02-10.26 10.26-15.56 10.54-18.51 22.01-36.47 33.52-54.39 7.22-10.78 14.15-21.78 21.97-32.15 6.28-9.28 12.52-18.64 19.88-27.12 9.11-10.27 18.12-20.62 27.78-30.37 5.53-6.77 12.19-12.5 17.79-19.21 5.06-5.83 10.98-10.86 15.94-16.78 3.73-4.64 8.59-8.35 11.44-13.67M541.6 393.77c12.27.36 24.57.36 36.82-.5-.14 1.46-.26 2.93-.35 4.4-5.08 5.63-7.11 13.15-10.71 19.69-3.02 5.37-4.55 11.49-7.97 16.64-1.65 1.44-3.5 2.79-4.45 4.83-6.58 13.63-15.64 25.84-23.12 38.96-1.14 1.89-2.13 4.07-4.29 5 1.57-7.5 4.23-14.74 5.63-22.3 5.31-21.83 7.9-44.3 8.44-66.72"/><path d="M540.59 481.87c3.43-8.01 6.42-16.19 9.94-24.16.9 12.75 1.62 25.53 2.86 38.26.57 5.18.64 10.45 2.03 15.51-.25 4.39.25 8.99 1.83 13.12.56 6.83 3.43 13.14 4.65 19.84.8 4.49 2.23 8.83 3.5 13.2-.04 4.87 2.56 9.13 4.69 13.34 8.06 14.9 17.13 29.25 26.75 43.19 15.63 22.24 32.51 44.06 53.89 61.09 1.62 1.02 2.24 2.74 2.12 4.61-1.27-.27-2.59-.35-3.76-.92-28.16-15.53-51.7-38.35-70.95-63.92 1.15 9.65 3.49 19.12 5.25 28.67 2.62 12.43 4.82 24.97 8.21 37.22 1.08 4.83 2.09 9.68 3.13 14.52 2.15 10.2 3.36 20.59 6.63 30.54 2.45 10.66 5.35 21.22 7.5 31.96 2.26 12.35 4.61 24.79 8.78 36.65.45 6.39 2.65 12.45 4.15 18.63 1.4 5.12 2.37 10.44 4.82 15.2-.13 4.24 1.78 8.13 2.85 12.15 4.91 16.79 9.96 33.54 14.71 50.38.84 2.9 2.7 6.14.93 9.07-2.71 5.29-9.61 6.16-14.91 5.83-1.62-1.59-2.16-3.9-2.97-5.93-2.46-7.41-5.25-14.71-7.97-22.03-1.44-3.75-2.2-8.03-5.35-10.82-9.51-9.47-17.13-20.55-24.94-31.39l-.41 1.46c-5.63-14.02-11.45-27.97-16.64-42.17-5.22-12.68-8.67-25.99-14-38.63-.54-4.22-1.87-8.25-3.21-12.26-5.46-17.61-10.31-35.4-15-53.22-6.16 2.51-11.96 5.82-17.83 8.91.25.23.77.69 1.03.92l-1.65-.62c2.49 11.64 8.21 22.73 7.84 34.87.04 3.15-.98 6.62-3.93 8.22-7.24 5.68-17.12 4.27-25.14 8.19 3.04 9.84 5.83 20.07 12.11 28.43 4.95 4.75 10.7 8.71 15.03 14.11 4.98 6.07 10.84 12.1 12.33 20.13 1.34 6.43-.9 12.76-2.42 18.94-.82 2.63.67 5.16 1.41 7.62 2.14 5.56 3.57 11.44 3.77 17.41.12 1.5-1.47 2.29-2.18 3.43-.08 6.36-1.46 12.6-1.84 18.93-.29 1.59-.17 3.39-.99 4.87-1.21 1.68-4.2.85-4.43-1.19-.53-4.26.11-8.55.1-12.81-.38-6.1-.96-12.31-3.02-18.1-3.61-8.23-10.18-14.57-15.44-21.71-8.32-9.37-16.23-19.1-24.48-28.53-.09.58-.26 1.75-.35 2.34-2.03 8.01-2.31 16.26-2.18 24.48-.09 3.04-4.94 2.48-4.91-.35-2.02-11.04-.22-22.22 1-33.24.7-9.92 3.9-19.39 5.95-29.06 1.05-5.13 2.76-10.1 3.69-15.24-.79-2.44-1.32-4.94-1.24-7.51-2.28-.48-5.01-.56-6.61-2.49-.95-4.03-1-8.29.06-12.29 2.31-8.6 5.35-16.98 8.21-25.41-3.71-3.43-7.5-7.24-8.29-12.48-17-1.85-34.05-3.21-50.95-5.83 6.2-2.97 13.15-5.33 17.65-10.8 6.64-8.76 10.75-19.08 16.67-28.29 3.95-5.73 8.24-11.27 11.35-17.52.88-1.78 2-3.44 3.28-4.95 4.69-2.13 9.86-2.6 14.85-3.64 3.51 5.09 6.33 10.64 10.14 15.53.8-3.9 2.15-7.74 2.16-11.75-.17-7.15 1.56-14.19 1.09-21.35 1.9-21.84 4.6-43.65 8.75-65.18.67-4.06 2.3-7.84 3.87-11.6 5.65-14.73 11.39-29.43 16.43-44.38m-24.47 305.79c2.19 5.18 4.94 10.11 6.96 15.38 2.71 7.48 6.45 14.51 9.55 21.84 1.35-4.88 2.65-10.21.57-15.08-3.51-8.77-10.01-16.05-17.08-22.14M265.73 525.38c8.89-2.72 14.71-10.51 22.55-15.03-.2 3.13-1.89 5.82-3.49 8.42-6.13 9.4-12.14 18.9-17.67 28.68 1.39.12 2.77.26 4.16.4-.75 7.17-2.56 14.15-3.53 21.29-2.86-1.18-5.38-2.98-8.1-4.41.81-5.16 1.76-10.29 2.99-15.37-17.11 2.83-34.84 2.86-51.74-1.28-2.1-.32-3.67-2.73-2.43-4.66 5.46-.96 11.11-.64 16.48-2.26 14.48-2.49 28.17-8.38 40.78-15.78M781.12 582.19c1.97-.85 3.99 1.54 3.46 3.41-.67 2.95-1.71 5.93-3.57 8.35-1.62 2.13-5.67.83-5.4-1.96.25-3.74 1.92-8.1 5.51-9.8"/></g><g fill="#6d6d6f"><path d="M1026.04 57.14c6.93-15.38 13.33-31.03 20.82-46.14 1.18 4.85 2.29 9.93 1.21 14.92-2.31 12.47-7.06 24.34-12.32 35.83-2.56 5.8-5.65 11.38-7.74 17.39-3.14 8.75-6.8 17.3-10.04 26.01 4.14-4.27 7.39-9.42 12.01-13.21 3.86-2.49 9.27 2.81 6.61 6.66-3.22 4.69-7.08 8.91-10.44 13.5-14.15 17.79-25.96 37.27-36.75 57.23-8.53 17.64-17.44 35.09-26.78 52.32-6.88 12.86-14.59 25.28-20.62 38.59.77-4.17 1.74-8.3 3.08-12.33 5.62-17.59 11.49-35.13 18.6-52.18 7.7-19.25 16.54-38 25.05-56.9 12.66-27.13 24.91-54.44 37.31-81.69M531.84 72.85c8.36-2.16 16.33-5.53 24.51-8.25 9.66 1.02 19.21 2.82 28.9 3.58-.3.45-.9 1.36-1.2 1.81 15.91 2.6 32.03 5.46 46.75 12.32 6.82 2.75 12.8 7.1 19.2 10.67 17.52 11.28 34.89 22.86 51.34 35.69 15.5 11.26 30.07 23.78 43.62 37.33 10.79 10.55 21.1 21.59 31.68 32.35.89 1 1.71 2.07 2.56 3.13-6.46.06-12.7 2.2-19.19 1.73-11.75.6-23.66-.17-35.22 2.4-13.51 3.24-27.14 6-40.48 9.9-17.11 4.07-33.37 10.87-50.23 15.75-14.48 5.5-29.06 10.9-42.7 18.31-13.51 7.48-27.48 14.14-40.68 22.17-16.52 9.19-32.99 18.59-48.41 29.58-3.9 2.8-7.65 5.86-11.86 8.2-13.43 7.21-26.86 14.62-38.82 24.12-5.9 4.84-13.05 7.68-19.55 11.55-12.97 7.41-25.13 16.09-37.48 24.45-4.34 2.85-8.32 6.34-13.2 8.26 1.56-8.56 1.58-17.26 1.44-25.92-.06-2.11-.62-4.15-1.19-6.16-1.16 5.2-1.36 10.66-3.48 15.61-1.96-10.72-.96-21.7-1.45-32.54-.15-2.35-1.42-4.55-1.09-6.93.92-7.32-.56-14.7.4-22.02 1.05-8.66 2.73-17.23 3.64-25.9.51-16.19 5.15-31.89 6.23-48.03 1.48-11.97 4.65-23.82 3.95-35.97-.46-3.36 2.14-5.73 4.02-8.12 7.71-9.58 15.73-18.93 24.05-27.99 4.75-5.72 10.35-10.82 14.2-17.23-2.53 1.52-4.71 3.51-6.78 5.59-8.71 8.35-16.63 17.46-24.42 26.65-2.76 3.18-5.09 6.74-8.25 9.56.6-1.91 1.25-3.81 2.06-5.64 8.6-19.2 17.11-38.47 24.32-58.24 3.17-1.8 6.31-3.63 9.36-5.62 16.1-8.65 31.46-18.64 47.8-26.85 5.97-2.83 11.34-6.8 17.55-9.14 4.65 2.67 10.01 3.62 15.28 4.03 7.84.36 15.32-2.32 22.82-4.19m-60.9 55.11c-13.15 19.99-24.11 41.43-31.98 64.04-1.47 6.49-3.94 12.69-5.97 19.02-6.18 18.45-10.98 37.32-16.5 55.97-2.77 10.56-5.79 21.1-7.15 31.96-.18 1.36-.03 2.74.09 4.1 5.76-24.3 13.37-48.09 20.34-72.05 4.23-14.75 9.37-29.21 13.31-44.04 1.96-8.68 6.69-16.36 10.46-24.33 12.05-21.95 25.71-43.07 41.46-62.57 2.98-3.8 6.35-7.52 8-12.14-12.91 11.39-22.49 25.88-32.06 40.04m60.51 18.74c-.36.05-1.06.16-1.42.22.41-3.04 1.52-5.95 1.66-9.03q.06-1.68-1.53-2.37c-1.92 0-2.5 2.02-3.2 3.39-3.84 8.68-6.82 17.72-9.26 26.88-1.16-5.67.09-11.52-.73-17.24-1.95 2.72-3.08 5.9-4.62 8.85-1.5-1.28-3.21-2.25-5.07-2.86-.15-1.23-.28-2.45-.4-3.68-3.62 5.25-6.06 11.1-8.05 17.13-2.57 4.75-4.67 9.81-7.71 14.27 0-2.15-.06-4.31-.02-6.46-1.25.52-2.49 1.03-3.74 1.52-.58 1.6-1.19 3.18-1.8 4.77-.43-1.03-.85-2.06-1.28-3.08-3.76 2.44-5.77 6.64-7.85 10.45-6.63 14.12-10.92 29.17-15.88 43.92-3.28 10.53-7.07 20.91-9.68 31.64-.99 4.19-3.2 7.91-5.07 11.73a468 468 0 0 1-16.98 30.99c-4.26 7.29-9.24 14.14-13.38 21.51-.14.64-.43 1.93-.58 2.58 4.26 1.7 7.42-2.31 10.72-4.29 7.44-4.73 14.54-9.96 21.46-15.43 3.04-2.55 6.99-3.57 10.21-5.86 5.77-4.01 11.54-8.07 17.74-11.42 5.47-3.17 11.61-4.86 17.28-7.62 2.57-1.93.23-5.9 2.57-8.13.45 6.04 3.14 11.59 5.81 16.93-.76-8.99-1.58-17.99-1.34-27.02-.87-17.85 1.88-35.55 4.85-53.09.12-.22.35-.66.47-.88.65-2.93.2-6.61 2.12-8.98.16.47.49 1.42.65 1.89-4.23 23.11-8.21 46.51-7.71 70.09-.13 2.24.55 4.57 2.45 5.95 2.08-2.81 2.65-6.31 3.31-9.65 1.41-.38 2.84-.75 4.27-1.11.4 1.48 1.12 3.44 3.07 2.58 1.78-2.6 2.26-5.76 2.83-8.78-.06 2.35-.27 4.69-.16 7.04.03 1.81 2.53 2.35 3.49.95 2.58-1.55 3.44-4.38 3.79-7.2 2.25-1.87 3.4-4.51 3.85-7.34l1.51-1.35c.52-5.01.19-10.05.38-15.07 1.09-24.2 4.92-48.13 8.26-72.09 1.31-8.99 3.1-17.94 3.75-27.02.28-2.69-.47-5.32-.7-7.98-.25-1.67.46-3.57-.61-5.03-3.56 4.37-5.48 9.69-7.73 14.78"/><path d="M508.01 205.06c-2.04-.52-1.01-4.23.46-1.83-.11.45-.35 1.37-.46 1.83M715.06 211.43c9.28-1.03 18.62-1.91 27.97-1.79 9.37-.05 18.7.95 28.05 1.34 16.98 2.04 34.01 4.4 50.64 8.44 23.81 8.52 47.41 17.77 70.24 28.68 9.5 5.63 18.74 11.72 27.72 18.16 7.41 5.22 14.96 10.3 21.89 16.15 6.23 6.44 12.7 12.65 18.62 19.38 7.94 10.55 15.06 21.7 22.16 32.83 2.79 4.2 4.4 9.01 6.49 13.57 3.5 7.79 7.18 15.69 8.31 24.25-3.6-5.59-5.73-11.95-9.05-17.69-8.76-15.93-18.69-31.35-30.93-44.84-7.34-8.09-15.84-14.99-24.72-21.29-13.13-11.53-26.94-22.55-42.53-30.58-6.92-3.76-15.02-4.27-21.94-7.99-11.51-5.84-24.08-9.07-36.69-11.45-4.91-.5-9.75-1.45-14.53-2.63-2.21-.53-4.47-.7-6.72-.82-10.67-.42-21.34-1.1-32.02-1.41-4.46-.17-8.72 1.3-12.98 2.37-17.67 5.08-36.07 9.27-51.84 19.11-11.79 6.58-20.93 16.72-30.75 25.78-1.17.62-2.35 1.19-3.44 1.92a244.5 244.5 0 0 0-38.82 37.27c-10.05 11.94-19.47 24.65-26.06 38.86-2.2 6.34-5.76 12.08-9.73 17.45-3.56 3.54-8.32 5.54-12.14 8.78-2.29 1.52-4.22 4.15-7.19 4.13-8.36.3-16.73.01-25.08-.36-10.98-.74-21.98-.33-32.97-.3-13.39.02-26.68-1.86-40.04-2.65-11.83-1.83-23.24-5.69-35.04-7.75-7.51-1.14-13.62-6.11-20.92-7.89 10.16-10.37 21.46-19.54 32.69-28.71 16.57-12.86 33.03-25.88 50.25-37.87 27.68-19.72 56.34-38.27 86.99-53.06 21.87-10.84 44.85-19.24 67.95-27.03 15.16-4.9 30.49-9.44 46.16-12.36M251.21 264.21c2.69-2.31 6.18-3.24 9.51-4.2.14 2.73.73 5.61-.33 8.23-2.46 6.39-7.8 10.93-12.38 15.78-4.88 4.67-9.5 10.11-16.14 12.26-2.71-.83-5.23-3.17-4.07-6.26 2.34-5.67 7.43-9.55 11.5-13.96 4-3.91 7.57-8.29 11.91-11.85M302.64 317.43a14.7 14.7 0 0 1 5.39.63c5.15 1.49 10.39 2.69 15.43 4.57-7.26 1.97-13.96 5.94-21.49 6.84-3.2.49-6.55-2.11-6.23-5.48-.07-3.81 3.95-5.39 6.9-6.56M668.99 416.27c12.48-3.65 25.56-4.95 38.52-4.98-13.35 2.65-26.61 5.81-39.68 9.63-16.92 5.15-33.3 11.88-49.73 18.39-5.52 1.96-11.09 3.76-16.55 5.89-.07-.22-.21-.64-.28-.85 6.33-2.87 12.12-6.78 18.48-9.59 16.04-7.09 32.33-13.76 49.24-18.49M820.98 419.16c8.63 2.18 17.36 4.34 25.36 8.34 16.37 7.53 32.41 17.92 41.86 33.69-6.37-4.7-11.65-10.76-18.06-15.44-8.49-6.52-17.91-11.74-27.65-16.13-7.36-3.09-14.29-7.08-21.51-10.46M631.46 472.21c4.02.33 7.74-1.48 11.56-2.41-1.03 1.6-2.05 3.19-3.1 4.78 1.88-.94 3.82-1.96 6-1.78 8.97-.06 18 .77 26.94-.39 3.29-.42 6.98-.63 9.72 1.61.45 2.07-1.27 3.72-2.16 5.42 1.62 2.54 2 5.53 2.19 8.48 8.1-1.68 16.24-3.22 24.53-3.62-2.1 2.12-3.7 4.89-6.27 6.47-16.89 5.27-34.63 6.87-51.75 11.16.12 2.02.27 4.06-.14 6.07-1.1 5.64-1.33 11.39-1.66 17.12-22.51 4.73-45.14 8.97-67.4 14.81-6.05 1.37-11.92 3.42-18.02 4.51-1.22-6.7-4.09-13.01-4.65-19.84-1.58-4.13-2.08-8.73-1.83-13.12 4.42-1.94 8.89-3.77 13.25-5.86 5.33-2.56 10.12-6.11 15.49-8.59 9.81-4.61 19.76-8.95 29.95-12.65 2.29-.79 4.43-1.92 6.48-3.21 4.67 7.15 9.21 14.53 15.56 20.34 1.42-.33 2.19-1.88 1.46-3.18-3.31-7.66-7.31-15.06-9.78-23.04 1.19-1.04 2.4-2.08 3.63-3.08M813.68 482.78c4.97-4.71 12-6.03 17.11-10.47 2.1 8.1 1.93 16.65 4 24.77l.96 1.12c5.28.8 10.64.94 15.96 1.51.49-5 .06-10.04.56-15.03 1.97 9.21 4.11 18.4 6.98 27.38l.56 1.86c-2.82-.74-5.61-1.55-8.34-2.54-2 6.18-4.51 12.16-7.19 18.07-12.86-2.53-25.79-4.7-38.71-6.88-7.46-1.27-15.1-1.74-22.31-4.17 3.28-3.96 6.76-7.8 10.8-11.01l-2.32.24c-1.42-2.44-.85-4.69 1.36-6.37.95 2.19 1.9 4.39 2.85 6.59 1.1-.49 2.2-1.02 3.28-1.58 1.65-6.27 2.47-12.76 4.73-18.86 2.18-2.25 4.34-4.71 7.21-6.08 1.31-.64 2.15-.15 2.51 1.45M780.22 563.77c2.22-.45 4.49-.39 6.66.36 7.76 2.39 15.98 2.64 23.81 4.75 2.38.93 5.76 1.02 7.24 3.27 1.36 2.65-2.31 2.67-3.94 2.88-7.56-.08-14.99-1.91-22.27-3.77-4.52-1.13-9.09-3.32-11.5-7.49M630.08 573.16c2.44-.65 4.87-1.35 7.37-1.78-1.06 2.71-3.96 3.72-6.37 4.86-6.68 2.5-13.87 3.17-20.93 3.58-8.04.4-15.85 3.29-23.96 2.52 1.69-2.11 4.38-2.66 6.85-3.33 12.13-3.13 24.76-3.56 37.04-5.85"/><path d="M265.57 595.06c-.13 5.01-.99 9.94-1.71 14.89-.83 12.36-1.23 24.76-2.11 37.13-.66 12.3.27 24.65-.78 36.92-5.09-3.3-4.72-9.69-5.47-14.99-.49-9.29.41-18.61-.3-27.88 1.82-11.16 4.25-22.22 7.29-33.11 1.41-4.22 2.3-8.58 3.08-12.96M293.1 667.63c2.07 1.99 3.95 4.17 5.62 6.52-16.25 30.9-28.24 64.15-34.15 98.6-1.17 6.77-10.08 10.3-15.54 6.08-5.06-3.13-4.12-9.91-3.01-14.86 1.65-9.79 4.22-19.4 7.1-28.89.85-3.37 1.79-6.73 3.04-9.98 1.14-4.09 2.71-8.04 3.8-12.14-.74 14.02-2.63 27.98-2.67 42.04.16.78.49 2.34.65 3.13 1.73-4.87 1.78-10.09 2.64-15.13.36 7.73-.56 15.49.09 23.2.63 0 1.88-.01 2.51-.01 1.31-3.95 1.73-8.12 2.68-12.16 6.06-29.66 16.05-58.34 27.24-86.4" opacity=".3"/><path d="M660.58 710.66c.73-1.27 1.21-2.81 2.41-3.72 2.54.16 5.07.54 7.59.97-.25.15-.75.46-.99.62-4.34 6.65-8.24 13.59-12.15 20.51-2.18 3.9-4.8 7.51-7.32 11.19-3.11 5-5.78 10.25-8.59 15.42.57-.04 1.72-.11 2.29-.15-.02.51-.05 1.54-.07 2.05-.72.02-2.16.05-2.88.07-1.91 4.19-6.79 9.07-3.15 13.69 3.39 2.73 8.02 2.52 12.11 3.02 2.62 6.71 4.21 13.75 6.49 20.58.34 2.2 3.11 1.83 4.75 2.33 2.05.05 5.08 1.24 6.15-1.26-.54-4.86-2.96-9.31-3.38-14.22 5.4 11.11 12.21 21.43 18.01 32.32 5.13 9.03 9.1 18.67 14.59 27.49 1.95 3.11 3.37 6.55 5.56 9.52 4.54 4.27 9.36 8.53 15.4 10.52 8.64 4.17 18.33 4.59 27.68 5.73 24.1 2.94 48 7.29 72.05 10.61 24.78 3.53 49.54 7.37 74.49 9.55l-.36-1.44c4.14 16.3 8.96 32.41 12.86 48.77.68 3.34.31 6.8.84 10.17.02 1.58 1.87 1.84 2.9 2.61-.22 5.21-.63 10.43-1.68 15.56-27.77 31.47-54.81 63.6-81.66 95.86-13.8 16.57-27.27 33.41-41.12 49.94-1.13-1.46-2.26-2.91-3.4-4.34-.66-3.63-.72-7.36-1.67-10.92-2.76-7.36-6.8-14.24-12.1-20.05 2.76-8.23 4.62-16.74 7.4-24.97 8.97-27.94 18.23-55.79 28.22-83.38-15.74-10.04-31.66-19.79-47.15-30.22-15.06-10.32-30.3-20.59-43.57-33.2-4.55-3.82-9.33-7.36-13.77-11.29-5.28-4.78-11.32-8.56-16.9-12.94-6.34-4.75-12.32-9.96-18.93-14.33-5.3-4.72-11.26-8.64-16.45-13.49-7.06-6.3-13.28-13.51-18.47-21.42-2.45-4.76-3.42-10.08-4.82-15.2-1.5-6.18-3.7-12.24-4.15-18.63 5.63-17.45 14.89-33.41 23.66-49.42-.34-.18-1.03-.54-1.37-.72l2.06-.12c3.58-5.99 7.19-11.99 10.39-18.19 2.38-5.35 5.7-10.2 8.2-15.48"/><path d="M287.05 765.06c6.25-3.52 12-7.85 17.7-12.19.39 1.62 1.68 3.56.37 5.12-3.14 4.04-5.82 8.41-8.22 12.94-.92.91-.43 2.61 1.01 2.66-4.01.77-9.74 1.94-12.54-1.85-.22-2.27-.98-5.6 1.68-6.68" opacity=".3"/><path d="M912.45 888.77c5.86.21 11.73.47 17.61.51 6.97.13 14.08-.72 20.89 1.27 3.99.75 8.2 3.14 9.23 7.36-.15 3.41-2.27 6.31-4.49 8.74-14.31 15.99-28.25 32.32-42.65 48.23 1.53-22.01 1.15-44.13-.59-66.11M819.19 1311.99c.72 4.55-.1 9.26 1.04 13.74-.31.5-.61 1.01-.91 1.54-.01-2.29-.09-4.55-.38-6.79.3-2.83.53-5.67.25-8.49"/></g><g fill="#2d2c31"><path d="M524.93 50.95c2.44-1.69 5.48-.68 7.99.3 8.34 3.42 16.21 7.96 23.43 13.35-8.18 2.72-16.15 6.09-24.51 8.25-7.5 1.87-14.98 4.55-22.82 4.19-5.27-.41-10.63-1.36-15.28-4.03 1.14-.55 2.29-1.1 3.28-1.92 8.45-7.8 17.96-14.4 27.91-20.14M585.25 68.18c5.64.57 11.22 1.62 16.87 2.19 8.94.73 17.92 1.15 26.81 2.45 10.99 1.74 22.15 2.03 33.15 3.7 12.82 1.61 25.45 4.43 37.84 8.04 7.98-3.38 15.76-7.51 24.42-8.89.66 1.19 1.34 2.39 2 3.59 11.95 21.78 26.72 41.86 42.21 61.23 20.69 25.52 42.72 49.94 64.8 74.24 6.78 2.08 13.69 3.86 20.27 6.6 7.89 3.35 16.08 5.9 24 9.17 6.21 2.38 12.12 5.54 18.49 7.52 16.35 5.5 30.55 15.7 43.93 26.33.16-.33.48-1 .65-1.33l-.55 1.2c14.77 12.83 28.19 27.35 38.73 43.88 7.08 11.51 14.25 23.05 19.5 35.56 3.47 6.1 5.35 12.93 6.28 19.86.78 6.17 2.2 12.32 2.02 18.57.11 1.74-1.31 2.95-2.16 4.29l-.87 3.3c-2.33-5.69-4.58-11.4-6.49-17.24-1.13-8.56-4.81-16.46-8.31-24.25-2.09-4.56-3.7-9.37-6.49-13.57-7.1-11.13-14.22-22.28-22.16-32.83-5.92-6.73-12.39-12.94-18.62-19.38-6.93-5.85-14.48-10.93-21.89-16.15-8.98-6.44-18.22-12.53-27.72-18.16-22.83-10.91-46.43-20.16-70.24-28.68-16.63-4.04-33.66-6.4-50.64-8.44-9.35-.39-18.68-1.39-28.05-1.34-9.35-.12-18.69.76-27.97 1.79-15.67 2.92-31 7.46-46.16 12.36-23.1 7.79-46.08 16.19-67.95 27.03-30.65 14.79-59.31 33.34-86.99 53.06-17.22 11.99-33.68 25.01-50.25 37.87-11.23 9.17-22.53 18.34-32.69 28.71 7.3 1.78 13.41 6.75 20.92 7.89 11.8 2.06 23.21 5.92 35.04 7.75 13.36.79 26.65 2.67 40.04 2.65 10.99-.03 21.99-.44 32.97.3 8.35.37 16.72.66 25.08.36 2.97.02 4.9-2.61 7.19-4.13 3.82-3.24 8.58-5.24 12.14-8.78 3.97-5.37 7.53-11.11 9.73-17.45 6.59-14.21 16.01-26.92 26.06-38.86a244.5 244.5 0 0 1 38.82-37.27c1.09-.73 2.27-1.3 3.44-1.92-13.93 13.58-27.1 27.97-39.25 43.17-12.41 15.83-24.02 32.29-34.91 49.2-2.96 4.62-5.9 10.37-12.06 10.94-.93 2.21-1.7 4.69-3.74 6.15-3.07 2.47-7.23 2.14-10.91 2.57-1.06.07-2.11.16-3.16.24-12.25.86-24.55.86-36.82.5-2.08-.11-4.15-.22-6.22-.3-22.86-1.41-45.75-2.94-68.45-6.04-14.27-2.75-28.53-6.22-41.81-12.24l-1.47-.62c-3.28 2.4-5.87 5.56-8.75 8.39-7.83 7.88-16.57 14.89-23.61 23.52-6.88 8.11-15.75 14.08-23.91 20.76-7.32 6.43-13.42 14.07-20.03 21.19-13.01 13.97-26 27.95-38.99 41.94-6.54 6.8-12.62 14.15-20.08 19.98-7.84 4.52-13.66 12.31-22.55 15.03-4.24 1.06-9.23-1.74-9.3-6.41 1.23-3.4 3.38-6.35 4.92-9.6 2.29-5.13 6.39-9.1 9.22-13.92-6.27-5.02-13.17-9.66-17.34-16.72-1.09-1.25.01-2.64.9-3.56 4.36.62 8.73.93 13.12.49 4.42.99 8.58 2.79 12.89 4.17 1.37.56 2.83-.09 4.24-.2 6.32-16.83 16.19-32.03 25.48-47.34 7.17-11.83 15.25-23.08 23.1-34.46-2.14-.19-6.74.79-6.3-2.79 1.67-11.15 4.53-22.09 6.76-33.14-1.11-5.73-3.63-11.08-5.76-16.48-1.38-.22-3.05.07-4.08-1.09-.95-1.33-.29-2.96.09-4.37 1.74-5.32 3.58-10.61 5.42-15.9 1.36-3.63 2.73-7.26 4.26-10.82 1.39-3.45 5.86-4.44 6.94-8.12 2.11-5.53 4.85-10.79 7.15-16.22 5.42-25.79 14.28-50.7 23.03-75.51 10.12-27.66 20.68-55.2 32.48-82.19-1.28.68-2.55 1.39-3.8 2.12-.66-1.15-1.36-2.26-1.88-3.47-.29-1.81 1.64-2.73 2.82-3.68 6.29-3.89 12.52-7.88 18.94-11.55-7.21 19.77-15.72 39.04-24.32 58.24-.81 1.83-1.46 3.73-2.06 5.64 3.16-2.82 5.49-6.38 8.25-9.56 7.79-9.19 15.71-18.3 24.42-26.65 2.07-2.08 4.25-4.07 6.78-5.59-3.85 6.41-9.45 11.51-14.2 17.23a567 567 0 0 0-24.05 27.99c-1.88 2.39-4.48 4.76-4.02 8.12.7 12.15-2.47 24-3.95 35.97-1.08 16.14-5.72 31.84-6.23 48.03-.91 8.67-2.59 17.24-3.64 25.9-.96 7.32.52 14.7-.4 22.02-.33 2.38.94 4.58 1.09 6.93.49 10.84-.51 21.82 1.45 32.54 2.12-4.95 2.32-10.41 3.48-15.61.57 2.01 1.13 4.05 1.19 6.16.14 8.66.12 17.36-1.44 25.92 4.88-1.92 8.86-5.41 13.2-8.26 12.35-8.36 24.51-17.04 37.48-24.45 6.5-3.87 13.65-6.71 19.55-11.55 11.96-9.5 25.39-16.91 38.82-24.12 4.21-2.34 7.96-5.4 11.86-8.2 15.42-10.99 31.89-20.39 48.41-29.58 13.2-8.03 27.17-14.69 40.68-22.17 13.64-7.41 28.22-12.81 42.7-18.31 16.86-4.88 33.12-11.68 50.23-15.75 13.34-3.9 26.97-6.66 40.48-9.9 11.56-2.57 23.47-1.8 35.22-2.4 6.49.47 12.73-1.67 19.19-1.73-.85-1.06-1.67-2.13-2.56-3.13-10.58-10.76-20.89-21.8-31.68-32.35-13.55-13.55-28.12-26.07-43.62-37.33-16.45-12.83-33.82-24.41-51.34-35.69-6.4-3.57-12.38-7.92-19.2-10.67-14.72-6.86-30.84-9.72-46.75-12.32.3-.45.9-1.36 1.2-1.81"/><path d="M470.94 127.96c9.57-14.16 19.15-28.65 32.06-40.04-1.65 4.62-5.02 8.34-8 12.14-15.75 19.5-29.41 40.62-41.46 62.57-3.77 7.97-8.5 15.65-10.46 24.33-3.94 14.83-9.08 29.29-13.31 44.04-6.97 23.96-14.58 47.75-20.34 72.05-.12-1.36-.27-2.74-.09-4.1 1.36-10.86 4.38-21.4 7.15-31.96 5.52-18.65 10.32-37.52 16.5-55.97 2.03-6.33 4.5-12.53 5.97-19.02 7.87-22.61 18.83-44.05 31.98-64.04M449.15 609.51c.74-2.51 1.62-5.06 3.74-6.75 3.09 1.88 6.21 3.72 9.33 5.57-.75 2.27-1.69 4.47-2.75 6.61 2.6 1.48 5.04 3.91 4.17 7.22-.49.84-.95 1.71-1.41 2.58-1.3 3.96-5.86 4.18-8.99 2.33-1.17 2.38-2.36 4.75-3.56 7.12-1.53 2.48-2.49 6.04-5.68 6.84-3.45 1.06-7.22-2.43-6.43-5.96.9-2.59 2.4-4.9 3.66-7.31.99-1.87 1.94-3.75 2.89-5.63-2.61-1.19-5.22-2.41-7.73-3.81q-.525-.72-1.02-1.41c1.99-3.62 3.68-7.39 5.5-11.09 2.73 1.28 5.49 2.52 8.28 3.69M347.53 680.39c.41.38.83.78 1.26 1.18-1.26 2.71-2.52 5.48-2.77 8.51l-.77.61c.17-3.55 1.18-6.96 2.28-10.3M368.94 701.55c1.62-6.81 2.29-13.8 2.95-20.75 8.49 1.41 17.05 2.53 25.64 3.1 7.23.56 14.48.7 21.72 1.06-4.87 1.36-8.79 4.58-12.68 7.64-6.66 4.09-14.57 5.31-22.15 6.65-5.16.75-10.25 2.04-15.48 2.3M422.06 690.3c4.06-1.59 8.07-3.36 12.29-4.5 16.9 2.62 33.95 3.98 50.95 5.83.79 5.24 4.58 9.05 8.29 12.48-2.86 8.43-5.9 16.81-8.21 25.41-1.06 4-1.01 8.26-.06 12.29 1.6 1.93 4.33 2.01 6.61 2.49-.08 2.57.45 5.07 1.24 7.51-.93 5.14-2.64 10.11-3.69 15.24-2.05 9.67-5.25 19.14-5.95 29.06-9.57-13.51-18.74-27.3-28.58-40.61-15.81 35.43-30.76 71.24-46.85 106.55-14.96 33.82-31.35 67.04-49.88 99.05-14.44 25.39-30.48 49.81-44.77 75.28-2.49 4.21-4.4 8.79-7.47 12.64-1.68 2.08-4.33 2.94-6.86 3.41-7.41-.23-14.72-1.7-21.72-4.07-9.36-3.02-18.99-5.48-27.67-10.22-11.63-6.14-23.21-12.43-34.15-19.74-12.25-8.23-22.95-18.46-34.89-27.1-9.92-7.33-19.71-14.85-28.89-23.09-13.31-11.65-26.43-23.58-38.01-36.97-7.35-9.04-12.95-19.31-18.23-29.64-2.72-6.08 2-12.4 7.76-14.26 18.94-8.96 38.83-15.67 58.65-22.38 10.28-3.54 20.92-5.93 31.08-9.81 17.88-6.38 35.9-12.38 53.9-18.41 3-.97 5.26-3.26 7.6-5.26 27.05-24.6 53.55-49.79 81.22-73.69 1.83-1.5 3.46-3.24 4.89-5.13 3.63-2.24 6.33-5.56 9.28-8.57 3.35-3.7 7.4-6.88 9.97-11.21 2.55-6.03 5.05-12.13 6.52-18.53 16.35-3.07 31.37-10.58 46.24-17.73 3.66-1.35 5.66-5.14 9.39-6.32M594.73 695.44c11.43 5.37 22.62 11.26 33.94 16.88 8.24 4.01 15.87 9.09 23.71 13.82-3.2 6.2-6.81 12.2-10.39 18.19l-2.06.12c-12.49-6.92-25.65-12.45-38.57-18.47-3.27-9.95-4.48-20.34-6.63-30.54M521.25 700.07l1.65.62c6.29 2.12 13.23 4.54 16.79 10.6 6.06 15.01 11.76 30.19 18.22 45.05 5.33 12.64 8.78 25.95 14 38.63 5.19 14.2 11.01 28.15 16.64 42.17 5.43 14.03 10.16 28.38 16.06 42.2 24.56 33.87 50.58 66.67 76.49 99.52 11.47 13.81 21.56 28.93 35.08 40.89 17.78 16.92 34.36 35.05 50.05 53.91 5.3 5.81 9.34 12.69 12.1 20.05.95 3.56 1.01 7.29 1.67 10.92 2.84 18.05 6.32 36 10.46 53.8 5.65 24.79 12.35 49.35 16.78 74.4 2.07 11.05 3.52 22.22 5.86 33.22 3.26 15.13 4.69 30.56 6.09 45.94.28 2.82.05 5.66-.25 8.49-5.59-12.3-10.33-24.99-16.13-37.21-7.7-17.15-17.47-33.24-26.47-49.71-9.26-16.44-19.07-32.56-29.3-48.42-5.58-9.38-12.3-17.98-18.8-26.72-6.96-9.26-13.88-18.55-20.94-27.73-22.51-29.34-45.66-58.21-69.81-86.23-10.69-12.27-21.41-24.56-33.23-35.77-4.9-5.09-11.64-9.19-13.5-16.45-8.25-28.17-20.7-54.86-33.97-80.95-6.05-10.39-11.96-20.89-18.56-30.94.38-6.33 1.76-12.57 1.84-18.93.71-1.14 2.3-1.93 2.18-3.43-.2-5.97-1.63-11.85-3.77-17.41-.74-2.46-2.23-4.99-1.41-7.62 1.52-6.18 3.76-12.51 2.42-18.94-1.49-8.03-7.35-14.06-12.33-20.13-4.33-5.4-10.08-9.36-15.03-14.11-6.28-8.36-9.07-18.59-12.11-28.43 8.02-3.92 17.9-2.51 25.14-8.19 2.95-1.6 3.97-5.07 3.93-8.22.37-12.14-5.35-23.23-7.84-34.87M650.12 740.23c2.52-3.68 5.14-7.29 7.32-11.19 3.03 2.07 2.93 6.15 2.14 9.34-1.38 3.78-3.81 7.35-7.37 9.38 1.34 3.99 1.79 8.46 4.07 12.04 3.47 2.24 8.02 2.09 11.43 4.47 2.15 2.27 1.81 5.77 1.68 8.67-.51 3.5-4.32 4.23-7.24 4.25.56 1.52 1.12 3.04 1.69 4.57.42 4.91 2.84 9.36 3.38 14.22-1.07 2.5-4.1 1.31-6.15 1.26-1.64-.5-4.41-.13-4.75-2.33-2.28-6.83-3.87-13.87-6.49-20.58-4.09-.5-8.72-.29-12.11-3.02-3.64-4.62 1.24-9.5 3.15-13.69.72-.02 2.16-.05 2.88-.07.02-.51.05-1.54.07-2.05-.57.04-1.72.11-2.29.15 2.81-5.17 5.48-10.42 8.59-15.42"/><path d="M516.12 787.66c7.07 6.09 13.57 13.37 17.08 22.14 2.08 4.87.78 10.2-.57 15.08-3.1-7.33-6.84-14.36-9.55-21.84-2.02-5.27-4.77-10.2-6.96-15.38M489.97 802.88c8.25 9.43 16.16 19.16 24.48 28.53 5.26 7.14 11.83 13.48 15.44 21.71 2.06 5.79 2.64 12 3.02 18.1-13.81-22.4-28.03-44.57-43.29-66 .09-.59.26-1.76.35-2.34"/></g><g fill="#fbf7f7"><path d="M531.45 146.7c2.25-5.09 4.17-10.41 7.73-14.78 1.07 1.46.36 3.36.61 5.03.23 2.66.98 5.29.7 7.98-.65 9.08-2.44 18.03-3.75 27.02-3.34 23.96-7.17 47.89-8.26 72.09-.19 5.02.14 10.06-.38 15.07l-1.51 1.35c-.45 2.83-1.6 5.47-3.85 7.34-.35 2.82-1.21 5.65-3.79 7.2-.96 1.4-3.46.86-3.49-.95-.11-2.35.1-4.69.16-7.04-.57 3.02-1.05 6.18-2.83 8.78-1.95.86-2.67-1.1-3.07-2.58-1.43.36-2.86.73-4.27 1.11-.66 3.34-1.23 6.84-3.31 9.65-1.9-1.38-2.58-3.71-2.45-5.95-.5-23.58 3.48-46.98 7.71-70.09.2-.96.4-1.92.61-2.87.11-.46.35-1.38.46-1.83 2.56-12.61 6.4-24.9 9.23-37.44 2.44-9.16 5.42-18.2 9.26-26.88.7-1.37 1.28-3.39 3.2-3.39q1.59.69 1.53 2.37c-.14 3.08-1.25 5.99-1.66 9.03.36-.06 1.06-.17 1.42-.22"/><path d="M502.28 220.88c.39-1.74 1.04-3.41 1.88-4.98-2.97 17.54-5.72 35.24-4.85 53.09-.24 9.03.58 18.03 1.34 27.02-2.67-5.34-5.36-10.89-5.81-16.93-1.12-7.79-.99-15.73-.12-23.54 1.98-11.66 4.71-23.18 7.56-34.66M133.05 236.13c8.78 1.41 17.12 4.64 25.57 7.32 10.78 3.71 21.83 6.56 32.65 10.18 15.02 4.91 30.78 7.58 45.3 13.94 3.53 1.34 2.84 5.52 2.73 8.49-4.07 4.41-9.16 8.29-11.5 13.96-1.16 3.09 1.36 5.43 4.07 6.26 6.26 2.04 12.79 3.11 19.15 4.84 11.01 2.54 21.83 5.85 32.6 9.21 6.07 3.1 12.88 4.21 19.02 7.1-2.95 1.17-6.97 2.75-6.9 6.56-.32 3.37 3.03 5.97 6.23 5.48 7.53-.9 14.23-4.87 21.49-6.84 1.87.5 3.75.97 5.63 1.43-1.84 5.29-3.68 10.58-5.42 15.9-.38 1.41-1.04 3.04-.09 4.37 1.03 1.16 2.7.87 4.08 1.09 2.13 5.4 4.65 10.75 5.76 16.48-2.23 11.05-5.09 21.99-6.76 33.14-.44 3.58 4.16 2.6 6.3 2.79-7.85 11.38-15.93 22.63-23.1 34.46-20.92-7.2-40.8-17.06-60.73-26.58-12.5-6.26-24.66-13.19-36.84-20.04-10.19-4.75-19.84-11.14-26.97-19.95-4.63-4.95-7.29-11.3-11.61-16.47-1.31-1.66-2.5-3.41-3.64-5.18 2.09.71 4.18 1.44 6.29 2.11-5.73-7.6-15.3-13.53-16.31-23.77q2.535.195 5.07.36c-8.33-7.4-18.37-12.71-26.29-20.63-5.38-5.61-12.07-10.52-14.9-18.04 2.84.78 5.62 1.75 8.4 2.72-1.39-2.28-3.07-4.35-4.66-6.48-1.49-2.04-1.82-4.67-3.2-6.76-3.25-3.76-7.86-6.36-10.35-10.76.13-3.07 2.66-7.97 6.44-6.27 3.96 1.5 7.61 3.71 11.45 5.48.8-.93 1.61-1.86 2.42-2.78 2.15.59 4.31 1.19 6.46 1.8-.18-1.75-.04-3.61-.7-5.27-1.74-2.48-4.33-4.37-5.55-7.21-.56-4.14-1.15-8.28-1.59-12.44M567.36 417.36c3.6-6.54 5.63-14.06 10.71-19.69 1 5.81 3.64 11.14 5.88 16.54 4.55 10.54 10.62 20.29 16.68 30.01-1.23.86-2.43 1.72-3.63 2.6 1.57-.35 3.15-.7 4.74-1.04 1.52 4.6 4.34 8.6 6.45 12.93 3.86 7.63 7.71 15.29 12.4 22.46-2.05 1.29-4.19 2.42-6.48 3.21-10.19 3.7-20.14 8.04-29.95 12.65-5.37 2.48-10.16 6.03-15.49 8.59-4.36 2.09-8.83 3.92-13.25 5.86-1.39-5.06-1.46-10.33-2.03-15.51-1.24-12.73-1.96-25.51-2.86-38.26 1.27-8.44 5.39-16.03 8.86-23.71 3.42-5.15 4.95-11.27 7.97-16.64M822.19 426.05c1.65.19 3.37.17 4.97.76.64 1.99.44 4.12.51 6.19-.31 13.19 2.56 26.17 3.12 39.31-5.11 4.44-12.14 5.76-17.11 10.47-.36-1.6-1.2-2.09-2.51-1.45-2.87 1.37-5.03 3.83-7.21 6.08 2.27-11.26 5.94-22.15 9.34-33.11 2.73-9.49 5.64-18.93 8.89-28.25"/><path d="M682.91 438.62c5.14 8.4 8.01 17.98 13.02 26.48 23.32-1.95 46.74 1.89 70.03-.87 2.23-.1 4.61-.89 6.81-.18 2.71 3.47 4.58 7.51 6.89 11.26 4.75 8.5 9.85 16.86 13.44 25.95-2.21 1.68-2.78 3.93-1.36 6.37l2.32-.24c-4.04 3.21-7.52 7.05-10.8 11.01-2.08 4.99-2.85 10.39-3.37 15.74-.84 8.59-1.39 17.24-.86 25.87.01 1.34.56 2.59 1.19 3.76 2.41 4.17 6.98 6.36 11.5 7.49 7.28 1.86 14.71 3.69 22.27 3.77 1.63-.21 5.3-.23 3.94-2.88-1.48-2.25-4.86-2.34-7.24-3.27 3.77-1.8 8.12-2.96 10.95-6.25 9.06-9.88 17.13-20.91 22.64-33.18 2.68-5.91 5.19-11.89 7.19-18.07 2.73.99 5.52 1.8 8.34 2.54l-.56-1.86c.99 3.26 2.28 6.42 3.76 9.49-7.3 15.56-9.42 32.75-12.23 49.51-1.41 8.24-.63 16.63-1.61 24.91-1.01 8.79-2.88 17.48-5.36 25.98-1.9 6.67-6.68 11.91-9.92 17.92-1.67 2.93-2.92 6.27-5.68 8.38-5.02 4.04-9.83 8.53-15.83 11.09-11.97 5.41-22.82 12.92-33.41 20.6-13.05 9.54-25.57 19.78-37.81 30.32-2.04 1.72-4.31 3.45-7.1 3.49-13.57 1.46-26.99-2.12-39.9-5.88-11.7-3.05-23.4-6.14-34.84-10.09-6.28-2.21-12.92-3.07-19.35-4.73-16.18-3.82-32.02-9.08-48.37-12.13-3.39-12.25-5.59-24.79-8.21-37.22-1.76-9.55-4.1-19.02-5.25-28.67 19.25 25.57 42.79 48.39 70.95 63.92 1.17.57 2.49.65 3.76.92.12-1.87-.5-3.59-2.12-4.61-21.38-17.03-38.26-38.85-53.89-61.09-9.62-13.94-18.69-28.29-26.75-43.19-2.13-4.21-4.73-8.47-4.69-13.34 2.85 8.1 6.84 15.93 12.89 22.12 2.08 2.05 5.17 2.21 7.9 2.58 8.11.77 15.92-2.12 23.96-2.52 7.06-.41 14.25-1.08 20.93-3.58 2.41-1.14 5.31-2.15 6.37-4.86-2.5.43-4.93 1.13-7.37 1.78l-1.13-.36c5.31-1.66 10.59-4.45 13.36-9.51 2.65-4.24 3.43-9.31 3.52-14.22.11-8.01 1.19-15.95 1.49-23.95.33-5.73.56-11.48 1.66-17.12.41-2.01.26-4.05.14-6.07 17.12-4.29 34.86-5.89 51.75-11.16 2.57-1.58 4.17-4.35 6.27-6.47-8.29.4-16.43 1.94-24.53 3.62-.19-2.95-.57-5.94-2.19-8.48.89-1.7 2.61-3.35 2.16-5.42-2.74-2.24-6.43-2.03-9.72-1.61-8.94 1.16-17.97.33-26.94.39-2.18-.18-4.12.84-6 1.78 1.05-1.59 2.07-3.18 3.1-4.78 4.05-1.04 7.97-2.66 12.14-3.25 6.62-.49 13.28-.24 19.92-.56 2.96-.2 6.59-1.1 7.82-4.15.91-1.85.59-3.94.43-5.9-.67-5.74-.9-11.55-.42-17.32m98.21 143.57c-3.59 1.7-5.26 6.06-5.51 9.8-.27 2.79 3.78 4.09 5.4 1.96 1.86-2.42 2.9-5.4 3.57-8.35.53-1.87-1.49-4.26-3.46-3.41m-23.75 53.3c-4.52 1.62-8.06 5.15-11.44 8.44-2.41 2.9-5.45 5.85-5.79 9.81.61-.03 1.82-.08 2.43-.1 5.2-5.86 11.22-10.87 17.46-15.58 1.84-1.57-1.04-3.49-2.66-2.57M625.23 461.1c2.22 3.61 4.43 7.26 6.23 11.11-1.23 1-2.44 2.04-3.63 3.08-1.09-4.69-2.22-9.39-2.6-14.19M418.62 468.61c16.48-.46 32.66 3.44 49.03 4.76 3.96 7.58 7.33 15.45 10.71 23.31 3.27 8.62 7.17 17.17 8.3 26.41 1.34 11.19.91 22.58-1.14 33.65-.85 3.54-1.93 7.02-2.59 10.61-1.12 2.47-2.09 5.02-2.69 7.68-1.83 7.79-4.36 15.39-7.08 22.91-2.81 7.8-4.53 16.05-8.41 23.42l-1.11.8c.87-3.31-1.57-5.74-4.17-7.22 1.06-2.14 2-4.34 2.75-6.61-3.12-1.85-6.24-3.69-9.33-5.57-2.12 1.69-3 4.24-3.74 6.75-2.79-1.17-5.55-2.41-8.28-3.69-1.82 3.7-3.51 7.47-5.5 11.09-3.61-4.71-5.85-10.25-8.95-15.27-11.84-20.49-23.07-41.32-33.5-62.56-1.22-2.98-4.31-6.14-2.31-9.45 7.68-17.59 14.75-35.47 23.34-52.65 1.49-2.81 2.46-6.01 4.67-8.37M498.24 594.3c.69-1.3 1.65-2.43 2.56-3.58 1.63 11.6 4.56 23.07 9.65 33.66-.01 4.01-1.36 7.85-2.16 11.75-3.81-4.89-6.63-10.44-10.14-15.53-4.99 1.04-10.16 1.51-14.85 3.64.29-1.26.59-2.54 1.21-3.67 4.69-8.7 9.26-17.46 13.73-26.27M441.23 627.76c-2.07-2.89-4.19-5.87-4.84-9.44 2.51 1.4 5.12 2.62 7.73 3.81-.95 1.88-1.9 3.76-2.89 5.63M462.23 624.74l1.55-.42c-.49 1.95-1 3.91-1.53 5.86-4.1 1.62-8.25 3.12-12.57 4.01 1.2-2.37 2.39-4.74 3.56-7.12 3.13 1.85 7.69 1.63 8.99-2.33M601.36 725.98c12.92 6.02 26.08 11.55 38.57 18.47.34.18 1.03.54 1.37.72-8.77 16.01-18.03 31.97-23.66 49.42-4.17-11.86-6.52-24.3-8.78-36.65-2.15-10.74-5.05-21.3-7.5-31.96M629.46 840.57c-1.07-4.02-2.98-7.91-2.85-12.15 5.19 7.91 11.41 15.12 18.47 21.42 5.19 4.85 11.15 8.77 16.45 13.49 6.61 4.37 12.59 9.58 18.93 14.33 5.58 4.38 11.62 8.16 16.9 12.94 4.44 3.93 9.22 7.47 13.77 11.29 13.27 12.61 28.51 22.88 43.57 33.2-24.72 14.28-49.32 28.75-73.6 43.77-25.91-32.85-51.93-65.65-76.49-99.52-5.9-13.82-10.63-28.17-16.06-42.2l.41-1.46c7.81 10.84 15.43 21.92 24.94 31.39 3.15 2.79 3.91 7.07 5.35 10.82 2.72 7.32 5.51 14.62 7.97 22.03.81 2.03 1.35 4.34 2.97 5.93 5.3.33 12.2-.54 14.91-5.83 1.77-2.93-.09-6.17-.93-9.07-4.75-16.84-9.8-33.59-14.71-50.38"/></g><g fill="#afabab"><path d="M512.35 157.4c1.54-2.95 2.67-6.13 4.62-8.85.82 5.72-.43 11.57.73 17.24-2.83 12.54-6.67 24.83-9.23 37.44-1.47-2.4-2.5 1.31-.46 1.83-.21.95-.41 1.91-.61 2.87-.16-.47-.49-1.42-.65-1.89-1.92 2.37-1.47 6.05-2.12 8.98-.12.22-.35.66-.47.88-.84 1.57-1.49 3.24-1.88 4.98-2.85 11.48-5.58 23-7.56 34.66-.87 7.81-1 15.75.12 23.54-2.34 2.23 0 6.2-2.57 8.13-5.67 2.76-11.81 4.45-17.28 7.62-6.2 3.35-11.97 7.41-17.74 11.42-3.22 2.29-7.17 3.31-10.21 5.86-6.92 5.47-14.02 10.7-21.46 15.43-3.3 1.98-6.46 5.99-10.72 4.29.15-.65.44-1.94.58-2.58 4.14-7.37 9.12-14.22 13.38-21.51a468 468 0 0 0 16.98-30.99c1.87-3.82 4.08-7.54 5.07-11.73 2.61-10.73 6.4-21.11 9.68-31.64 4.96-14.75 9.25-29.8 15.88-43.92 2.08-3.81 4.09-8.01 7.85-10.45.43 1.02.85 2.05 1.28 3.08.61-1.59 1.22-3.17 1.8-4.77 1.25-.49 2.49-1 3.74-1.52-.04 2.15.02 4.31.02 6.46 3.04-4.46 5.14-9.52 7.71-14.27 1.99-6.03 4.43-11.88 8.05-17.13.12 1.23.25 2.45.4 3.68 1.86.61 3.57 1.58 5.07 2.86M816.76 235.97c4.78 1.18 9.62 2.13 14.53 2.63 12.61 2.38 25.18 5.61 36.69 11.45 6.92 3.72 15.02 4.23 21.94 7.99 15.59 8.03 29.4 19.05 42.53 30.58 8.88 6.3 17.38 13.2 24.72 21.29 12.24 13.49 22.17 28.91 30.93 44.84 3.32 5.74 5.45 12.1 9.05 17.69 1.91 5.84 4.16 11.55 6.49 17.24-14.43 8.21-30.97 12.8-47.64 12.29-4.16-.26-9.69.25-12.13-3.92-2.27-4.57-3.69-9.51-5.89-14.11-4.21-9.92-10.44-18.78-15.88-28.04-19.22-31.21-40.08-61.83-66.43-87.53-11.96-11.98-25.65-21.97-38.91-32.4"/><path d="M881.72 324.33c1.26.27 1.47 1.89 2.2 2.8 3.9 7.73 9.52 14.36 14.44 21.42 1.74 11.05.99 22.26 1.2 33.41.3 4.06-1.23 7.97-1.02 12.02.02 2.07-.04 4.14-.45 6.18-1.25 5.56.08 11.32-1.01 16.9-.53 2.24-.56 4.55-.45 6.86-2.4-8.88-5.52-17.59-6.74-26.74-3.59-17.92-7.4-35.8-11.16-53.68-.91-4.22.24-8.43.75-12.61.2-2.33 1.2-4.49 2.24-6.56M909.58 374.13c7.04 12.41 10.68 26.34 17.04 39.07 4.23 9.92 8.77 19.69 13.75 29.25 3.94 7.58 7.08 15.65 12.13 22.6 1.88 7.62 3.36 15.33 5.31 22.94 2.38 10.5 5.79 20.73 8.82 31.05 4.28 14.25 8.2 28.6 12.23 42.92 2.79 10.27 5.88 20.48 8.03 30.91 1.83 8.13 1.47 16.56 3.39 24.68.39 3.5 1.93 7.92-.9 10.8-2.59 2.85-8.08 1.44-8.74-2.41-1.82-20.95-12.19-39.68-19.9-58.87-5.72-14.47-12.97-28.25-19.29-42.45a659 659 0 0 1-13.62-32.77c-1.62 3.5-3.06 7.66-6.83 9.41-3.14 1.38-6.51 2.16-9.63 3.58.35-4.54-.5-9.02-1.64-13.38-2.12-8.04-3.69-16.22-5.21-24.39-1.95-9.22-.82-18.7-1.08-28.04-.38-7.05 1.05-13.99 1.21-21.01 1.7-14.62 3.22-29.27 4.93-43.89" opacity=".5"/><path d="M414.9 382.96c2.88-2.83 5.47-5.99 8.75-8.39l1.47.62c-2.85 5.32-7.71 9.03-11.44 13.67-4.96 5.92-10.88 10.95-15.94 16.78-5.6 6.71-12.26 12.44-17.79 19.21-9.66 9.75-18.67 20.1-27.78 30.37-7.36 8.48-13.6 17.84-19.88 27.12-7.82 10.37-14.75 21.37-21.97 32.15-11.51 17.92-22.98 35.88-33.52 54.39-3.24 5.3-6.47 10.62-10.26 15.56-1.41 1.9-2.97 3.74-3.96 5.92-2.92 8.24-3.27 17.28-6.85 25.31.13-5.89.64-11.75.88-17.63 1.14-11.09 1.24-22.29 3.04-33.31 2.72 1.43 5.24 3.23 8.1 4.41.97-7.14 2.78-14.12 3.53-21.29-1.39-.14-2.77-.28-4.16-.4 5.53-9.78 11.54-19.28 17.67-28.68 1.6-2.6 3.29-5.29 3.49-8.42 7.46-5.83 13.54-13.18 20.08-19.98 12.99-13.99 25.98-27.97 38.99-41.94 6.61-7.12 12.71-14.76 20.03-21.19 8.16-6.68 17.03-12.65 23.91-20.76 7.04-8.63 15.78-15.64 23.61-23.52M578.42 393.27c1.05-.08 2.1-.17 3.16-.24 4.9 17.72 13.83 33.94 19.69 51.32.07.21.21.63.28.85l.19.58c-1.59.34-3.17.69-4.74 1.04 1.2-.88 2.4-1.74 3.63-2.6-6.06-9.72-12.13-19.47-16.68-30.01-2.24-5.4-4.88-10.73-5.88-16.54.09-1.47.21-2.94.35-4.4M535.38 393.47c2.07.08 4.14.19 6.22.3-.54 22.42-3.13 44.89-8.44 66.72-1.4 7.56-4.06 14.8-5.63 22.3 2.16-.93 3.15-3.11 4.29-5 7.48-13.12 16.54-25.33 23.12-38.96.95-2.04 2.8-3.39 4.45-4.83-3.47 7.68-7.59 15.27-8.86 23.71-3.52 7.97-6.51 16.15-9.94 24.16-5.04 14.95-10.78 29.65-16.43 44.38-1.57 3.76-3.2 7.54-3.87 11.6-4.15 21.53-6.85 43.34-8.75 65.18.47 7.16-1.26 14.2-1.09 21.35-5.09-10.59-8.02-22.06-9.65-33.66-.91 1.15-1.87 2.28-2.56 3.58-4.47 8.81-9.04 17.57-13.73 26.27-.62 1.13-.92 2.41-1.21 3.67-1.28 1.51-2.4 3.17-3.28 4.95-3.11 6.25-7.4 11.79-11.35 17.52-5.92 9.21-10.03 19.53-16.67 28.29-4.5 5.47-11.45 7.83-17.65 10.8-4.22 1.14-8.23 2.91-12.29 4.5-3.73 1.18-5.73 4.97-9.39 6.32-14.87 7.15-29.89 14.66-46.24 17.73-1.47 6.4-3.97 12.5-6.52 18.53-2.57 4.33-6.62 7.51-9.97 11.21-2.95 3.01-5.65 6.33-9.28 8.57-4.79 1.81-8.39 5.64-12.69 8.31-8.96 6.34-19.53 9.87-30.06 12.62-1.44-.05-1.93-1.75-1.01-2.66 2.4-4.53 5.08-8.9 8.22-12.94 1.31-1.56.02-3.5-.37-5.12 10.17-8.76 18.67-19.4 25.11-31.16 5.91-9.93 11.29-20.21 15.39-31.02l.77-.61c.25-3.03 1.51-5.8 2.77-8.51 3.92 3.96 7.91 8.68 8.18 14.53 1.49 8.88 2.17 17.86 1.67 26.86 5.45-5.84 9.46-13.35 10.3-21.41 5.23-.26 10.32-1.55 15.48-2.3 7.58-1.34 15.49-2.56 22.15-6.65 3.89-3.06 7.81-6.28 12.68-7.64 4.39-.6 8.37-2.61 12.5-4.1 10.32-3.24 18.41-11.58 23.25-21.04 1.81-3.56 4.56-6.8 5.29-10.79-1.76-6.35.42-12.7 1.96-18.85.53-1.95 1.04-3.91 1.53-5.86l-1.55.42c.46-.87.92-1.74 1.41-2.58l1.11-.8c3.88-7.37 5.6-15.62 8.41-23.42 2.72-7.52 5.25-15.12 7.08-22.91.6-2.66 1.57-5.21 2.69-7.68 3.55-4.61 5.61-10.11 8.36-15.19a717 717 0 0 0 26.27-56.72c7.68-25.61 14.09-51.75 16.7-78.41.25-7.88 1.82-15.66 1.12-23.56M865.76 516.02c-.62 4.81-2.43 9.35-3.56 14.05-4.37 16.34-6.63 33.15-8.36 49.94.13 10.5-.67 21.13-3.54 31.27-3.68 9.78-6.45 19.92-11.24 29.25-1.09 2.6-2.27 5.23-4.25 7.28-5.36 5.08-9.76 11.43-16.68 14.59-24.41 12.05-45.19 29.86-67.11 45.72-6.33 4.09-12.49 8.93-19.94 10.75-5.96.71-12.04.16-17.89-1.07-3.48-.68-6.65-2.46-10.17-2.9-11.03-1.13-21.84-3.81-32.44-6.99-2.52-.43-5.05-.81-7.59-.97-1.2.91-1.68 2.45-2.41 3.72-2.5 5.28-5.82 10.13-8.2 15.48-7.84-4.73-15.47-9.81-23.71-13.82-11.32-5.62-22.51-11.51-33.94-16.88-1.04-4.84-2.05-9.69-3.13-14.52 16.35 3.05 32.19 8.31 48.37 12.13 6.43 1.66 13.07 2.52 19.35 4.73 11.44 3.95 23.14 7.04 34.84 10.09 12.91 3.76 26.33 7.34 39.9 5.88 2.79-.04 5.06-1.77 7.1-3.49 12.24-10.54 24.76-20.78 37.81-30.32 10.59-7.68 21.44-15.19 33.41-20.6 6-2.56 10.81-7.05 15.83-11.09 2.76-2.11 4.01-5.45 5.68-8.38 3.24-6.01 8.02-11.25 9.92-17.92 2.48-8.5 4.35-17.19 5.36-25.98.98-8.28.2-16.67 1.61-24.91 2.81-16.76 4.93-33.95 12.23-49.51.82-1.89 1.76-3.73 2.75-5.53"/><path d="M779.89 534.14c.52-5.35 1.29-10.75 3.37-15.74 7.21 2.43 14.85 2.9 22.31 4.17 12.92 2.18 25.85 4.35 38.71 6.88-5.51 12.27-13.58 23.3-22.64 33.18-2.83 3.29-7.18 4.45-10.95 6.25-7.83-2.11-16.05-2.36-23.81-4.75-2.17-.75-4.44-.81-6.66-.36-.63-1.17-1.18-2.42-1.19-3.76-.53-8.63.02-17.28.86-25.87M579.92 539.93c22.26-5.84 44.89-10.08 67.4-14.81-.3 8-1.38 15.94-1.49 23.95-.09 4.91-.87 9.98-3.52 14.22-2.77 5.06-8.05 7.85-13.36 9.51l1.13.36c-12.28 2.29-24.91 2.72-37.04 5.85-2.47.67-5.16 1.22-6.85 3.33-2.73-.37-5.82-.53-7.9-2.58-6.05-6.19-10.04-14.02-12.89-22.12-1.27-4.37-2.7-8.71-3.5-13.2 6.1-1.09 11.97-3.14 18.02-4.51"/><path d="M313.72 623.99c4.07 2.38 5.58 7.31 9.15 10.31-8.8 12.81-16.99 26.05-24.15 39.85a46 46 0 0 0-5.62-6.52c5.79-15.03 12.83-29.57 20.62-43.64M337.88 661.03c-6.15-11.35-9.35-24.74-6.67-37.55 4.61 9.75 9.48 19.45 12.4 29.88 1.68 6.39 4.72 12.63 4.14 19.4-3.85-3.39-7.2-7.35-9.87-11.73" opacity=".3"/><path d="M757.37 635.49c1.62-.92 4.5 1 2.66 2.57-6.24 4.71-12.26 9.72-17.46 15.58-.61.02-1.82.07-2.43.1.34-3.96 3.38-6.91 5.79-9.81 3.38-3.29 6.92-6.82 11.44-8.44M373.47 655.26c11.21 7.31 21.88 15.87 29.37 27.11-1.8.4-3.57.92-5.31 1.53-8.59-.57-17.15-1.69-25.64-3.1.48-3.93.57-7.89.5-11.83-.16-4.61.98-9.12 1.08-13.71M521.87 699.77c5.87-3.09 11.67-6.4 17.83-8.91 4.69 17.82 9.54 35.61 15 53.22 1.34 4.01 2.67 8.04 3.21 12.26-6.46-14.86-12.16-30.04-18.22-45.05-3.56-6.06-10.5-8.48-16.79-10.6-.26-.23-.78-.69-1.03-.92M754.7 935.09c15.49 10.43 31.41 20.18 47.15 30.22-9.99 27.59-19.25 55.44-28.22 83.38-2.78 8.23-4.64 16.74-7.4 24.97-15.69-18.86-32.27-36.99-50.05-53.91-13.52-11.96-23.61-27.08-35.08-40.89 24.28-15.02 48.88-29.49 73.6-43.77M728.24 1158.42c6.5 8.74 13.22 17.34 18.8 26.72-.28 19.63-.1 39.27-.26 58.91-.64 11.62-1.09 23.26-1.41 34.91-.85 28.6-2.54 57.18-5.5 85.65-.45 1.6.22 4.18-2.15 4.51.64-18.72.98-37.5-.84-56.16-2.3-25.73-8.14-51.06-9.15-76.91-1.34-25.85-1.13-51.79.51-77.63"/></g><g fill="#e1746d"><path d="M408.1 862.05c16.09-35.31 31.04-71.12 46.85-106.55 9.84 13.31 19.01 27.1 28.58 40.61-1.22 11.02-3.02 22.2-1 33.24-.03 2.83 4.82 3.39 4.91.35-.13-8.22.15-16.47 2.18-24.48 15.26 21.43 29.48 43.6 43.29 66 .01 4.26-.63 8.55-.1 12.81.23 2.04 3.22 2.87 4.43 1.19.82-1.48.7-3.28.99-4.87 6.6 10.05 12.51 20.55 18.56 30.94 13.27 26.09 25.72 52.78 33.97 80.95 1.86 7.26 8.6 11.36 13.5 16.45 11.82 11.21 22.54 23.5 33.23 35.77 24.15 28.02 47.3 56.89 69.81 86.23-46.4 56.72-93.9 112.54-139.57 169.85-10.23 12.55-19.87 25.58-30.34 37.93-25.47 30.63-49.86 62.12-74.64 93.3-1.56 1.92-3.35 3.8-4.09 6.23h-.42c-2.5-13.53-2.32-27.34-2.57-41.03-.42-25.69.59-51.36 1.51-77.02.67-21.38 2.2-42.72 3.66-64.06.9-26.31 2.03-52.62 3.86-78.88 1.01-13.64.36-27.31.22-40.96-.22-15.24-.36-30.48-.48-45.71-4.91 2.06-9.81 4.15-14.64 6.41-14.43 6.96-29.11 13.62-42.35 22.73-22.87 14.75-46.41 28.47-68.56 44.32-30.68 21.68-60.24 44.92-88.8 69.32-15.42 13.45-30.85 27.02-44.39 42.41 11.7-32.95 23.89-65.73 37.03-98.13 17.43-42.25 36.03-84.03 56.39-124.97 2.53-.47 5.18-1.33 6.86-3.41 3.07-3.85 4.98-8.43 7.47-12.64 14.29-25.47 30.33-49.89 44.77-75.28 18.53-32.01 34.92-65.23 49.88-99.05M783.4 1108.97c13.85-16.53 27.32-33.37 41.12-49.94.54 60.67.51 121.35.62 182.02.04 26.97-1.24 53.94-3.73 80.8a15.5 15.5 0 0 1-1.18 3.88c-1.14-4.48-.32-9.19-1.04-13.74-1.4-15.38-2.83-30.81-6.09-45.94-2.34-11-3.79-22.17-5.86-33.22-4.43-25.05-11.13-49.61-16.78-74.4a757 757 0 0 1-10.46-53.8c1.14 1.43 2.27 2.88 3.4 4.34"/></g></svg>